<svg xmlns="http://www.w3.org/2000/svg" width="250" viewBox="0 0 187.5 187.5" height="250" version="1.0"><defs><clipPath id="a"><path d="M13.121 6.133h160.82V181H13.121Zm0 0"/></clipPath><clipPath id="b"><path d="M59 29h98v25H59Zm0 0"/></clipPath><clipPath id="c"><path d="M168.57 60.488v61.328c-2.691.746-6.703.73-10.367-.488-5.258-1.754-5.406-2.332-7.308-4.523-1.895-2.192-8.618 3.066-10.958-.438-2.328-3.504-6.132 2.918-10.515-1.465-4.383-4.382-7.496-.054-9.05 1.317-2.743 2.41 1.6 8.613-2.044 6.133-3.656-2.48-8.328.289-9.5 1.605-1.164 1.313-7.012-2.48-8.766-3.937-1.75-1.454-9.777.57-14.597 4.671-4.82 4.094-4.969.141-6.723-1.46-1.754-1.606-5.406.437-6.87 2.199-1.466 1.77-6.712-2.64-8.614-4.89-1.895-2.247-7.45 3.714-12.41.788-4.97-2.918-5.555 3.067-7.309 5.117-1.754 2.043-4.672 1.895-8.324 1.164-3.649-.726-2.77 2.63-4.82 1.903-2.043-.735-4.524-2.192-7.45 0-1.043.781-2.699 1.133-4.523 1.261V60.488l75.07-49.953Zm0 0"/></clipPath><clipPath id="d"><path d="M110 66h58.715v27H110Zm0 0"/></clipPath><clipPath id="e"><path d="M168.57 60.488v61.328c-2.691.746-6.703.73-10.367-.488-5.258-1.754-5.406-2.332-7.308-4.523-1.895-2.192-8.618 3.066-10.958-.438-2.328-3.504-6.132 2.918-10.515-1.465-4.383-4.382-7.496-.054-9.05 1.317-2.743 2.41 1.6 8.613-2.044 6.133-3.656-2.48-8.328.289-9.5 1.605-1.164 1.313-7.012-2.48-8.766-3.937-1.75-1.454-9.777.57-14.597 4.671-4.82 4.094-4.969.141-6.723-1.46-1.754-1.606-5.406.437-6.87 2.199-1.466 1.77-6.712-2.64-8.614-4.89-1.895-2.247-7.45 3.714-12.41.788-4.97-2.918-5.555 3.067-7.309 5.117-1.754 2.043-4.672 1.895-8.324 1.164-3.649-.726-2.77 2.63-4.82 1.903-2.043-.735-4.524-2.192-7.45 0-1.043.781-2.699 1.133-4.523 1.261V60.488l75.07-49.953Zm0 0"/></clipPath><clipPath id="f"><path d="M42 67h126.715v64H42Zm0 0"/></clipPath><clipPath id="g"><path d="M168.57 60.488v61.328c-2.691.746-6.703.73-10.367-.488-5.258-1.754-5.406-2.332-7.308-4.523-1.895-2.192-8.618 3.066-10.958-.438-2.328-3.504-6.132 2.918-10.515-1.465-4.383-4.382-7.496-.054-9.05 1.317-2.743 2.41 1.6 8.613-2.044 6.133-3.656-2.48-8.328.289-9.5 1.605-1.164 1.313-7.012-2.48-8.766-3.937-1.75-1.454-9.777.57-14.597 4.671-4.82 4.094-4.969.141-6.723-1.46-1.754-1.606-5.406.437-6.87 2.199-1.466 1.77-6.712-2.64-8.614-4.89-1.895-2.247-7.45 3.714-12.41.788-4.97-2.918-5.555 3.067-7.309 5.117-1.754 2.043-4.672 1.895-8.324 1.164-3.649-.726-2.77 2.63-4.82 1.903-2.043-.735-4.524-2.192-7.45 0-1.043.781-2.699 1.133-4.523 1.261V60.488l75.07-49.953Zm0 0"/></clipPath><clipPath id="h"><path d="M18.383 69H86v24H18.383Zm0 0"/></clipPath><clipPath id="i"><path d="M168.57 60.488v61.328c-2.691.746-6.703.73-10.367-.488-5.258-1.754-5.406-2.332-7.308-4.523-1.895-2.192-8.618 3.066-10.958-.438-2.328-3.504-6.132 2.918-10.515-1.465-4.383-4.382-7.496-.054-9.05 1.317-2.743 2.41 1.6 8.613-2.044 6.133-3.656-2.48-8.328.289-9.5 1.605-1.164 1.313-7.012-2.48-8.766-3.937-1.75-1.454-9.777.57-14.597 4.671-4.82 4.094-4.969.141-6.723-1.46-1.754-1.606-5.406.437-6.87 2.199-1.466 1.77-6.712-2.64-8.614-4.89-1.895-2.247-7.45 3.714-12.41.788-4.97-2.918-5.555 3.067-7.309 5.117-1.754 2.043-4.672 1.895-8.324 1.164-3.649-.726-2.77 2.63-4.82 1.903-2.043-.735-4.524-2.192-7.45 0-1.043.781-2.699 1.133-4.523 1.261V60.488l75.07-49.953Zm0 0"/></clipPath><clipPath id="j"><path d="M18.383 76H44v55H18.383Zm0 0"/></clipPath><clipPath id="k"><path d="M168.57 60.488v61.328c-2.691.746-6.703.73-10.367-.488-5.258-1.754-5.406-2.332-7.308-4.523-1.895-2.192-8.618 3.066-10.958-.438-2.328-3.504-6.132 2.918-10.515-1.465-4.383-4.382-7.496-.054-9.05 1.317-2.743 2.41 1.6 8.613-2.044 6.133-3.656-2.48-8.328.289-9.5 1.605-1.164 1.313-7.012-2.48-8.766-3.937-1.75-1.454-9.777.57-14.597 4.671-4.82 4.094-4.969.141-6.723-1.46-1.754-1.606-5.406.437-6.87 2.199-1.466 1.77-6.712-2.64-8.614-4.89-1.895-2.247-7.45 3.714-12.41.788-4.97-2.918-5.555 3.067-7.309 5.117-1.754 2.043-4.672 1.895-8.324 1.164-3.649-.726-2.77 2.63-4.82 1.903-2.043-.735-4.524-2.192-7.45 0-1.043.781-2.699 1.133-4.523 1.261V60.488l75.07-49.953Zm0 0"/></clipPath><clipPath id="l"><path d="M15.336 9h156.336v169.336H15.336Zm0 0"/></clipPath><clipPath id="m"><path d="M60 31h95v24H60Zm0 0"/></clipPath><clipPath id="n"><path d="M166.504 61.402v59.637c-2.617.723-6.52.707-10.082-.477-5.113-1.707-5.258-2.269-7.11-4.398-1.84-2.133-8.375 2.98-10.652-.426-2.265-3.41-5.965 2.836-10.226-1.422-4.262-4.261-7.29-.054-8.805 1.278-2.66 2.344 1.562 8.375-1.984 5.965-3.555-2.414-8.098.28-9.239 1.558-1.133 1.278-6.816-2.41-8.523-3.824-1.703-1.418-9.508.55-14.195 4.539-4.688 3.98-4.833.137-6.54-1.422-1.703-1.558-5.257.426-6.68 2.14-1.421 1.72-6.527-2.566-8.378-4.757-1.84-2.18-7.242 3.613-12.067.77-4.832-2.84-5.402 2.98-7.105 4.976-1.707 1.984-4.543 1.84-8.098 1.133-3.543-.707-2.691 2.558-4.687 1.848-1.985-.715-4.399-2.13-7.242 0-1.016.761-2.625 1.101-4.399 1.23V61.402l73-48.578Zm0 0"/></clipPath><clipPath id="o"><path d="M110 67h56.645v26H110Zm0 0"/></clipPath><clipPath id="p"><path d="M166.504 61.402v59.637c-2.617.723-6.52.707-10.082-.477-5.113-1.707-5.258-2.269-7.11-4.398-1.84-2.133-8.375 2.98-10.652-.426-2.265-3.41-5.965 2.836-10.226-1.422-4.262-4.261-7.29-.054-8.805 1.278-2.66 2.344 1.562 8.375-1.984 5.965-3.555-2.414-8.098.28-9.239 1.558-1.133 1.278-6.816-2.41-8.523-3.824-1.703-1.418-9.508.55-14.195 4.539-4.688 3.98-4.833.137-6.54-1.422-1.703-1.558-5.257.426-6.68 2.14-1.421 1.72-6.527-2.566-8.378-4.757-1.84-2.18-7.242 3.613-12.067.77-4.832-2.84-5.402 2.98-7.105 4.976-1.707 1.984-4.543 1.84-8.098 1.133-3.543-.707-2.691 2.558-4.687 1.848-1.985-.715-4.399-2.13-7.242 0-1.016.761-2.625 1.101-4.399 1.23V61.402l73-48.578Zm0 0"/></clipPath><clipPath id="q"><path d="M43 68h123.645v62H43Zm0 0"/></clipPath><clipPath id="r"><path d="M166.504 61.402v59.637c-2.617.723-6.52.707-10.082-.477-5.113-1.707-5.258-2.269-7.11-4.398-1.84-2.133-8.375 2.98-10.652-.426-2.265-3.41-5.965 2.836-10.226-1.422-4.262-4.261-7.29-.054-8.805 1.278-2.66 2.344 1.562 8.375-1.984 5.965-3.555-2.414-8.098.28-9.239 1.558-1.133 1.278-6.816-2.41-8.523-3.824-1.703-1.418-9.508.55-14.195 4.539-4.688 3.98-4.833.137-6.54-1.422-1.703-1.558-5.257.426-6.68 2.14-1.421 1.72-6.527-2.566-8.378-4.757-1.84-2.18-7.242 3.613-12.067.77-4.832-2.84-5.402 2.98-7.105 4.976-1.707 1.984-4.543 1.84-8.098 1.133-3.543-.707-2.691 2.558-4.687 1.848-1.985-.715-4.399-2.13-7.242 0-1.016.761-2.625 1.101-4.399 1.23V61.402l73-48.578Zm0 0"/></clipPath><clipPath id="s"><path d="M20.453 70H86v23H20.453Zm0 0"/></clipPath><clipPath id="t"><path d="M166.504 61.402v59.637c-2.617.723-6.52.707-10.082-.477-5.113-1.707-5.258-2.269-7.11-4.398-1.84-2.133-8.375 2.98-10.652-.426-2.265-3.41-5.965 2.836-10.226-1.422-4.262-4.261-7.29-.054-8.805 1.278-2.66 2.344 1.562 8.375-1.984 5.965-3.555-2.414-8.098.28-9.239 1.558-1.133 1.278-6.816-2.41-8.523-3.824-1.703-1.418-9.508.55-14.195 4.539-4.688 3.98-4.833.137-6.54-1.422-1.703-1.558-5.257.426-6.68 2.14-1.421 1.72-6.527-2.566-8.378-4.757-1.84-2.18-7.242 3.613-12.067.77-4.832-2.84-5.402 2.98-7.105 4.976-1.707 1.984-4.543 1.84-8.098 1.133-3.543-.707-2.691 2.558-4.687 1.848-1.985-.715-4.399-2.13-7.242 0-1.016.761-2.625 1.101-4.399 1.23V61.402l73-48.578Zm0 0"/></clipPath><clipPath id="u"><path d="M20.453 76H46v54H20.453Zm0 0"/></clipPath><clipPath id="v"><path d="M166.504 61.402v59.637c-2.617.723-6.52.707-10.082-.477-5.113-1.707-5.258-2.269-7.11-4.398-1.84-2.133-8.375 2.98-10.652-.426-2.265-3.41-5.965 2.836-10.226-1.422-4.262-4.261-7.29-.054-8.805 1.278-2.66 2.344 1.562 8.375-1.984 5.965-3.555-2.414-8.098.28-9.239 1.558-1.133 1.278-6.816-2.41-8.523-3.824-1.703-1.418-9.508.55-14.195 4.539-4.688 3.98-4.833.137-6.54-1.422-1.703-1.558-5.257.426-6.68 2.14-1.421 1.72-6.527-2.566-8.378-4.757-1.84-2.18-7.242 3.613-12.067.77-4.832-2.84-5.402 2.98-7.105 4.976-1.707 1.984-4.543 1.84-8.098 1.133-3.543-.707-2.691 2.558-4.687 1.848-1.985-.715-4.399-2.13-7.242 0-1.016.761-2.625 1.101-4.399 1.23V61.402l73-48.578Zm0 0"/></clipPath></defs><g clip-path="url(#a)"><path fill="#fff" d="M13.16 172.098V64.715c0-4.399 2.203-8.504 5.863-10.942l67.188-44.71a13.155 13.155 0 0 1 14.566 0l67.188 44.71a13.134 13.134 0 0 1 5.863 10.942v107.383a8.76 8.76 0 0 1-8.762 8.761H21.926c-4.84 0-8.766-3.922-8.766-8.761Zm0 0"/></g><path fill="#011627" d="M168.57 67.531v54.285c-2.691.746-6.703.73-10.367-.488-5.258-1.754-5.406-2.332-7.308-4.523-1.895-2.192-8.618 3.066-10.958-.438-2.328-3.504-6.132 2.918-10.515-1.465-4.383-4.382-7.496-.054-9.05 1.317-2.743 2.41 1.6 8.613-2.044 6.133-3.656-2.48-8.328.289-9.5 1.605-1.164 1.313-7.012-2.48-8.766-3.937-1.75-1.454-9.777.57-14.597 4.671-4.82 4.094-4.969.141-6.723-1.46-1.754-1.606-5.406.437-6.87 2.199-1.466 1.77-6.712-2.64-8.614-4.89-1.895-2.247-7.45 3.714-12.41.788-4.97-2.918-5.555 3.067-7.309 5.117-1.754 2.043-4.672 1.895-8.324 1.164-3.649-.726-2.77 2.63-4.82 1.903-2.043-.735-4.524-2.192-7.45 0-1.043.781-2.699 1.133-4.523 1.261V67.531c0-4.398 2.2-8.504 5.863-10.941l61.926-41.207a13.141 13.141 0 0 1 14.562 0l61.934 41.207a13.148 13.148 0 0 1 5.863 10.941Zm0 0"/><g clip-path="url(#b)"><g clip-path="url(#c)"><path fill="#199a87" d="M156.738 48.957s-4.601 1.313-11.172 2.191c-6.574.875-9.859-2.628-17.746-2.191-7.886.438-11.613 3.176-17.855 2.957-6.246-.219-17.09-1.07-22.567.012-5.48 1.086-16.433-.778-24.976 1.195-8.547 1.969 2.41-1.316 8.324-2.96 5.914-1.641 11.723-4.052 14.57-5.036 2.848-.988 5.805-4.82 9.09-1.316 3.29 3.504 3.727 1.316 5.258 1.207 1.535-.114 2.082-1.864 4.602-.77 2.52 1.098 7.449.328 6.464-2.52-.988-2.847 1.094-6.68 4.711-5.476 3.614 1.207 8.98 2.191 9.09.766.11-1.422.11-9.528 11.285-6.352 11.172 3.176 20.922 18.293 20.922 18.293Zm0 0"/></g></g><g clip-path="url(#d)"><g clip-path="url(#e)"><path fill="#199a87" d="M215.281 87.41s-4.941 1.41-12.008 2.352c-7.062.945-10.593-2.825-19.07-2.352-8.473.469-12.476 3.414-19.187 3.176-6.711-.234-18.364-1.148-24.25.016-5.887 1.164-17.657-.84-26.84 1.28-9.184 2.118 2.59-1.413 8.945-3.179 6.36-1.766 12.598-4.355 15.66-5.414 3.059-1.059 6.239-5.18 9.77-1.414 3.531 3.77 4 1.414 5.648 1.297 1.649-.117 2.238-2.004 4.946-.824 2.707 1.175 8.003.351 6.945-2.707-1.059-3.063 1.18-7.184 5.062-5.887 3.887 1.293 9.653 2.355 9.77.824.117-1.531.117-10.242 12.125-6.828 12.008 3.414 22.484 19.66 22.484 19.66Zm0 0"/></g></g><g clip-path="url(#f)"><g clip-path="url(#g)"><path fill="#2ec4b6" d="M188.91 132.957c-3.926 1.438-8.437.305-12.496-.035a434.945 434.945 0 0 0-15.469-1.043c-20.086-.992-40.215-.52-60.25 1.289-3.504.312-5.312-2.148-5.441-4.875-.824-.05-1.649-.121-2.473-.176-14.215-.875-28.445 25.125-42.687 25.363-2.059.036-4.117.07-6.18.098l-1.516-56.246c.223-.098.442-.184.649-.273-.129-.684-.129-1.75-.149-2.137-.113-2.988.95-5.863 3.254-7.852a8.175 8.175 0 0 1 3.907-1.86c.683-3.784 2.007-7.378 5.32-9.331a8.886 8.886 0 0 1 2.926-1.106c2.34-4.52 7.207-7.351 13.078-5.257.383.14.754.308 1.101.48 2.368-3.129 7.16-3.766 9.536.176.148.246.3.492.437.738 1.344-.035 2.797.805 2.98 2.504a55.36 55.36 0 0 1 .239 3.106c1.058.242 2.015 1.05 2.101 2.433.063 1.027.008 2.043-.093 3.05a24.76 24.76 0 0 1 .918 4.829c.07.809.078 1.633.054 2.453 2.778 2.817 4.203 7.172 3.899 11.14-.035.481-.098.966-.176 1.438.5.106.98.29 1.445.528.98-4.254 3.559-7.914 8.125-8.985 2.735-.648 6.281.797 6.957 3.785.739.395 1.281 1.13 1.29 2.22a57.11 57.11 0 0 1-.079 3.163c.953.305 1.75 1.102 1.813 2.383.07 1.418.113 2.84.14 4.258.684-.27 1.352-.488 1.813-.621 4.742-1.34 8.73.781 11.754 4.023 3.039-1.09 6.343-1.465 9.613-1.605 3.734-.157 10.332.668 12.84-2.926 2.445-3.496 6.441-3.332 8.738-1.086 2.074-2.29 6.027-2.305 8.219-.117.219.222.43.43.648.64 2.602-1.683 5.555-2.671 8.79-2.023 2.253.457 3.515 1.988 5.495 2.785 2.29.93 4.961-.191 7.188-.883 3.207-1 5.836 1.22 7 3.977 2.777 6.601 2.902 18.598-5.258 21.578Zm0 0"/></g></g><g clip-path="url(#h)"><g clip-path="url(#i)"><path fill="#199a87" d="M-7.473 88.004s4.371 1.25 10.618 2.082c6.246.832 9.367-2.5 16.863-2.082 7.492.414 11.031 3.02 16.965 2.808 5.933-.207 16.238-1.015 21.441.012 5.203 1.031 15.613-.738 23.73 1.133 8.122 1.875-2.289-1.246-7.91-2.809-5.62-1.562-11.136-3.851-13.843-4.789-2.707-.933-5.516-4.578-8.637-1.246-3.125 3.328-3.54 1.246-4.996 1.145-1.457-.106-1.98-1.77-4.375-.73-2.39 1.042-7.074.312-6.14-2.395.937-2.703-1.04-6.348-4.473-5.203-3.438 1.144-8.536 2.082-8.641.73-.106-1.355-.106-9.058-10.719-6.039C1.793 73.641-7.473 88.004-7.473 88.004Zm0 0"/></g></g><g clip-path="url(#j)"><g clip-path="url(#k)"><path fill="#2ec4b6" d="M43.914 153.578c-12.312.164-24.562.059-36.746-2.234-1.645-.309-2.8-1.387-3.45-2.762-1.78-.281-3.464-.797-4.89-1.664a7.69 7.69 0 0 1-3.172-3.664l.903-45.512c.402-.601.859-1.172 1.355-1.691 1.5-1.567 3.402-2.742 5.488-3.336.325-.465.746-.86 1.325-1.14.953-.45 1.953-.423 2.941-.044.45.121.836.348 1.168.672.14.098.254.188.36.266 1.148-.406 2.148-.344 2.902.058.172-.242.39-.48.726-.699.543-.36 1.121-.394 1.656-.36.375-1.628 2.06-2.093 3.418-1.593.684-.406 1.586-.492 2.34-.281.594-.254 1.278-.219 1.91.008.262-.211.559-.375.875-.493a39.46 39.46 0 0 1 .008-2.558c.14-2.918 1.246-5.766 3.692-7.492a8.064 8.064 0 0 1 4.058-1.454c.559-.632 1.262-1.043 2.074-1.035a2.481 2.481 0 0 1 1.954-.14c.71-.489 1.691-.41 2.492 0 1.504-.34 3.265.472 3.199 2.453-.027.922-.063 1.84-.098 2.762.422.308.746.77.887 1.43a8.436 8.436 0 0 1 .129 2.741c.309 1.559.332 3.192.168 4.75-.035.34-.23 1.227-.457 2.254.203 1.602.262 3.207.203 4.836.332-.043.7-.176 1.066-.324Zm0 0"/></g></g><path fill="#fff" d="M45.387 92.54c0 3.757.09 6.878 2.078 9.007 1.988 2.129 4.258 2.379 4.445 8.008.094 2.836.149 15.351.168 18.28.938.493 5.09 3.774 4.992 2.74l.043-10.891c0-1 .188-2.5 3.117-5.88 2.93-3.378 4.165-5.25 4.165-11.257 0-6-2.84-4.879-2.743-2.25.094 2.629-.285 5.508-2.27 7.379-1.984 1.879-2.269.75-2.269-3.38V90.04c0-6.625-5.203-8.125-5.203 0 0 8.129-.847 8.258-1.984 6.879-1.14-1.371-1.422-1.871-1.422-4.25s-3.117-3.879-3.117-.129ZM143.54 104.934c0 1.879.046 3.441 1.038 4.504.996 1.066 2.129 1.19 2.223 4.003.047 1.418.074 7.676.082 9.141.472.246 2.547 1.887 2.5 1.371l.02-5.445c0-.5.093-1.25 1.558-2.942 1.465-1.687 2.082-2.625 2.082-5.629 0-2.996-1.418-2.437-1.371-1.12.047 1.312-.14 2.75-1.133 3.687-.996.937-1.137.375-1.137-1.692v-7.128c0-3.313-2.601-4.063-2.601 0 0 4.066-.426 4.129-.992 3.441-.57-.688-.711-.938-.711-2.125 0-1.191-1.559-1.941-1.559-.066ZM32.95 113.43c0 1.879-.048 3.437-1.04 4.504-.996 1.062-2.129 1.187-2.223 4-.046 1.418-.074 7.675-.082 9.144-.468.246-2.546 1.883-2.496 1.367L27.086 127c0-.5-.094-1.25-1.559-2.941-1.465-1.688-2.082-2.621-2.082-5.625 0-3 1.422-2.442 1.371-1.125-.046 1.312.145 2.754 1.137 3.687.992.942 1.133.375 1.133-1.687v-7.13c0-3.316 2.602-4.066 2.602 0 0 4.063.425 4.13.992 3.438.57-.683.71-.933.71-2.125 0-1.187 1.56-1.937 1.56-.062ZM107.352 113.633c.074 1.699.117 9.195.132 10.949.735.297 3.996 2.262 3.918 1.64l.035-6.523c0-.597.149-1.496 2.45-3.52 2.3-2.027 3.27-3.144 3.27-6.745 0-3.594-2.231-2.922-2.153-1.348.074 1.578-.223 3.3-1.785 4.422-1.559 1.125-1.781.449-1.781-2.024v-8.539c0-3.972-4.086-4.87-4.086 0 0 4.868-.145 8.317 0 11.688Zm0 0"/><path fill="#fff" d="M80.047 85.168c0 5.926.16 10.848 3.687 14.203 3.54 3.36 7.567 3.754 7.899 12.629.172 4.473.262 10.988.297 15.61 1.668.777 12.86 6.265 12.68 4.632 0 0-.688-10.953-.622-17.492.07-6.813-2.777-16.383 2.426-21.71 5.203-5.33 7.395-8.282 7.395-17.755 0-9.46-5.043-7.691-4.871-3.547.167 4.145-.504 8.684-4.032 11.637-3.527 2.96-4.027 1.18-4.027-5.332v-10.04c0-10.452-9.246-12.816-9.246 0 0 12.821 1.246 28.274-2.836 25.84-2.543-1.511-3.215-4.718-3.215-8.472 0-3.75-5.535-6.117-5.535-.203Zm0 0"/><g clip-path="url(#l)"><path fill="#f36" d="M15.375 169.934V65.512c0-4.282 2.14-8.274 5.703-10.645l65.336-43.476a12.795 12.795 0 0 1 14.164 0l65.336 43.476a12.783 12.783 0 0 1 5.703 10.645v104.422c0 4.703-3.816 8.52-8.523 8.52H23.898a8.52 8.52 0 0 1-8.523-8.52Zm0 0"/></g><path fill="#011627" d="M166.504 68.25v52.79c-2.617.722-6.52.706-10.082-.478-5.113-1.707-5.258-2.269-7.11-4.398-1.84-2.133-8.375 2.98-10.652-.426-2.265-3.41-5.965 2.836-10.226-1.422-4.262-4.261-7.29-.054-8.805 1.278-2.66 2.344 1.562 8.375-1.984 5.965-3.555-2.414-8.098.28-9.239 1.558-1.133 1.278-6.816-2.41-8.523-3.824-1.703-1.418-9.508.55-14.195 4.539-4.688 3.98-4.833.137-6.54-1.422-1.703-1.558-5.257.426-6.68 2.14-1.421 1.72-6.527-2.566-8.378-4.757-1.84-2.18-7.242 3.613-12.067.77-4.832-2.84-5.402 2.98-7.105 4.976-1.707 1.984-4.543 1.84-8.098 1.133-3.543-.707-2.691 2.558-4.687 1.848-1.985-.715-4.399-2.13-7.242 0-1.016.761-2.625 1.101-4.399 1.23v-61.5c0-4.277 2.14-8.273 5.7-10.645l60.222-40.07a12.789 12.789 0 0 1 14.16 0l60.227 40.07a12.789 12.789 0 0 1 5.703 10.645Zm0 0"/><g clip-path="url(#m)"><g clip-path="url(#n)"><path fill="#199a87" d="M154.996 50.184s-4.473 1.28-10.863 2.132c-6.39.852-9.59-2.558-17.258-2.132-7.672.43-11.293 3.09-17.363 2.879-6.075-.215-16.621-1.043-21.946.011-5.328 1.055-15.98-.758-24.289 1.16-8.308 1.918 2.344-1.277 8.098-2.875 5.75-1.601 11.398-3.945 14.168-4.902 2.77-.957 5.644-4.687 8.84-1.277 3.195 3.41 3.62 1.277 5.113 1.172 1.492-.106 2.024-1.813 4.477-.747 2.449 1.067 7.242.32 6.285-2.449-.961-2.77 1.062-6.5 4.578-5.328 3.516 1.172 8.738 2.133 8.844.746.105-1.383.105-9.265 10.972-6.18 10.864 3.09 20.344 17.79 20.344 17.79Zm0 0"/></g></g><g clip-path="url(#o)"><g clip-path="url(#p)"><path fill="#199a87" d="M211.926 87.578s-4.805 1.375-11.676 2.29c-6.867.913-10.3-2.747-18.543-2.29-8.242.457-12.137 3.32-18.66 3.09-6.524-.23-17.86-1.117-23.582.012-5.723 1.132-17.172-.813-26.102 1.246-8.93 2.062 2.52-1.371 8.703-3.09 6.18-1.715 12.246-4.234 15.223-5.266 2.977-1.03 6.066-5.035 9.504-1.37 3.434 3.66 3.89 1.37 5.492 1.257 1.606-.113 2.176-1.945 4.809-.8 2.633 1.144 7.785.343 6.754-2.634-1.032-2.976 1.144-6.984 4.922-5.726 3.777 1.262 9.386 2.293 9.503.805.114-1.489.114-9.961 11.79-6.641 11.675 3.32 21.863 19.117 21.863 19.117Zm0 0"/></g></g><g clip-path="url(#q)"><g clip-path="url(#r)"><path fill="#2ec4b6" d="M186.281 131.871c-3.816 1.395-8.207.297-12.152-.035-5-.426-10.02-.766-15.04-1.016-19.534-.96-39.109-.5-58.589 1.254-3.41.309-5.168-2.09-5.293-4.738-.8-.05-1.602-.121-2.406-.172-13.82-.852-27.66 24.434-41.508 24.664-2.004.035-4.008.067-6.012.094L43.81 97.227c.214-.094.425-.18.632-.262-.129-.668-.129-1.707-.144-2.082-.113-2.906.918-5.7 3.16-7.637a7.964 7.964 0 0 1 3.8-1.805c.665-3.683 1.954-7.175 5.173-9.078a8.66 8.66 0 0 1 2.847-1.07c2.278-4.398 7.004-7.152 12.715-5.113.375.132.735.297 1.074.468 2.301-3.043 6.961-3.668 9.274.168.144.239.289.477.426.72 1.3-.036 2.718.78 2.894 2.433.113 1.008.18 2.011.23 3.02 1.032.238 1.962 1.023 2.047 2.366.06.997.008 1.989-.093 2.97.441 1.515.758 3.073.894 4.695.067.78.078 1.582.051 2.382 2.703 2.739 4.09 6.973 3.793 10.832-.035.47-.094.938-.172 1.399.485.101.953.281 1.406.512.954-4.133 3.461-7.696 7.903-8.735 2.656-.633 6.11.774 6.765 3.68.715.383 1.243 1.101 1.25 2.156a50.588 50.588 0 0 1-.074 3.078c.93.297 1.703 1.074 1.762 2.317.07 1.382.113 2.761.137 4.144.664-.265 1.312-.48 1.765-.605 4.61-1.305 8.489.757 11.43 3.91 2.957-1.059 6.168-1.422 9.348-1.559 3.628-.152 10.046.649 12.484-2.847 2.379-3.399 6.262-3.239 8.496-1.055 2.02-2.227 5.863-2.242 7.996-.113.211.214.414.418.629.625 2.531-1.637 5.402-2.602 8.547-1.97 2.191.442 3.418 1.934 5.344 2.708 2.226.906 4.824-.188 6.988-.86 3.121-.972 5.676 1.184 6.809 3.868 2.703 6.418 2.82 18.086-5.114 20.984Zm0 0"/></g></g><g clip-path="url(#s)"><g clip-path="url(#t)"><path fill="#199a87" d="M-4.688 88.156s4.25 1.215 10.325 2.024c6.07.808 9.11-2.43 16.394-2.024 7.29.403 10.73 2.934 16.5 2.735 5.77-.204 15.79-.993 20.852.007 5.058 1.004 15.18-.718 23.078 1.106 7.894 1.82-2.227-1.215-7.695-2.734-5.465-1.52-10.829-3.747-13.461-4.657-2.633-.91-5.364-4.453-8.403-1.215-3.035 3.239-3.441 1.215-4.855 1.114-1.418-.102-1.926-1.719-4.254-.707-2.328 1.011-6.883.3-5.969-2.328.91-2.633-1.015-6.176-4.355-5.063-3.34 1.113-8.297 2.023-8.399.711-.101-1.316-.101-8.809-10.425-5.871C4.32 74.187-4.687 88.156-4.687 88.156Zm0 0"/></g></g><g clip-path="url(#u)"><g clip-path="url(#v)"><path fill="#2ec4b6" d="M45.285 151.922c-11.976.164-23.89.058-35.734-2.172-1.602-.3-2.727-1.348-3.36-2.684-1.73-.273-3.363-.777-4.753-1.62a7.516 7.516 0 0 1-3.086-3.563l.878-44.254c.391-.59.836-1.145 1.32-1.645a11.993 11.993 0 0 1 5.337-3.25c.316-.449.722-.832 1.285-1.105.93-.438 1.902-.41 2.863-.043.438.117.813.34 1.133.656.137.094.25.18.352.254 1.117-.39 2.085-.332 2.82.059a2.57 2.57 0 0 1 .707-.68c.527-.352 1.09-.383 1.61-.352.366-1.582 2.003-2.035 3.323-1.55.665-.391 1.543-.477 2.278-.27.578-.25 1.242-.215 1.855.008.258-.207.547-.367.856-.477a34.735 34.735 0 0 1 .008-2.488c.136-2.84 1.21-5.61 3.585-7.289a7.87 7.87 0 0 1 3.946-1.414c.547-.613 1.226-1.012 2.02-1.004.597-.3 1.261-.36 1.902-.137.691-.476 1.644-.402 2.418 0 1.468-.332 3.18.461 3.113 2.387-.027.895-.059 1.79-.094 2.684.41.297.723.75.86 1.39a8.176 8.176 0 0 1 .128 2.664c.297 1.52.325 3.106.16 4.621-.03.332-.218 1.192-.44 2.192.195 1.558.253 3.117.195 4.703.324-.043.683-.172 1.039-.316Zm0 0"/></g></g><path fill="#f36" d="M46.715 92.566c0 3.657.086 6.692 2.02 8.762 1.937 2.07 4.14 2.313 4.324 7.785.093 2.758.14 14.93.16 17.778.914.476 4.953 3.668 4.855 2.664l.043-10.594c0-.973.184-2.43 3.031-5.715 2.848-3.285 4.051-5.105 4.051-10.95 0-5.831-2.761-4.741-2.668-2.187.094 2.559-.277 5.36-2.207 7.176-1.93 1.828-2.207.73-2.207-3.285V90.137c0-6.446-5.058-7.903-5.058 0 0 7.902-.829 8.031-1.934 6.687-1.105-1.332-1.379-1.816-1.379-4.129 0-2.316-3.031-3.773-3.031-.129ZM142.164 104.621c0 1.828.043 3.344 1.008 4.379.969 1.035 2.07 1.156 2.16 3.895.047 1.378.074 7.464.082 8.89.457.238 2.477 1.832 2.43 1.328l.02-5.293c0-.488.09-1.218 1.515-2.86 1.426-1.644 2.023-2.554 2.023-5.472 0-2.918-1.379-2.37-1.332-1.093.047 1.277-.136 2.675-1.105 3.585-.965.915-1.102.364-1.102-1.64v-6.934c0-3.222-2.531-3.953-2.531 0s-.41 4.016-.965 3.344c-.55-.668-.691-.91-.691-2.066 0-1.157-1.512-1.887-1.512-.063ZM34.617 112.879c0 1.828-.043 3.344-1.008 4.379-.968 1.035-2.07 1.16-2.16 3.894-.047 1.38-.074 7.465-.082 8.891-.457.238-2.476 1.832-2.43 1.332l-.019-5.297c0-.488-.09-1.215-1.516-2.86-1.425-1.64-2.023-2.55-2.023-5.472 0-2.918 1.379-2.371 1.332-1.094-.047 1.278.137 2.68 1.105 3.586.965.914 1.102.367 1.102-1.64v-6.934c0-3.223 2.531-3.95 2.531 0 0 3.953.41 4.016.965 3.344.55-.664.691-.906.691-2.063 0-1.16 1.512-1.886 1.512-.066ZM106.973 113.078c.07 1.652.113 8.942.125 10.649.718.289 3.89 2.199 3.812 1.593l.035-6.343c0-.582.145-1.454 2.38-3.422 2.237-1.97 3.183-3.059 3.183-6.559 0-3.492-2.172-2.84-2.098-1.308.074 1.53-.215 3.207-1.73 4.296-1.52 1.094-1.735.438-1.735-1.968v-8.305c0-3.86-3.972-4.734-3.972 0s-.145 8.09 0 11.367Zm0 0"/><path fill="#f36" d="M80.418 85.398c0 5.762.156 10.547 3.586 13.813 3.441 3.266 7.36 3.648 7.683 12.281.165 4.348.254 10.688.286 15.18 1.62.754 12.504 6.09 12.332 4.504 0 0-.672-10.653-.606-17.008.07-6.625-2.703-15.934 2.36-21.117 5.062-5.18 7.191-8.051 7.191-17.262 0-9.2-4.906-7.48-4.738-3.45.168 4.032-.489 8.446-3.918 11.313-3.43 2.883-3.918 1.153-3.918-5.18v-9.765c0-10.164-8.992-12.465-8.992 0s1.214 27.492-2.758 25.129c-2.469-1.469-3.121-4.59-3.121-8.238 0-3.649-5.387-5.95-5.387-.2Zm0 0"/><path d="M40.317 159.852h-7.344c-.555 1.711-1.14 3.196-1.766 4.454-.625 1.261-1.324 2.308-2.094 3.14-.773.832-1.617 1.445-2.53 1.844-.907.406-1.93.61-3.063.61a9.225 9.225 0 0 1-1.797-.173 6.69 6.69 0 0 1-1.531-.453c-.438-.187-.786-.418-1.047-.687-.27-.274-.407-.555-.407-.86 0-.238.04-.476.11-.718.062-.239.164-.457.297-.657a1.43 1.43 0 0 1 .468-.484c.188-.125.403-.187.641-.187.211 0 .39.148.547.437.156.281.355.594.594.938.242.343.547.656.922.937s.894.422 1.562.422c.664 0 1.305-.164 1.922-.484.613-.32 1.203-.829 1.766-1.516.562-.695 1.101-1.582 1.625-2.656.52-1.082 1.023-2.383 1.515-3.907h-4.594v-1.718h5.11c.426-1.446.844-2.91 1.25-4.391.406-1.488.789-2.91 1.156-4.266.363-1.363.688-2.64.969-3.828.289-1.195.535-2.234.734-3.11-.262-.726-.617-1.21-1.062-1.452-.45-.25-1.055-.375-1.813-.375-.7 0-1.422.11-2.172.328a7.53 7.53 0 0 0-2.031.906 5.322 5.322 0 0 0-1.5 1.469 3.29 3.29 0 0 0-.594 1.922c0 .418.051.75.157 1 .113.242.242.422.39.547.145.125.29.203.438.234a1.7 1.7 0 0 0 .328.047c.312 0 .57-.05.781-.156.219-.114.406-.227.563-.344.164-.125.328-.242.484-.36a.881.881 0 0 1 .531-.171c.145 0 .3.039.469.109.176.074.336.188.484.344.157.156.285.367.39.625.102.25.157.554.157.906 0 .523-.105.977-.312 1.36a2.9 2.9 0 0 1-.782.937c-.312.25-.671.437-1.078.562a4.125 4.125 0 0 1-1.218.188c-.625 0-1.188-.113-1.688-.344-.5-.226-.93-.535-1.281-.922a4.056 4.056 0 0 1-.797-1.36 4.981 4.981 0 0 1-.266-1.64c0-.851.14-1.64.422-2.36a7.005 7.005 0 0 1 1.188-1.968 8.368 8.368 0 0 1 1.797-1.562c.687-.446 1.43-.82 2.234-1.125.8-.313 1.633-.547 2.5-.703a14.981 14.981 0 0 1 2.64-.235c1.239 0 2.29.106 3.157.313.863.199 1.586.496 2.172.89a4.69 4.69 0 0 1 1.406 1.5c.363.606.66 1.305.89 2.094l4.188 14.39h4.234v1.72h-3.765l1.515 5.109c.051.187.102.37.157.547.05.168.113.312.187.437.07.117.16.215.266.297.113.074.254.11.422.11.363 0 .703-.055 1.015-.172.313-.125.586-.254.828-.391l.329.719c-.243.168-.54.359-.891.578-.356.219-.766.43-1.234.625-.461.187-.97.344-1.532.469a7.63 7.63 0 0 1-1.781.203c-.887 0-1.602-.11-2.14-.328-.532-.22-.954-.489-1.266-.813a3.124 3.124 0 0 1-.656-1.047 9.499 9.499 0 0 1-.313-.953Zm-3.782-13.171a416.99 416.99 0 0 1-1.547 6.125c-.5 1.906-1 3.683-1.5 5.328h6.36ZM64.625 166.712c.695 0 1.422-.051 2.172-.156a7.986 7.986 0 0 0 2.062-.579c.625-.28 1.14-.644 1.547-1.093.414-.446.625-1.008.625-1.688 0-.394-.078-.691-.234-.89a1.223 1.223 0 0 0-.485-.407 1.312 1.312 0 0 0-.703-.093 2.179 2.179 0 0 0-.968.218 3.388 3.388 0 0 1-.391.157c-.125.042-.25.062-.375.062-.149 0-.293-.031-.438-.094a1.524 1.524 0 0 1-.406-.281c-.125-.133-.23-.3-.312-.5a2.123 2.123 0 0 1-.11-.719c0-.52.094-.96.282-1.328.195-.363.445-.66.75-.89a3.39 3.39 0 0 1 2.046-.688c.657 0 1.235.117 1.735.344.5.219.914.511 1.25.875.344.367.597.789.765 1.265.176.47.266.954.266 1.454 0 1.292-.277 2.367-.828 3.218-.543.844-1.32 1.524-2.328 2.032-1 .5-2.219.855-3.656 1.062-1.43.207-3.024.313-4.782.313-2.105 0-3.812-.079-5.125-.235-1.312-.164-2.336-.379-3.062-.64-.719-.27-1.211-.57-1.469-.907-.25-.343-.375-.691-.375-1.047 0-.289.04-.597.125-.921.094-.333.238-.696.438-1.094.207-.406.468-.867.78-1.39.313-.532.688-1.145 1.126-1.845l9.75-15.562c.144-.258.3-.52.469-.781.175-.27.332-.532.468-.782.133-.257.242-.5.328-.718a1.66 1.66 0 0 0 .125-.563c0-.344-.164-.598-.484-.765-.324-.176-.71-.301-1.156-.375a8.467 8.467 0 0 0-1.344-.11c-.45-.008-.809-.015-1.078-.015-.711 0-1.45.07-2.219.203a8.496 8.496 0 0 0-2.11.625 4.791 4.791 0 0 0-1.593 1.156c-.418.469-.625 1.055-.625 1.75 0 .387.07.68.219.875.156.2.32.328.5.39.207.094.445.126.719.094.187 0 .351-.02.5-.062.144-.051.28-.102.406-.156.133-.063.265-.114.39-.157.125-.039.25-.062.375-.062.094 0 .211.031.36.094.144.062.281.164.406.296.125.125.234.293.328.5.094.2.14.434.14.704 0 .5-.093.933-.28 1.296-.188.356-.43.649-.72.875a3.09 3.09 0 0 1-.968.516 3.573 3.573 0 0 1-1.016.156c-.648 0-1.218-.113-1.718-.343a3.889 3.889 0 0 1-1.235-.922 4.162 4.162 0 0 1-.75-1.25 3.917 3.917 0 0 1-.25-1.36c0-.914.164-1.718.5-2.406.344-.695.801-1.29 1.375-1.781.582-.5 1.254-.91 2.016-1.235a14.016 14.016 0 0 1 2.406-.796 18.225 18.225 0 0 1 2.563-.407 26.96 26.96 0 0 1 2.515-.125c1.54 0 2.867.07 3.985.203 1.113.125 2.023.309 2.734.547.719.23 1.242.508 1.578.828.344.325.516.688.516 1.094 0 .274-.04.559-.11.86-.062.304-.18.648-.343 1.03-.157.387-.375.829-.657 1.329-.28.5-.632 1.09-1.046 1.766l-10.047 16.25c-.262.417-.493.824-.688 1.218-.187.399-.281.762-.281 1.094 0 .293.094.531.281.719.188.187.485.34.89.453.415.105.946.183 1.595.234.644.043 1.43.063 2.359.063ZM82.248 133.907c0-.238-.09-.414-.266-.531a.99.99 0 0 0-.578-.188c-.418 0-.824.063-1.219.188-.398.125-.75.297-1.062.516-.313.21-.57.464-.766.765a1.709 1.709 0 0 0-.281.938c0 .242.031.433.094.578.07.148.144.258.218.328a.655.655 0 0 0 .25.125.878.878 0 0 0 .188.031.952.952 0 0 0 .453-.094c.125-.062.234-.128.328-.203.102-.07.195-.14.281-.203a.473.473 0 0 1 .297-.094.806.806 0 0 1 .563.266c.094.086.164.2.219.344.062.148.093.324.093.531 0 .305-.058.563-.172.781a1.7 1.7 0 0 1-.453.532 1.74 1.74 0 0 1-.625.328c-.23.074-.465.11-.703.11-.355 0-.68-.063-.969-.188a2.353 2.353 0 0 1-.734-.5 2.188 2.188 0 0 1-.453-.766 2.714 2.714 0 0 1-.156-.938c0-.925.234-1.691.703-2.296.469-.602 1.11-1.079 1.922-1.422.812-.352 1.754-.594 2.828-.72a28.37 28.37 0 0 1 3.453-.202c1.383 0 2.64.14 3.766.422 1.125.28 2.082.742 2.875 1.375.8.625 1.414 1.445 1.843 2.453.438 1.012.657 2.246.657 3.703 0 1.45-.23 2.742-.688 3.875-.46 1.125-1.086 2.074-1.875 2.844a7.964 7.964 0 0 1-2.797 1.734 9.944 9.944 0 0 1-3.453.594c-.812 0-1.469-.043-1.969-.125-.492-.074-.87-.203-1.14-.39a1.353 1.353 0 0 1-.547-.75c-.086-.321-.125-.727-.125-1.22Zm3.703 12.64c0 .43.094.735.281.923.188.18.469.265.844.265.562 0 1.078-.125 1.547-.375.476-.25.89-.672 1.234-1.265.344-.602.61-1.407.797-2.407.195-1 .297-2.257.297-3.78 0-1.009-.063-1.884-.188-2.626-.125-.75-.289-1.379-.484-1.89-.2-.52-.43-.942-.687-1.266a3.537 3.537 0 0 0-.797-.766 2.27 2.27 0 0 0-.782-.375 3.021 3.021 0 0 0-.687-.093c-.492 0-.844.109-1.063.328-.21.218-.312.605-.312 1.156ZM100.059 143.532c0 .242.031.5.094.781.07.282.175.563.312.844.133.281.301.555.5.813.195.261.422.492.672.687.258.2.547.36.86.485.32.117.663.171 1.03.171.27 0 .516-.023.735-.078.227-.062.438-.144.625-.25.195-.101.383-.222.563-.36.175-.144.351-.296.53-.452l.282.265a6.57 6.57 0 0 1-.656.782 5.472 5.472 0 0 1-.985.765c-.375.243-.82.446-1.328.61-.5.156-1.078.234-1.734.234a5.413 5.413 0 0 1-1.89-.344 4.77 4.77 0 0 1-1.641-1.062 5.163 5.163 0 0 1-1.157-1.75c-.28-.707-.421-1.535-.421-2.485 0-.675.082-1.296.25-1.859.175-.57.41-1.082.703-1.531.289-.457.632-.86 1.03-1.203a6.689 6.689 0 0 1 1.235-.86 6.39 6.39 0 0 1 1.328-.515 5.315 5.315 0 0 1 1.313-.172c.55 0 1.031.062 1.437.187.414.118.758.278 1.032.485.27.199.472.433.609.703.133.262.203.531.203.812 0 .356-.105.672-.312.953-.2.282-.465.528-.797.735Zm2.25-2.281c.094-.05.172-.102.234-.156a.634.634 0 0 0 .14-.203c.04-.082.071-.18.095-.297a2.62 2.62 0 0 0 .03-.438c0-.187-.023-.39-.062-.61a2.388 2.388 0 0 0-.218-.64 1.622 1.622 0 0 0-.36-.515.77.77 0 0 0-.531-.204 1.06 1.06 0 0 0-.703.25 1.852 1.852 0 0 0-.469.625c-.117.25-.21.54-.281.86a9.258 9.258 0 0 0-.172.984 13.48 13.48 0 0 0-.062.938 19.92 19.92 0 0 0-.016.765ZM111.377 137.938c-.18 0-.344.028-.5.079a1.143 1.143 0 0 0-.407.218.99.99 0 0 0-.28.375c-.063.157-.095.34-.095.547 0 .293.102.586.313.875.219.281.484.578.797.89.32.306.664.622 1.031.954.375.336.719.687 1.031 1.062.32.368.586.758.797 1.172.219.418.328.868.328 1.344 0 .543-.094 1.024-.281 1.438a2.944 2.944 0 0 1-.797 1.062 3.473 3.473 0 0 1-1.219.672 5.568 5.568 0 0 1-1.609.219c-.512 0-.98-.07-1.406-.203a4.953 4.953 0 0 1-1.11-.532 4.809 4.809 0 0 1-.828-.687 4.84 4.84 0 0 1-.547-.656l.391-.282c.102.118.227.243.375.375.145.125.312.246.5.36.187.117.383.21.594.28.207.063.414.095.625.095.539 0 .984-.125 1.328-.375.344-.258.515-.645.515-1.157 0-.28-.093-.57-.28-.875a7.506 7.506 0 0 0-.704-.937c-.281-.32-.59-.656-.922-1a15.744 15.744 0 0 1-.922-1.063 6.398 6.398 0 0 1-.703-1.125 2.81 2.81 0 0 1-.281-1.218c0-.47.094-.875.281-1.22.196-.35.453-.644.766-.874.32-.238.687-.414 1.094-.531a4.62 4.62 0 0 1 1.25-.172c.507 0 .968.047 1.375.14.406.086.754.22 1.046.407.301.18.532.406.688.687.164.274.25.59.25.953 0 .293-.094.543-.281.75-.188.211-.45.313-.782.313-.324 0-.57-.067-.734-.203a.721.721 0 0 1-.25-.578c0-.157.035-.274.11-.36.082-.094.171-.164.265-.219.094-.062.176-.113.25-.156.082-.039.125-.094.125-.156 0-.207-.117-.375-.344-.5-.218-.125-.5-.188-.843-.188ZM119.362 143.532c0 .242.031.5.094.781.07.282.176.563.312.844.133.281.301.555.5.813.196.261.422.492.672.687.258.2.547.36.86.485.32.117.664.171 1.03.171.27 0 .517-.023.735-.078.227-.062.438-.144.625-.25.196-.101.383-.222.563-.36.176-.144.351-.296.531-.452l.281.265a6.57 6.57 0 0 1-.656.782 5.472 5.472 0 0 1-.984.765c-.375.243-.82.446-1.328.61-.5.156-1.079.234-1.735.234a5.413 5.413 0 0 1-1.89-.344 4.77 4.77 0 0 1-1.641-1.062 5.163 5.163 0 0 1-1.156-1.75c-.282-.707-.422-1.535-.422-2.485 0-.675.082-1.296.25-1.859.176-.57.41-1.082.703-1.531.289-.457.633-.86 1.031-1.203a6.689 6.689 0 0 1 1.235-.86 6.39 6.39 0 0 1 1.328-.515 5.315 5.315 0 0 1 1.312-.172c.551 0 1.031.062 1.438.187.414.118.758.278 1.03.485.27.199.474.433.61.703.133.262.203.531.203.812 0 .356-.105.672-.312.953-.2.282-.465.528-.797.735Zm2.25-2.281c.094-.05.172-.102.235-.156a.634.634 0 0 0 .14-.203c.04-.082.07-.18.094-.297a2.62 2.62 0 0 0 .031-.438c0-.187-.023-.39-.062-.61a2.388 2.388 0 0 0-.22-.64 1.622 1.622 0 0 0-.358-.515.77.77 0 0 0-.532-.204 1.06 1.06 0 0 0-.703.25 1.852 1.852 0 0 0-.469.625c-.117.25-.21.54-.28.86a9.258 9.258 0 0 0-.173.984 13.48 13.48 0 0 0-.062.938 19.92 19.92 0 0 0-.016.765ZM130.649 139.407c.28-.426.582-.816.906-1.172.133-.144.281-.289.437-.437.157-.145.317-.27.485-.375a2.5 2.5 0 0 1 .531-.266c.176-.07.352-.11.531-.11.383 0 .68.118.89.345.22.23.329.546.329.953 0 .25-.023.496-.062.734a5.946 5.946 0 0 1-.235.86h-.312a1.055 1.055 0 0 0-.313-.579c-.168-.156-.406-.234-.719-.234-.23 0-.46.047-.687.14a4.999 4.999 0 0 0-.656.313 5.3 5.3 0 0 0-.61.422c-.187.148-.36.289-.515.422v7.265c0 .094-.016.211-.047.344a.723.723 0 0 1-.219.39c-.117.118-.29.216-.516.298-.218.082-.527.125-.921.125-.399 0-.711-.047-.938-.14a1.406 1.406 0 0 1-.531-.313.927.927 0 0 1-.219-.407 1.491 1.491 0 0 1-.047-.328v-8.64c0-.22-.055-.407-.156-.563-.094-.156-.262-.234-.5-.234a.847.847 0 0 0-.328.062 2.214 2.214 0 0 0-.297.188l-.234-.282c.175-.144.367-.285.578-.421.218-.133.445-.254.687-.36.25-.101.516-.187.797-.25.29-.07.594-.11.906-.11.313 0 .582.044.813.126a1.61 1.61 0 0 1 .906.812 2.363 2.363 0 0 1 .25 1.016c.008.156.016.293.016.406ZM139.814 138.017v8.265c0 .399.07.672.219.828.156.157.363.235.625.235a.864.864 0 0 0 .531-.172 2.207 2.207 0 0 0 .75-.938l.344.157a10.49 10.49 0 0 1-.39.796 3.162 3.162 0 0 1-.626.782c-.25.242-.57.445-.953.61-.375.163-.855.25-1.437.25-.336 0-.653-.056-.954-.157a2.167 2.167 0 0 1-.812-.453 2.374 2.374 0 0 1-.563-.782c-.136-.312-.203-.687-.203-1.125v-8.296h-1.265v-.813c.207 0 .5-.05.875-.156a4.526 4.526 0 0 0 1.14-.547 4.747 4.747 0 0 0 1.094-1.016c.344-.425.582-.953.719-1.578h.906v3.297h1.828c.594 0 .89-.098.89-.297 0-.082-.038-.133-.109-.156a3.457 3.457 0 0 0-.25-.094.936.936 0 0 1-.265-.172c-.074-.082-.11-.207-.11-.375 0-.207.067-.367.204-.484a.722.722 0 0 1 .515-.188.78.78 0 0 1 .344.079.678.678 0 0 1 .25.218c.07.094.125.203.156.328.031.118.047.235.047.36 0 .48-.14.867-.422 1.156-.281.293-.73.438-1.344.438ZM86.822 156.372c0-.238-.09-.414-.266-.53a.99.99 0 0 0-.578-.188c-.418 0-.824.062-1.218.187-.399.125-.75.297-1.063.516-.312.21-.57.465-.766.765a1.709 1.709 0 0 0-.28.938c0 .242.03.433.093.578.07.148.144.258.219.328a.655.655 0 0 0 .25.125.878.878 0 0 0 .187.031.952.952 0 0 0 .453-.093c.125-.063.235-.13.328-.204.102-.07.196-.14.282-.203a.473.473 0 0 1 .297-.093c.093 0 .187.023.28.062.102.043.196.11.282.203.094.086.164.2.219.344.062.148.094.324.094.531 0 .305-.059.563-.172.781a1.7 1.7 0 0 1-.453.532 1.74 1.74 0 0 1-.625.328c-.23.074-.465.11-.704.11-.355 0-.68-.063-.968-.188a2.353 2.353 0 0 1-.735-.5 2.188 2.188 0 0 1-.453-.766 2.714 2.714 0 0 1-.156-.937c0-.926.234-1.692.703-2.297.469-.602 1.11-1.078 1.922-1.422.812-.352 1.754-.594 2.828-.719a28.37 28.37 0 0 1 3.453-.203c1.383 0 2.64.14 3.766.422 1.125.281 2.082.742 2.875 1.375.8.625 1.414 1.445 1.844 2.453.437 1.012.656 2.246.656 3.703 0 1.45-.23 2.742-.688 3.875-.46 1.125-1.086 2.074-1.875 2.844a7.964 7.964 0 0 1-2.797 1.734 9.944 9.944 0 0 1-3.453.594c-.812 0-1.468-.043-1.968-.125-.493-.074-.872-.203-1.141-.39a1.353 1.353 0 0 1-.547-.75c-.086-.32-.125-.727-.125-1.22Zm3.703 12.641c0 .43.094.734.281.922.188.18.47.265.844.265.563 0 1.078-.125 1.547-.375.477-.25.89-.671 1.234-1.265.344-.602.61-1.406.797-2.406.196-1 .297-2.258.297-3.782 0-1.007-.062-1.882-.187-2.625-.125-.75-.29-1.379-.485-1.89-.199-.52-.43-.942-.687-1.266a3.537 3.537 0 0 0-.797-.766 2.27 2.27 0 0 0-.781-.375 3.021 3.021 0 0 0-.688-.093c-.492 0-.844.11-1.062.328-.211.219-.313.605-.313 1.156ZM104.633 165.997c0 .243.031.5.094.782.07.28.176.562.312.843.133.282.301.555.5.813.196.262.422.492.672.687.258.2.547.36.86.485.32.117.664.172 1.03.172.27 0 .517-.024.735-.079.227-.062.438-.144.625-.25.196-.101.383-.222.563-.359.176-.144.351-.297.531-.453l.281.266a6.57 6.57 0 0 1-.656.78 5.472 5.472 0 0 1-.984.766c-.375.243-.82.446-1.328.61-.5.156-1.079.234-1.735.234a5.413 5.413 0 0 1-1.89-.344 4.77 4.77 0 0 1-1.641-1.062 5.163 5.163 0 0 1-1.156-1.75c-.282-.707-.422-1.535-.422-2.484 0-.676.082-1.297.25-1.86.176-.57.41-1.082.703-1.531.289-.457.633-.86 1.031-1.203a6.689 6.689 0 0 1 1.235-.86 6.39 6.39 0 0 1 1.328-.515 5.315 5.315 0 0 1 1.312-.172c.551 0 1.031.062 1.438.187.414.118.758.278 1.03.485.27.2.474.433.61.703.133.262.203.531.203.812 0 .356-.105.672-.312.954-.2.28-.465.527-.797.734Zm2.25-2.28c.094-.052.172-.102.235-.157a.634.634 0 0 0 .14-.203c.04-.082.07-.18.094-.297a2.62 2.62 0 0 0 .031-.438c0-.187-.023-.39-.062-.609a2.388 2.388 0 0 0-.22-.64 1.622 1.622 0 0 0-.358-.516.77.77 0 0 0-.532-.203 1.06 1.06 0 0 0-.703.25 1.852 1.852 0 0 0-.469.625c-.117.25-.21.539-.28.859a9.258 9.258 0 0 0-.173.984 13.48 13.48 0 0 0-.062.938 19.92 19.92 0 0 0-.016.765ZM115.95 160.404c-.179 0-.343.027-.5.078a1.143 1.143 0 0 0-.405.218.99.99 0 0 0-.282.375c-.062.157-.093.34-.093.547 0 .293.101.586.312.875.219.282.485.578.797.891.32.305.664.621 1.031.953.375.336.719.688 1.032 1.063.32.367.585.757.796 1.171.22.418.329.868.329 1.344 0 .543-.094 1.024-.282 1.438a2.944 2.944 0 0 1-.797 1.062 3.473 3.473 0 0 1-1.218.672 5.568 5.568 0 0 1-1.61.219c-.511 0-.98-.07-1.406-.203a4.953 4.953 0 0 1-1.11-.532 4.809 4.809 0 0 1-.827-.687 4.84 4.84 0 0 1-.547-.656l.39-.282c.102.118.227.243.375.375.145.125.313.247.5.36.188.117.383.21.594.281.207.063.414.094.625.094.54 0 .984-.125 1.328-.375.344-.258.516-.645.516-1.156 0-.282-.094-.57-.281-.875a7.506 7.506 0 0 0-.704-.938c-.28-.32-.59-.656-.921-1a15.744 15.744 0 0 1-.922-1.062 6.398 6.398 0 0 1-.703-1.125 2.81 2.81 0 0 1-.282-1.22c0-.468.094-.874.282-1.218.195-.351.453-.644.765-.875.32-.238.688-.414 1.094-.531a4.62 4.62 0 0 1 1.25-.172c.508 0 .969.047 1.375.14.406.087.754.22 1.047.407.3.18.531.406.687.687.164.274.25.59.25.953 0 .293-.093.543-.281.75-.187.211-.45.313-.781.313-.324 0-.57-.066-.735-.203a.721.721 0 0 1-.25-.578c0-.157.036-.274.11-.36.082-.093.172-.164.265-.218.094-.063.176-.114.25-.157.082-.039.125-.093.125-.156 0-.207-.117-.375-.343-.5-.22-.125-.5-.187-.844-.187ZM124.608 170.122c0 .106-.015.227-.047.36a.814.814 0 0 1-.234.39c-.125.125-.305.23-.531.313-.23.082-.543.125-.938.125-.398 0-.71-.047-.937-.14a1.264 1.264 0 0 1-.5-.313.927.927 0 0 1-.219-.407 1.897 1.897 0 0 1-.031-.328v-8.64c0-.219-.055-.407-.156-.563-.094-.156-.262-.234-.5-.234a.847.847 0 0 0-.329.062 2.214 2.214 0 0 0-.296.188l-.235-.281c.176-.145.367-.286.578-.422.22-.133.446-.254.688-.36.25-.101.515-.187.797-.25.289-.07.593-.109.906-.109.477 0 .852.07 1.125.203.27.125.469.29.594.484.125.188.195.391.218.61.032.21.047.398.047.562Zm-3.78-13.156c0-.219.046-.422.14-.61.093-.187.222-.347.39-.484a1.94 1.94 0 0 1 .578-.343c.22-.082.461-.125.735-.125.25 0 .484.043.703.125.219.086.41.199.578.343.164.137.297.297.39.485.094.187.141.39.141.61 0 .21-.047.405-.14.593a1.654 1.654 0 0 1-.39.5c-.169.137-.36.246-.579.328-.219.074-.453.11-.703.11-.274 0-.516-.036-.735-.11a1.989 1.989 0 0 1-.578-.328 1.596 1.596 0 0 1-.39-.5 1.302 1.302 0 0 1-.14-.594ZM126.955 164.091c0-.758.129-1.426.39-2 .27-.57.63-1.047 1.079-1.422.445-.383.96-.672 1.546-.86a5.903 5.903 0 0 1 1.86-.296c.656 0 1.27.09 1.844.266.582.168 1.097.43 1.546.78.145-.206.258-.429.344-.671.094-.238.14-.477.14-.719 0-.312-.085-.562-.25-.75a.824.824 0 0 0-.64-.281v-.328c.164-.05.313-.098.438-.14.125-.04.238-.071.343-.095a4.01 4.01 0 0 1 .313-.046 4.44 4.44 0 0 1 .344-.016c.351 0 .625.11.812.328.188.211.281.508.281.89 0 .22-.054.446-.156.673-.105.218-.234.43-.39.625-.157.199-.336.39-.532.578a8.5 8.5 0 0 1-.53.468c.312.356.55.774.718 1.25.176.481.265 1.028.265 1.641 0 .762-.136 1.438-.406 2.031a4.41 4.41 0 0 1-1.062 1.5c-.45.399-.969.7-1.563.907-.586.199-1.203.296-1.86.296-.374 0-.75-.03-1.124-.093a4.325 4.325 0 0 1-1.016-.297 1.25 1.25 0 0 0-.312.344.834.834 0 0 0-.125.453c0 .273.117.476.36.61.237.136.554.233.952.296.395.055.844.09 1.344.11.5.011 1.008.038 1.531.077a12.31 12.31 0 0 1 1.547.188c.5.094.945.246 1.344.453.394.211.71.492.953.86.238.374.36.851.36 1.437 0 .414-.094.797-.282 1.14a2.88 2.88 0 0 1-.719.891 4.357 4.357 0 0 1-1.062.656 7.36 7.36 0 0 1-1.266.454 10.19 10.19 0 0 1-1.344.25c-.46.062-.898.093-1.312.093-.762 0-1.45-.043-2.063-.125-.605-.086-1.12-.21-1.546-.375-.43-.156-.758-.367-.985-.625a1.37 1.37 0 0 1-.344-.937c0-.262.055-.508.172-.735.125-.218.285-.421.485-.609.195-.18.414-.34.656-.484.25-.149.5-.282.75-.407a2.294 2.294 0 0 1-.938-.718c-.25-.313-.375-.727-.375-1.25 0-.282.047-.535.141-.766a3.18 3.18 0 0 1 .375-.656 3.69 3.69 0 0 1 .516-.531c.187-.164.363-.301.531-.407a4.89 4.89 0 0 1-.844-.656 4.104 4.104 0 0 1-.672-.875 4.43 4.43 0 0 1-.422-1.078 5.616 5.616 0 0 1-.14-1.297Zm6.39-.094c0-.425-.027-.843-.078-1.25a4.91 4.91 0 0 0-.234-1.109 1.985 1.985 0 0 0-.453-.781c-.188-.196-.438-.297-.75-.297a.987.987 0 0 0-.75.312c-.188.211-.34.48-.453.813a4.785 4.785 0 0 0-.235 1.14c-.043.418-.062.84-.062 1.266 0 .438.02.871.062 1.297.04.43.118.812.235 1.156.113.336.265.606.453.813.195.199.445.297.75.297.312 0 .562-.102.75-.313.195-.219.347-.5.453-.844.113-.351.191-.742.234-1.172.051-.437.078-.878.078-1.328Zm1.704 10.032a.736.736 0 0 0-.282-.594 2.26 2.26 0 0 0-.734-.36 6.356 6.356 0 0 0-1.031-.218 19.187 19.187 0 0 0-1.172-.125c-.399-.024-.781-.043-1.156-.063a13.2 13.2 0 0 1-.97-.094 6.775 6.775 0 0 0-.452.36 3.032 3.032 0 0 0-.39.422 2.543 2.543 0 0 0-.267.453 1.4 1.4 0 0 0-.093.5c0 .281.082.515.25.703.164.195.39.348.672.453.28.113.601.192.968.234.375.051.766.079 1.172.079.54 0 1.031-.047 1.469-.141.437-.094.8-.227 1.094-.39.3-.157.531-.34.687-.548.156-.21.235-.433.235-.671ZM145.707 165.56c0-.938-.043-1.688-.125-2.25-.086-.57-.2-1.004-.344-1.297-.148-.29-.309-.484-.484-.578a1.046 1.046 0 0 0-.516-.14 1 1 0 0 0-.578.171c-.168.117-.313.25-.438.406-.125.149-.23.293-.312.438a3.433 3.433 0 0 1-.219.344v7.468c0 .106-.015.227-.047.36a.723.723 0 0 1-.218.39c-.118.125-.29.23-.516.313-.219.082-.527.125-.922.125-.398 0-.71-.047-.937-.14a1.406 1.406 0 0 1-.532-.313.927.927 0 0 1-.218-.407 1.491 1.491 0 0 1-.047-.328v-8.64c0-.219-.055-.407-.157-.563-.093-.156-.261-.234-.5-.234a.847.847 0 0 0-.328.062 2.214 2.214 0 0 0-.297.188l-.234-.281c.176-.145.367-.286.578-.422.219-.133.445-.254.688-.36.25-.101.515-.187.797-.25.289-.07.593-.109.906-.109.476 0 .851.086 1.125.25.27.156.469.352.594.578.125.219.195.45.218.688.032.242.047.445.047.609.281-.395.594-.75.938-1.063a5.02 5.02 0 0 1 1.047-.734 2.86 2.86 0 0 1 .625-.234c.218-.063.441-.094.671-.094.508 0 .957.102 1.344.297.395.187.727.512 1 .969.27.46.473 1.062.61 1.812.144.75.218 1.684.218 2.797 0 1.086-.101 2.027-.297 2.828-.187.793-.437 1.469-.75 2.031a5.321 5.321 0 0 1-1.062 1.36 5.201 5.201 0 0 1-1.203.843 4.933 4.933 0 0 1-1.172.407 5.566 5.566 0 0 1-.953.14l-.11-.453c.22-.054.422-.136.61-.25.195-.117.375-.281.531-.5.156-.21.29-.48.406-.812.125-.332.227-.75.313-1.25.082-.5.144-1.094.187-1.782.04-.687.063-1.484.063-2.39ZM154.358 165.997c0 .243.031.5.094.782.07.28.176.562.312.843.133.282.301.555.5.813.196.262.422.492.672.687.258.2.547.36.86.485.32.117.664.172 1.03.172.27 0 .517-.024.735-.079.227-.062.438-.144.625-.25.196-.101.383-.222.563-.359.176-.144.351-.297.531-.453l.281.266a6.57 6.57 0 0 1-.656.78 5.472 5.472 0 0 1-.984.766c-.375.243-.82.446-1.328.61-.5.156-1.079.234-1.735.234a5.413 5.413 0 0 1-1.89-.344 4.77 4.77 0 0 1-1.641-1.062 5.163 5.163 0 0 1-1.156-1.75c-.282-.707-.422-1.535-.422-2.484 0-.676.082-1.297.25-1.86.176-.57.41-1.082.703-1.531.289-.457.633-.86 1.031-1.203a6.689 6.689 0 0 1 1.235-.86 6.39 6.39 0 0 1 1.328-.515 5.315 5.315 0 0 1 1.312-.172c.55 0 1.031.062 1.438.187.414.118.757.278 1.03.485.27.2.474.433.61.703.133.262.203.531.203.812 0 .356-.105.672-.312.954-.2.28-.465.527-.797.734Zm2.25-2.28c.094-.052.172-.102.235-.157a.634.634 0 0 0 .14-.203c.04-.082.07-.18.094-.297a2.62 2.62 0 0 0 .031-.438c0-.187-.023-.39-.062-.609a2.388 2.388 0 0 0-.22-.64 1.622 1.622 0 0 0-.358-.516.77.77 0 0 0-.532-.203 1.06 1.06 0 0 0-.703.25 1.852 1.852 0 0 0-.469.625c-.117.25-.21.539-.28.859a9.258 9.258 0 0 0-.173.984 13.48 13.48 0 0 0-.062.938 19.92 19.92 0 0 0-.016.765ZM165.645 161.872c.28-.425.582-.816.906-1.172.133-.144.281-.289.437-.437.157-.145.317-.27.485-.375a2.5 2.5 0 0 1 .531-.266c.176-.07.352-.109.531-.109.383 0 .68.117.89.344.22.23.329.547.329.953 0 .25-.023.496-.063.734a5.946 5.946 0 0 1-.234.86h-.312a1.055 1.055 0 0 0-.313-.579c-.168-.156-.406-.234-.719-.234-.23 0-.46.047-.687.14a4.999 4.999 0 0 0-.656.313 5.3 5.3 0 0 0-.61.422c-.187.149-.36.29-.515.422v7.266c0 .093-.016.21-.047.343a.723.723 0 0 1-.219.391c-.117.117-.29.215-.516.297-.218.082-.527.125-.922.125-.398 0-.71-.047-.937-.14a1.406 1.406 0 0 1-.531-.313.927.927 0 0 1-.219-.407 1.491 1.491 0 0 1-.047-.328v-8.64c0-.219-.055-.407-.156-.563-.094-.156-.262-.234-.5-.234a.847.847 0 0 0-.328.062 2.214 2.214 0 0 0-.297.188l-.235-.281c.176-.145.368-.286.579-.422.218-.133.445-.254.687-.36.25-.101.516-.187.797-.25.289-.07.594-.109.906-.109.313 0 .582.043.813.125a1.61 1.61 0 0 1 .906.812 2.363 2.363 0 0 1 .25 1.016c.008.156.016.293.016.406Zm0 0" fill="#fff"/></svg>