<svg xmlns="http://www.w3.org/2000/svg" xmlns:xlink="http://www.w3.org/1999/xlink" width="48" zoomAndPan="magnify" viewBox="0 0 36 36.000001" height="48" preserveAspectRatio="xMidYMid meet" version="1.0"><defs><g/><clipPath id="ebcbf2a976"><path d="M 1.886719 0 L 34.125 0 L 34.125 35.027344 L 1.886719 35.027344 Z M 1.886719 0 " clip-rule="nonzero"/></clipPath><clipPath id="a08bd74470"><path d="M 11 4 L 31 4 L 31 10 L 11 10 Z M 11 4 " clip-rule="nonzero"/></clipPath><clipPath id="7acc54278f"><path d="M 33.046875 10.894531 L 33.046875 23.191406 C 32.507812 23.339844 31.703125 23.335938 30.96875 23.089844 C 29.914062 22.738281 29.886719 22.625 29.503906 22.183594 C 29.125 21.746094 27.777344 22.800781 27.308594 22.097656 C 26.839844 21.394531 26.078125 22.683594 25.199219 21.804688 C 24.320312 20.925781 23.699219 21.792969 23.386719 22.066406 C 22.835938 22.550781 23.707031 23.792969 22.976562 23.296875 C 22.242188 22.800781 21.308594 23.355469 21.074219 23.617188 C 20.839844 23.882812 19.667969 23.121094 19.316406 22.828125 C 18.964844 22.539062 17.355469 22.945312 16.390625 23.765625 C 15.421875 24.585938 15.394531 23.792969 15.042969 23.472656 C 14.691406 23.152344 13.957031 23.558594 13.664062 23.914062 C 13.371094 24.269531 12.320312 23.386719 11.9375 22.933594 C 11.558594 22.484375 10.445312 23.679688 9.449219 23.089844 C 8.453125 22.507812 8.335938 23.707031 7.984375 24.117188 C 7.632812 24.527344 7.046875 24.496094 6.316406 24.351562 C 5.585938 24.207031 5.761719 24.878906 5.351562 24.730469 C 4.941406 24.585938 4.441406 24.292969 3.855469 24.730469 C 3.648438 24.890625 3.316406 24.957031 2.949219 24.984375 L 2.949219 10.894531 L 18 0.882812 Z M 33.046875 10.894531 " clip-rule="nonzero"/></clipPath><clipPath id="16e0579fe0"><path d="M 21 12 L 33.078125 12 L 33.078125 18 L 21 18 Z M 21 12 " clip-rule="nonzero"/></clipPath><clipPath id="9932db84ff"><path d="M 33.046875 10.894531 L 33.046875 23.191406 C 32.507812 23.339844 31.703125 23.335938 30.96875 23.089844 C 29.914062 22.738281 29.886719 22.625 29.503906 22.183594 C 29.125 21.746094 27.777344 22.800781 27.308594 22.097656 C 26.839844 21.394531 26.078125 22.683594 25.199219 21.804688 C 24.320312 20.925781 23.699219 21.792969 23.386719 22.066406 C 22.835938 22.550781 23.707031 23.792969 22.976562 23.296875 C 22.242188 22.800781 21.308594 23.355469 21.074219 23.617188 C 20.839844 23.882812 19.667969 23.121094 19.316406 22.828125 C 18.964844 22.539062 17.355469 22.945312 16.390625 23.765625 C 15.421875 24.585938 15.394531 23.792969 15.042969 23.472656 C 14.691406 23.152344 13.957031 23.558594 13.664062 23.914062 C 13.371094 24.269531 12.320312 23.386719 11.9375 22.933594 C 11.558594 22.484375 10.445312 23.679688 9.449219 23.089844 C 8.453125 22.507812 8.335938 23.707031 7.984375 24.117188 C 7.632812 24.527344 7.046875 24.496094 6.316406 24.351562 C 5.585938 24.207031 5.761719 24.878906 5.351562 24.730469 C 4.941406 24.585938 4.441406 24.292969 3.855469 24.730469 C 3.648438 24.890625 3.316406 24.957031 2.949219 24.984375 L 2.949219 10.894531 L 18 0.882812 Z M 33.046875 10.894531 " clip-rule="nonzero"/></clipPath><clipPath id="1c835c47b7"><path d="M 7 12 L 33.078125 12 L 33.078125 25 L 7 25 Z M 7 12 " clip-rule="nonzero"/></clipPath><clipPath id="e15e056676"><path d="M 33.046875 10.894531 L 33.046875 23.191406 C 32.507812 23.339844 31.703125 23.335938 30.96875 23.089844 C 29.914062 22.738281 29.886719 22.625 29.503906 22.183594 C 29.125 21.746094 27.777344 22.800781 27.308594 22.097656 C 26.839844 21.394531 26.078125 22.683594 25.199219 21.804688 C 24.320312 20.925781 23.699219 21.792969 23.386719 22.066406 C 22.835938 22.550781 23.707031 23.792969 22.976562 23.296875 C 22.242188 22.800781 21.308594 23.355469 21.074219 23.617188 C 20.839844 23.882812 19.667969 23.121094 19.316406 22.828125 C 18.964844 22.539062 17.355469 22.945312 16.390625 23.765625 C 15.421875 24.585938 15.394531 23.792969 15.042969 23.472656 C 14.691406 23.152344 13.957031 23.558594 13.664062 23.914062 C 13.371094 24.269531 12.320312 23.386719 11.9375 22.933594 C 11.558594 22.484375 10.445312 23.679688 9.449219 23.089844 C 8.453125 22.507812 8.335938 23.707031 7.984375 24.117188 C 7.632812 24.527344 7.046875 24.496094 6.316406 24.351562 C 5.585938 24.207031 5.761719 24.878906 5.351562 24.730469 C 4.941406 24.585938 4.441406 24.292969 3.855469 24.730469 C 3.648438 24.890625 3.316406 24.957031 2.949219 24.984375 L 2.949219 10.894531 L 18 0.882812 Z M 33.046875 10.894531 " clip-rule="nonzero"/></clipPath><clipPath id="6ec5f9ae43"><path d="M 2.941406 12 L 17 12 L 17 18 L 2.941406 18 Z M 2.941406 12 " clip-rule="nonzero"/></clipPath><clipPath id="fd0120ec86"><path d="M 33.046875 10.894531 L 33.046875 23.191406 C 32.507812 23.339844 31.703125 23.335938 30.96875 23.089844 C 29.914062 22.738281 29.886719 22.625 29.503906 22.183594 C 29.125 21.746094 27.777344 22.800781 27.308594 22.097656 C 26.839844 21.394531 26.078125 22.683594 25.199219 21.804688 C 24.320312 20.925781 23.699219 21.792969 23.386719 22.066406 C 22.835938 22.550781 23.707031 23.792969 22.976562 23.296875 C 22.242188 22.800781 21.308594 23.355469 21.074219 23.617188 C 20.839844 23.882812 19.667969 23.121094 19.316406 22.828125 C 18.964844 22.539062 17.355469 22.945312 16.390625 23.765625 C 15.421875 24.585938 15.394531 23.792969 15.042969 23.472656 C 14.691406 23.152344 13.957031 23.558594 13.664062 23.914062 C 13.371094 24.269531 12.320312 23.386719 11.9375 22.933594 C 11.558594 22.484375 10.445312 23.679688 9.449219 23.089844 C 8.453125 22.507812 8.335938 23.707031 7.984375 24.117188 C 7.632812 24.527344 7.046875 24.496094 6.316406 24.351562 C 5.585938 24.207031 5.761719 24.878906 5.351562 24.730469 C 4.941406 24.585938 4.441406 24.292969 3.855469 24.730469 C 3.648438 24.890625 3.316406 24.957031 2.949219 24.984375 L 2.949219 10.894531 L 18 0.882812 Z M 33.046875 10.894531 " clip-rule="nonzero"/></clipPath><clipPath id="9afc8787e8"><path d="M 2.941406 14 L 9 14 L 9 25 L 2.941406 25 Z M 2.941406 14 " clip-rule="nonzero"/></clipPath><clipPath id="ef442bfc03"><path d="M 33.046875 10.894531 L 33.046875 23.191406 C 32.507812 23.339844 31.703125 23.335938 30.96875 23.089844 C 29.914062 22.738281 29.886719 22.625 29.503906 22.183594 C 29.125 21.746094 27.777344 22.800781 27.308594 22.097656 C 26.839844 21.394531 26.078125 22.683594 25.199219 21.804688 C 24.320312 20.925781 23.699219 21.792969 23.386719 22.066406 C 22.835938 22.550781 23.707031 23.792969 22.976562 23.296875 C 22.242188 22.800781 21.308594 23.355469 21.074219 23.617188 C 20.839844 23.882812 19.667969 23.121094 19.316406 22.828125 C 18.964844 22.539062 17.355469 22.945312 16.390625 23.765625 C 15.421875 24.585938 15.394531 23.792969 15.042969 23.472656 C 14.691406 23.152344 13.957031 23.558594 13.664062 23.914062 C 13.371094 24.269531 12.320312 23.386719 11.9375 22.933594 C 11.558594 22.484375 10.445312 23.679688 9.449219 23.089844 C 8.453125 22.507812 8.335938 23.707031 7.984375 24.117188 C 7.632812 24.527344 7.046875 24.496094 6.316406 24.351562 C 5.585938 24.207031 5.761719 24.878906 5.351562 24.730469 C 4.941406 24.585938 4.441406 24.292969 3.855469 24.730469 C 3.648438 24.890625 3.316406 24.957031 2.949219 24.984375 L 2.949219 10.894531 L 18 0.882812 Z M 33.046875 10.894531 " clip-rule="nonzero"/></clipPath><clipPath id="c68ff78ec9"><path d="M 2.332031 0.484375 L 33.667969 0.484375 L 33.667969 34.519531 L 2.332031 34.519531 Z M 2.332031 0.484375 " clip-rule="nonzero"/></clipPath><clipPath id="43e99785a2"><path d="M 11 5 L 31 5 L 31 10 L 11 10 Z M 11 5 " clip-rule="nonzero"/></clipPath><clipPath id="2ae8e8a479"><path d="M 32.632812 11.078125 L 32.632812 23.035156 C 32.109375 23.179688 31.328125 23.175781 30.613281 22.9375 C 29.585938 22.597656 29.558594 22.484375 29.1875 22.054688 C 28.820312 21.628906 27.507812 22.65625 27.050781 21.972656 C 26.597656 21.289062 25.855469 22.539062 25.003906 21.6875 C 24.148438 20.832031 23.542969 21.675781 23.238281 21.941406 C 22.703125 22.410156 23.550781 23.621094 22.839844 23.136719 C 22.128906 22.65625 21.21875 23.195312 20.988281 23.449219 C 20.761719 23.707031 19.621094 22.96875 19.28125 22.683594 C 18.9375 22.398438 17.375 22.792969 16.433594 23.59375 C 15.492188 24.390625 15.464844 23.621094 15.125 23.308594 C 14.78125 22.996094 14.070312 23.394531 13.785156 23.738281 C 13.5 24.082031 12.476562 23.222656 12.105469 22.785156 C 11.734375 22.347656 10.652344 23.507812 9.6875 22.9375 C 8.71875 22.367188 8.601562 23.535156 8.261719 23.9375 C 7.917969 24.332031 7.351562 24.304688 6.636719 24.164062 C 5.925781 24.019531 6.097656 24.675781 5.699219 24.535156 C 5.300781 24.390625 4.816406 24.105469 4.246094 24.535156 C 4.042969 24.6875 3.71875 24.753906 3.363281 24.78125 L 3.363281 11.078125 L 18 1.339844 Z M 32.632812 11.078125 " clip-rule="nonzero"/></clipPath><clipPath id="5357095bad"><path d="M 21 12 L 32.660156 12 L 32.660156 18 L 21 18 Z M 21 12 " clip-rule="nonzero"/></clipPath><clipPath id="8ccedab6b1"><path d="M 32.632812 11.078125 L 32.632812 23.035156 C 32.109375 23.179688 31.328125 23.175781 30.613281 22.9375 C 29.585938 22.597656 29.558594 22.484375 29.1875 22.054688 C 28.820312 21.628906 27.507812 22.65625 27.050781 21.972656 C 26.597656 21.289062 25.855469 22.539062 25.003906 21.6875 C 24.148438 20.832031 23.542969 21.675781 23.238281 21.941406 C 22.703125 22.410156 23.550781 23.621094 22.839844 23.136719 C 22.128906 22.65625 21.21875 23.195312 20.988281 23.449219 C 20.761719 23.707031 19.621094 22.96875 19.28125 22.683594 C 18.9375 22.398438 17.375 22.792969 16.433594 23.59375 C 15.492188 24.390625 15.464844 23.621094 15.125 23.308594 C 14.78125 22.996094 14.070312 23.394531 13.785156 23.738281 C 13.5 24.082031 12.476562 23.222656 12.105469 22.785156 C 11.734375 22.347656 10.652344 23.507812 9.6875 22.9375 C 8.71875 22.367188 8.601562 23.535156 8.261719 23.9375 C 7.917969 24.332031 7.351562 24.304688 6.636719 24.164062 C 5.925781 24.019531 6.097656 24.675781 5.699219 24.535156 C 5.300781 24.390625 4.816406 24.105469 4.246094 24.535156 C 4.042969 24.6875 3.71875 24.753906 3.363281 24.78125 L 3.363281 11.078125 L 18 1.339844 Z M 32.632812 11.078125 " clip-rule="nonzero"/></clipPath><clipPath id="36621a2531"><path d="M 8 12 L 32.660156 12 L 32.660156 24.84375 L 8 24.84375 Z M 8 12 " clip-rule="nonzero"/></clipPath><clipPath id="a6d5a3c2d4"><path d="M 32.632812 11.078125 L 32.632812 23.035156 C 32.109375 23.179688 31.328125 23.175781 30.613281 22.9375 C 29.585938 22.597656 29.558594 22.484375 29.1875 22.054688 C 28.820312 21.628906 27.507812 22.65625 27.050781 21.972656 C 26.597656 21.289062 25.855469 22.539062 25.003906 21.6875 C 24.148438 20.832031 23.542969 21.675781 23.238281 21.941406 C 22.703125 22.410156 23.550781 23.621094 22.839844 23.136719 C 22.128906 22.65625 21.21875 23.195312 20.988281 23.449219 C 20.761719 23.707031 19.621094 22.96875 19.28125 22.683594 C 18.9375 22.398438 17.375 22.792969 16.433594 23.59375 C 15.492188 24.390625 15.464844 23.621094 15.125 23.308594 C 14.78125 22.996094 14.070312 23.394531 13.785156 23.738281 C 13.5 24.082031 12.476562 23.222656 12.105469 22.785156 C 11.734375 22.347656 10.652344 23.507812 9.6875 22.9375 C 8.71875 22.367188 8.601562 23.535156 8.261719 23.9375 C 7.917969 24.332031 7.351562 24.304688 6.636719 24.164062 C 5.925781 24.019531 6.097656 24.675781 5.699219 24.535156 C 5.300781 24.390625 4.816406 24.105469 4.246094 24.535156 C 4.042969 24.6875 3.71875 24.753906 3.363281 24.78125 L 3.363281 11.078125 L 18 1.339844 Z M 32.632812 11.078125 " clip-rule="nonzero"/></clipPath><clipPath id="774cb2cc3c"><path d="M 3.355469 12 L 17 12 L 17 18 L 3.355469 18 Z M 3.355469 12 " clip-rule="nonzero"/></clipPath><clipPath id="b226bb9470"><path d="M 32.632812 11.078125 L 32.632812 23.035156 C 32.109375 23.179688 31.328125 23.175781 30.613281 22.9375 C 29.585938 22.597656 29.558594 22.484375 29.1875 22.054688 C 28.820312 21.628906 27.507812 22.65625 27.050781 21.972656 C 26.597656 21.289062 25.855469 22.539062 25.003906 21.6875 C 24.148438 20.832031 23.542969 21.675781 23.238281 21.941406 C 22.703125 22.410156 23.550781 23.621094 22.839844 23.136719 C 22.128906 22.65625 21.21875 23.195312 20.988281 23.449219 C 20.761719 23.707031 19.621094 22.96875 19.28125 22.683594 C 18.9375 22.398438 17.375 22.792969 16.433594 23.59375 C 15.492188 24.390625 15.464844 23.621094 15.125 23.308594 C 14.78125 22.996094 14.070312 23.394531 13.785156 23.738281 C 13.5 24.082031 12.476562 23.222656 12.105469 22.785156 C 11.734375 22.347656 10.652344 23.507812 9.6875 22.9375 C 8.71875 22.367188 8.601562 23.535156 8.261719 23.9375 C 7.917969 24.332031 7.351562 24.304688 6.636719 24.164062 C 5.925781 24.019531 6.097656 24.675781 5.699219 24.535156 C 5.300781 24.390625 4.816406 24.105469 4.246094 24.535156 C 4.042969 24.6875 3.71875 24.753906 3.363281 24.78125 L 3.363281 11.078125 L 18 1.339844 Z M 32.632812 11.078125 " clip-rule="nonzero"/></clipPath><clipPath id="c2aa69b32f"><path d="M 3.355469 14 L 9 14 L 9 24.84375 L 3.355469 24.84375 Z M 3.355469 14 " clip-rule="nonzero"/></clipPath><clipPath id="083d7cd56f"><path d="M 32.632812 11.078125 L 32.632812 23.035156 C 32.109375 23.179688 31.328125 23.175781 30.613281 22.9375 C 29.585938 22.597656 29.558594 22.484375 29.1875 22.054688 C 28.820312 21.628906 27.507812 22.65625 27.050781 21.972656 C 26.597656 21.289062 25.855469 22.539062 25.003906 21.6875 C 24.148438 20.832031 23.542969 21.675781 23.238281 21.941406 C 22.703125 22.410156 23.550781 23.621094 22.839844 23.136719 C 22.128906 22.65625 21.21875 23.195312 20.988281 23.449219 C 20.761719 23.707031 19.621094 22.96875 19.28125 22.683594 C 18.9375 22.398438 17.375 22.792969 16.433594 23.59375 C 15.492188 24.390625 15.464844 23.621094 15.125 23.308594 C 14.78125 22.996094 14.070312 23.394531 13.785156 23.738281 C 13.5 24.082031 12.476562 23.222656 12.105469 22.785156 C 11.734375 22.347656 10.652344 23.507812 9.6875 22.9375 C 8.71875 22.367188 8.601562 23.535156 8.261719 23.9375 C 7.917969 24.332031 7.351562 24.304688 6.636719 24.164062 C 5.925781 24.019531 6.097656 24.675781 5.699219 24.535156 C 5.300781 24.390625 4.816406 24.105469 4.246094 24.535156 C 4.042969 24.6875 3.71875 24.753906 3.363281 24.78125 L 3.363281 11.078125 L 18 1.339844 Z M 32.632812 11.078125 " clip-rule="nonzero"/></clipPath></defs><g clip-path="url(#ebcbf2a976)"><path fill="#ffffff" d="M 1.894531 33.269531 L 1.894531 11.742188 C 1.894531 10.863281 2.335938 10.039062 3.070312 9.550781 L 16.539062 0.585938 C 17.421875 0 18.574219 0 19.457031 0.585938 L 32.925781 9.550781 C 33.660156 10.039062 34.101562 10.863281 34.101562 11.742188 L 34.101562 33.269531 C 34.101562 34.238281 33.316406 35.023438 32.34375 35.023438 L 3.652344 35.023438 C 2.683594 35.023438 1.894531 34.238281 1.894531 33.269531 Z M 1.894531 33.269531 " fill-opacity="1" fill-rule="nonzero"/></g><path fill="#011627" d="M 33.046875 12.308594 L 33.046875 23.191406 C 32.507812 23.339844 31.703125 23.335938 30.96875 23.089844 C 29.914062 22.738281 29.886719 22.625 29.503906 22.183594 C 29.125 21.746094 27.777344 22.800781 27.308594 22.097656 C 26.839844 21.394531 26.078125 22.683594 25.199219 21.804688 C 24.320312 20.925781 23.699219 21.792969 23.386719 22.066406 C 22.835938 22.550781 23.707031 23.792969 22.976562 23.296875 C 22.242188 22.800781 21.308594 23.355469 21.074219 23.617188 C 20.839844 23.882812 19.667969 23.121094 19.316406 22.828125 C 18.964844 22.539062 17.355469 22.945312 16.390625 23.765625 C 15.421875 24.585938 15.394531 23.792969 15.042969 23.472656 C 14.691406 23.152344 13.957031 23.558594 13.664062 23.914062 C 13.371094 24.269531 12.320312 23.386719 11.9375 22.933594 C 11.558594 22.484375 10.445312 23.679688 9.449219 23.089844 C 8.453125 22.507812 8.335938 23.707031 7.984375 24.117188 C 7.632812 24.527344 7.046875 24.496094 6.316406 24.351562 C 5.585938 24.207031 5.761719 24.878906 5.351562 24.730469 C 4.941406 24.585938 4.441406 24.292969 3.855469 24.730469 C 3.648438 24.886719 3.316406 24.957031 2.949219 24.984375 L 2.949219 12.308594 C 2.949219 11.425781 3.390625 10.601562 4.125 10.113281 L 16.539062 1.855469 C 17.421875 1.265625 18.574219 1.265625 19.457031 1.855469 L 31.871094 10.113281 C 32.605469 10.601562 33.046875 11.425781 33.046875 12.308594 Z M 33.046875 12.308594 " fill-opacity="1" fill-rule="nonzero"/><g clip-path="url(#a08bd74470)"><g clip-path="url(#7acc54278f)"><path fill="#199a87" d="M 30.675781 8.585938 C 30.675781 8.585938 29.753906 8.847656 28.4375 9.023438 C 27.117188 9.199219 26.460938 8.496094 24.878906 8.585938 C 23.296875 8.671875 22.550781 9.222656 21.300781 9.175781 C 20.046875 9.132812 17.875 8.960938 16.777344 9.179688 C 15.679688 9.398438 13.484375 9.023438 11.769531 9.417969 C 10.058594 9.8125 12.253906 9.15625 13.4375 8.824219 C 14.625 8.496094 15.789062 8.011719 16.359375 7.816406 C 16.929688 7.617188 17.523438 6.851562 18.183594 7.550781 C 18.839844 8.253906 18.929688 7.816406 19.234375 7.792969 C 19.542969 7.773438 19.652344 7.421875 20.15625 7.640625 C 20.664062 7.859375 21.652344 7.707031 21.453125 7.136719 C 21.257812 6.5625 21.671875 5.796875 22.398438 6.039062 C 23.121094 6.277344 24.199219 6.476562 24.21875 6.191406 C 24.242188 5.90625 24.242188 4.28125 26.480469 4.917969 C 28.722656 5.554688 30.675781 8.585938 30.675781 8.585938 Z M 30.675781 8.585938 " fill-opacity="1" fill-rule="nonzero"/></g></g><g clip-path="url(#16e0579fe0)"><g clip-path="url(#9932db84ff)"><path fill="#199a87" d="M 42.410156 16.292969 C 42.410156 16.292969 41.421875 16.574219 40.003906 16.765625 C 38.589844 16.953125 37.882812 16.199219 36.183594 16.292969 C 34.484375 16.386719 33.679688 16.976562 32.335938 16.929688 C 30.992188 16.882812 28.65625 16.699219 27.472656 16.933594 C 26.292969 17.164062 23.933594 16.765625 22.09375 17.1875 C 20.253906 17.613281 22.613281 16.90625 23.886719 16.550781 C 25.160156 16.199219 26.414062 15.679688 27.027344 15.464844 C 27.640625 15.253906 28.277344 14.429688 28.984375 15.183594 C 29.691406 15.9375 29.785156 15.464844 30.117188 15.441406 C 30.449219 15.417969 30.566406 15.042969 31.109375 15.277344 C 31.652344 15.515625 32.714844 15.347656 32.5 14.734375 C 32.289062 14.121094 32.738281 13.296875 33.515625 13.554688 C 34.292969 13.816406 35.449219 14.027344 35.472656 13.71875 C 35.496094 13.414062 35.496094 11.667969 37.90625 12.351562 C 40.3125 13.035156 42.410156 16.292969 42.410156 16.292969 Z M 42.410156 16.292969 " fill-opacity="1" fill-rule="nonzero"/></g></g><g clip-path="url(#1c835c47b7)"><g clip-path="url(#e15e056676)"><path fill="#2ec4b6" d="M 37.125 25.421875 C 36.339844 25.710938 35.433594 25.484375 34.621094 25.414062 C 33.589844 25.328125 32.554688 25.257812 31.519531 25.207031 C 27.492188 25.007812 23.457031 25.101562 19.441406 25.464844 C 18.738281 25.527344 18.378906 25.035156 18.351562 24.488281 C 18.1875 24.476562 18.019531 24.464844 17.855469 24.453125 C 15.007812 24.277344 12.152344 29.488281 9.300781 29.535156 C 8.886719 29.542969 8.472656 29.550781 8.058594 29.554688 L 7.757812 18.28125 C 7.800781 18.261719 7.84375 18.246094 7.886719 18.226562 C 7.859375 18.089844 7.859375 17.875 7.855469 17.796875 C 7.835938 17.199219 8.046875 16.625 8.507812 16.222656 C 8.738281 16.03125 9.007812 15.902344 9.292969 15.851562 C 9.429688 15.09375 9.695312 14.371094 10.359375 13.980469 C 10.546875 13.867188 10.746094 13.796875 10.945312 13.757812 C 11.414062 12.851562 12.390625 12.285156 13.566406 12.707031 C 13.644531 12.734375 13.71875 12.765625 13.789062 12.800781 C 14.261719 12.175781 15.222656 12.046875 15.699219 12.835938 C 15.730469 12.886719 15.757812 12.9375 15.785156 12.984375 C 16.054688 12.976562 16.347656 13.148438 16.382812 13.488281 C 16.40625 13.695312 16.421875 13.902344 16.429688 14.109375 C 16.644531 14.160156 16.835938 14.320312 16.851562 14.597656 C 16.863281 14.804688 16.855469 15.007812 16.832031 15.210938 C 16.925781 15.523438 16.988281 15.84375 17.019531 16.175781 C 17.03125 16.339844 17.035156 16.503906 17.027344 16.667969 C 17.585938 17.234375 17.871094 18.105469 17.808594 18.902344 C 17.804688 19 17.789062 19.09375 17.773438 19.191406 C 17.875 19.210938 17.972656 19.246094 18.066406 19.296875 C 18.261719 18.441406 18.777344 17.707031 19.695312 17.496094 C 20.242188 17.363281 20.953125 17.65625 21.089844 18.253906 C 21.234375 18.332031 21.34375 18.480469 21.347656 18.699219 C 21.347656 18.910156 21.339844 19.121094 21.332031 19.332031 C 21.523438 19.394531 21.683594 19.554688 21.695312 19.808594 C 21.707031 20.09375 21.71875 20.378906 21.722656 20.664062 C 21.859375 20.609375 21.992188 20.566406 22.085938 20.539062 C 23.035156 20.269531 23.835938 20.695312 24.441406 21.34375 C 25.050781 21.128906 25.714844 21.050781 26.367188 21.023438 C 27.117188 20.992188 28.441406 21.15625 28.941406 20.4375 C 29.433594 19.734375 30.234375 19.769531 30.695312 20.21875 C 31.109375 19.761719 31.902344 19.757812 32.339844 20.195312 C 32.386719 20.242188 32.429688 20.28125 32.472656 20.324219 C 32.992188 19.988281 33.585938 19.789062 34.234375 19.917969 C 34.683594 20.011719 34.9375 20.316406 35.335938 20.476562 C 35.792969 20.664062 36.328125 20.4375 36.777344 20.300781 C 37.417969 20.101562 37.945312 20.542969 38.179688 21.097656 C 38.734375 22.421875 38.761719 24.824219 37.125 25.421875 Z M 37.125 25.421875 " fill-opacity="1" fill-rule="nonzero"/></g></g><g clip-path="url(#6ec5f9ae43)"><g clip-path="url(#fd0120ec86)"><path fill="#199a87" d="M -2.242188 16.410156 C -2.242188 16.410156 -1.363281 16.660156 -0.113281 16.828125 C 1.140625 16.996094 1.765625 16.328125 3.269531 16.410156 C 4.769531 16.496094 5.480469 17.015625 6.667969 16.976562 C 7.859375 16.933594 9.921875 16.769531 10.964844 16.976562 C 12.011719 17.183594 14.097656 16.828125 15.722656 17.203125 C 17.351562 17.578125 15.265625 16.953125 14.136719 16.640625 C 13.011719 16.328125 11.90625 15.867188 11.363281 15.679688 C 10.820312 15.492188 10.257812 14.761719 9.632812 15.429688 C 9.003906 16.097656 8.921875 15.679688 8.628906 15.660156 C 8.335938 15.640625 8.234375 15.304688 7.753906 15.515625 C 7.273438 15.722656 6.335938 15.578125 6.523438 15.035156 C 6.710938 14.492188 6.3125 13.761719 5.625 13.992188 C 4.9375 14.222656 3.914062 14.410156 3.894531 14.136719 C 3.871094 13.867188 3.871094 12.320312 1.746094 12.925781 C -0.382812 13.53125 -2.242188 16.410156 -2.242188 16.410156 Z M -2.242188 16.410156 " fill-opacity="1" fill-rule="nonzero"/></g></g><g clip-path="url(#9afc8787e8)"><g clip-path="url(#ef442bfc03)"><path fill="#2ec4b6" d="M 8.058594 29.554688 C 5.59375 29.589844 3.136719 29.566406 0.695312 29.109375 C 0.363281 29.046875 0.132812 28.832031 0.00390625 28.554688 C -0.355469 28.5 -0.691406 28.394531 -0.976562 28.222656 C -1.277344 28.042969 -1.492188 27.78125 -1.613281 27.488281 L -1.433594 18.363281 C -1.351562 18.242188 -1.261719 18.128906 -1.160156 18.023438 C -0.859375 17.710938 -0.480469 17.476562 -0.0625 17.355469 C 0.00390625 17.261719 0.0898438 17.183594 0.203125 17.128906 C 0.394531 17.039062 0.597656 17.042969 0.792969 17.117188 C 0.882812 17.144531 0.960938 17.1875 1.027344 17.253906 C 1.054688 17.273438 1.078125 17.289062 1.101562 17.304688 C 1.332031 17.226562 1.53125 17.238281 1.683594 17.320312 C 1.71875 17.269531 1.761719 17.222656 1.828125 17.179688 C 1.9375 17.105469 2.050781 17.097656 2.160156 17.105469 C 2.234375 16.78125 2.574219 16.6875 2.84375 16.785156 C 2.980469 16.707031 3.164062 16.6875 3.3125 16.730469 C 3.433594 16.679688 3.570312 16.6875 3.695312 16.730469 C 3.75 16.691406 3.808594 16.65625 3.871094 16.632812 C 3.867188 16.410156 3.871094 16.203125 3.875 16.121094 C 3.902344 15.535156 4.125 14.964844 4.613281 14.617188 C 4.863281 14.441406 5.144531 14.351562 5.425781 14.328125 C 5.539062 14.199219 5.679688 14.117188 5.84375 14.121094 C 5.964844 14.058594 6.105469 14.046875 6.234375 14.089844 C 6.378906 13.992188 6.574219 14.007812 6.734375 14.089844 C 7.035156 14.023438 7.390625 14.1875 7.375 14.582031 C 7.371094 14.769531 7.363281 14.953125 7.355469 15.136719 C 7.441406 15.199219 7.503906 15.292969 7.535156 15.421875 C 7.578125 15.628906 7.578125 15.804688 7.558594 15.972656 C 7.621094 16.285156 7.625 16.613281 7.59375 16.925781 C 7.585938 16.992188 7.546875 17.171875 7.503906 17.375 C 7.542969 17.699219 7.554688 18.019531 7.542969 18.347656 C 7.609375 18.335938 7.683594 18.3125 7.757812 18.28125 Z M 8.058594 29.554688 " fill-opacity="1" fill-rule="nonzero"/></g></g><path fill="#ffffff" d="M 8.355469 17.320312 C 8.355469 18.074219 8.375 18.699219 8.773438 19.125 C 9.171875 19.554688 9.625 19.601562 9.664062 20.730469 C 9.683594 21.300781 9.691406 23.808594 9.695312 24.394531 C 9.882812 24.496094 10.71875 25.152344 10.695312 24.945312 L 10.707031 22.761719 C 10.707031 22.5625 10.742188 22.261719 11.332031 21.582031 C 11.917969 20.90625 12.164062 20.53125 12.164062 19.328125 C 12.164062 18.125 11.597656 18.347656 11.617188 18.875 C 11.636719 19.402344 11.558594 19.980469 11.160156 20.355469 C 10.761719 20.730469 10.707031 20.503906 10.707031 19.675781 L 10.707031 16.820312 C 10.707031 15.492188 9.664062 15.191406 9.664062 16.820312 C 9.664062 18.449219 9.492188 18.476562 9.265625 18.199219 C 9.035156 17.925781 8.980469 17.824219 8.980469 17.347656 C 8.980469 16.871094 8.355469 16.570312 8.355469 17.320312 Z M 8.355469 17.320312 " fill-opacity="1" fill-rule="nonzero"/><path fill="#ffffff" d="M 28.03125 19.804688 C 28.03125 20.183594 28.039062 20.496094 28.238281 20.707031 C 28.4375 20.921875 28.664062 20.945312 28.683594 21.511719 C 28.695312 21.796875 28.699219 23.050781 28.699219 23.34375 C 28.796875 23.394531 29.210938 23.722656 29.203125 23.617188 L 29.207031 22.527344 C 29.207031 22.425781 29.222656 22.277344 29.519531 21.9375 C 29.8125 21.597656 29.933594 21.410156 29.933594 20.808594 C 29.933594 20.207031 29.652344 20.320312 29.660156 20.582031 C 29.671875 20.847656 29.632812 21.136719 29.433594 21.324219 C 29.234375 21.511719 29.207031 21.398438 29.207031 20.984375 L 29.207031 19.554688 C 29.207031 18.890625 28.683594 18.742188 28.683594 19.554688 C 28.683594 20.371094 28.597656 20.382812 28.484375 20.246094 C 28.371094 20.105469 28.34375 20.058594 28.34375 19.820312 C 28.34375 19.582031 28.03125 19.429688 28.03125 19.804688 Z M 28.03125 19.804688 " fill-opacity="1" fill-rule="nonzero"/><path fill="#ffffff" d="M 5.863281 21.507812 C 5.863281 21.882812 5.851562 22.199219 5.652344 22.410156 C 5.453125 22.625 5.226562 22.648438 5.207031 23.214844 C 5.199219 23.496094 5.195312 24.753906 5.191406 25.046875 C 5.097656 25.09375 4.679688 25.421875 4.691406 25.320312 L 4.6875 24.226562 C 4.6875 24.128906 4.667969 23.976562 4.375 23.640625 C 4.082031 23.300781 3.957031 23.113281 3.957031 22.511719 C 3.957031 21.910156 4.242188 22.023438 4.230469 22.285156 C 4.222656 22.550781 4.261719 22.835938 4.460938 23.023438 C 4.660156 23.214844 4.6875 23.101562 4.6875 22.6875 L 4.6875 21.257812 C 4.6875 20.59375 5.207031 20.441406 5.207031 21.257812 C 5.207031 22.074219 5.292969 22.085938 5.40625 21.945312 C 5.523438 21.808594 5.550781 21.757812 5.550781 21.519531 C 5.550781 21.28125 5.863281 21.132812 5.863281 21.507812 Z M 5.863281 21.507812 " fill-opacity="1" fill-rule="nonzero"/><path fill="#ffffff" d="M 20.777344 21.550781 C 20.792969 21.890625 20.800781 23.390625 20.804688 23.746094 C 20.949219 23.804688 21.605469 24.195312 21.589844 24.074219 L 21.597656 22.765625 C 21.597656 22.644531 21.625 22.464844 22.085938 22.058594 C 22.546875 21.652344 22.742188 21.429688 22.742188 20.707031 C 22.742188 19.988281 22.292969 20.121094 22.308594 20.4375 C 22.324219 20.753906 22.265625 21.097656 21.953125 21.324219 C 21.640625 21.550781 21.597656 21.414062 21.597656 20.917969 L 21.597656 19.207031 C 21.597656 18.410156 20.777344 18.230469 20.777344 19.207031 C 20.777344 20.183594 20.746094 20.875 20.777344 21.550781 Z M 20.777344 21.550781 " fill-opacity="1" fill-rule="nonzero"/><path fill="#ffffff" d="M 15.304688 15.84375 C 15.304688 17.03125 15.335938 18.015625 16.042969 18.691406 C 16.75 19.363281 17.558594 19.441406 17.625 21.222656 C 17.660156 22.117188 17.679688 23.425781 17.683594 24.351562 C 18.019531 24.507812 20.261719 25.605469 20.226562 25.28125 C 20.226562 25.28125 20.089844 23.082031 20.101562 21.773438 C 20.117188 20.40625 19.546875 18.488281 20.589844 17.421875 C 21.632812 16.351562 22.070312 15.761719 22.070312 13.863281 C 22.070312 11.964844 21.058594 12.320312 21.09375 13.152344 C 21.128906 13.980469 20.992188 14.890625 20.285156 15.484375 C 19.578125 16.078125 19.480469 15.71875 19.480469 14.414062 L 19.480469 12.402344 C 19.480469 10.308594 17.625 9.832031 17.625 12.402344 C 17.625 14.972656 17.875 18.070312 17.058594 17.582031 C 16.546875 17.28125 16.414062 16.636719 16.414062 15.882812 C 16.414062 15.132812 15.304688 14.65625 15.304688 15.84375 Z M 15.304688 15.84375 " fill-opacity="1" fill-rule="nonzero"/><g clip-path="url(#c68ff78ec9)"><path fill="#ff3366" d="M 2.339844 32.835938 L 2.339844 11.902344 C 2.339844 11.046875 2.769531 10.246094 3.484375 9.769531 L 16.578125 1.054688 C 17.4375 0.480469 18.558594 0.480469 19.417969 1.054688 L 32.515625 9.769531 C 33.230469 10.246094 33.660156 11.046875 33.660156 11.902344 L 33.660156 32.835938 C 33.660156 33.777344 32.894531 34.542969 31.949219 34.542969 L 4.046875 34.542969 C 3.105469 34.542969 2.339844 33.777344 2.339844 32.835938 Z M 2.339844 32.835938 " fill-opacity="1" fill-rule="nonzero"/></g><path fill="#011627" d="M 32.632812 12.453125 L 32.632812 23.035156 C 32.109375 23.179688 31.328125 23.175781 30.613281 22.9375 C 29.585938 22.597656 29.558594 22.484375 29.1875 22.054688 C 28.820312 21.628906 27.507812 22.65625 27.050781 21.972656 C 26.597656 21.289062 25.855469 22.539062 25.003906 21.6875 C 24.148438 20.832031 23.542969 21.675781 23.238281 21.941406 C 22.703125 22.410156 23.550781 23.621094 22.839844 23.136719 C 22.128906 22.65625 21.21875 23.195312 20.988281 23.449219 C 20.761719 23.707031 19.621094 22.96875 19.28125 22.683594 C 18.9375 22.398438 17.375 22.792969 16.433594 23.59375 C 15.492188 24.390625 15.464844 23.621094 15.125 23.308594 C 14.78125 22.996094 14.070312 23.394531 13.785156 23.738281 C 13.5 24.082031 12.476562 23.222656 12.105469 22.785156 C 11.734375 22.347656 10.652344 23.507812 9.6875 22.9375 C 8.71875 22.367188 8.601562 23.535156 8.261719 23.9375 C 7.917969 24.332031 7.351562 24.304688 6.636719 24.164062 C 5.925781 24.019531 6.097656 24.675781 5.699219 24.535156 C 5.300781 24.390625 4.816406 24.105469 4.246094 24.535156 C 4.042969 24.6875 3.71875 24.753906 3.363281 24.78125 L 3.363281 12.453125 C 3.363281 11.59375 3.792969 10.792969 4.507812 10.320312 L 16.578125 2.285156 C 17.4375 1.714844 18.558594 1.714844 19.417969 2.285156 L 31.492188 10.320312 C 32.203125 10.792969 32.632812 11.59375 32.632812 12.453125 Z M 32.632812 12.453125 " fill-opacity="1" fill-rule="nonzero"/><g clip-path="url(#43e99785a2)"><g clip-path="url(#2ae8e8a479)"><path fill="#199a87" d="M 30.328125 8.832031 C 30.328125 8.832031 29.429688 9.085938 28.148438 9.257812 C 26.867188 9.429688 26.226562 8.746094 24.691406 8.832031 C 23.152344 8.917969 22.425781 9.449219 21.210938 9.40625 C 19.992188 9.363281 17.878906 9.199219 16.808594 9.410156 C 15.742188 9.621094 13.605469 9.257812 11.941406 9.640625 C 10.277344 10.027344 12.410156 9.386719 13.566406 9.066406 C 14.71875 8.746094 15.847656 8.277344 16.40625 8.082031 C 16.960938 7.890625 17.535156 7.144531 18.175781 7.828125 C 18.816406 8.511719 18.902344 8.082031 19.203125 8.0625 C 19.5 8.039062 19.609375 7.699219 20.097656 7.914062 C 20.589844 8.125 21.550781 7.976562 21.359375 7.421875 C 21.167969 6.867188 21.574219 6.117188 22.277344 6.355469 C 22.980469 6.589844 24.027344 6.78125 24.050781 6.503906 C 24.070312 6.226562 24.070312 4.644531 26.25 5.265625 C 28.425781 5.882812 30.328125 8.832031 30.328125 8.832031 Z M 30.328125 8.832031 " fill-opacity="1" fill-rule="nonzero"/></g></g><g clip-path="url(#5357095bad)"><g clip-path="url(#8ccedab6b1)"><path fill="#199a87" d="M 41.738281 16.328125 C 41.738281 16.328125 40.773438 16.601562 39.398438 16.785156 C 38.023438 16.96875 37.332031 16.234375 35.679688 16.328125 C 34.027344 16.417969 33.25 16.992188 31.941406 16.945312 C 30.632812 16.898438 28.359375 16.722656 27.214844 16.949219 C 26.066406 17.175781 23.773438 16.785156 21.980469 17.199219 C 20.191406 17.609375 22.488281 16.921875 23.726562 16.578125 C 24.964844 16.234375 26.179688 15.730469 26.777344 15.523438 C 27.375 15.316406 27.992188 14.511719 28.683594 15.246094 C 29.371094 15.980469 29.460938 15.523438 29.785156 15.5 C 30.105469 15.476562 30.21875 15.109375 30.746094 15.339844 C 31.273438 15.570312 32.308594 15.410156 32.101562 14.8125 C 31.894531 14.214844 32.332031 13.410156 33.089844 13.664062 C 33.84375 13.917969 34.96875 14.125 34.992188 13.824219 C 35.015625 13.527344 35.015625 11.828125 37.355469 12.492188 C 39.695312 13.160156 41.738281 16.328125 41.738281 16.328125 Z M 41.738281 16.328125 " fill-opacity="1" fill-rule="nonzero"/></g></g><g clip-path="url(#36621a2531)"><g clip-path="url(#a6d5a3c2d4)"><path fill="#2ec4b6" d="M 36.597656 25.203125 C 35.832031 25.484375 34.953125 25.265625 34.164062 25.199219 C 33.160156 25.113281 32.152344 25.042969 31.148438 24.996094 C 27.230469 24.800781 23.308594 24.894531 19.402344 25.246094 C 18.71875 25.308594 18.367188 24.828125 18.34375 24.296875 C 18.179688 24.285156 18.019531 24.273438 17.859375 24.261719 C 15.089844 24.089844 12.316406 29.160156 9.539062 29.207031 C 9.136719 29.210938 8.734375 29.21875 8.335938 29.222656 L 8.039062 18.261719 C 8.082031 18.242188 8.125 18.226562 8.164062 18.207031 C 8.140625 18.074219 8.140625 17.867188 8.136719 17.789062 C 8.113281 17.207031 8.320312 16.648438 8.769531 16.261719 C 8.992188 16.070312 9.253906 15.945312 9.53125 15.898438 C 9.664062 15.160156 9.921875 14.460938 10.570312 14.078125 C 10.753906 13.96875 10.945312 13.898438 11.140625 13.863281 C 11.597656 12.980469 12.542969 12.429688 13.6875 12.839844 C 13.765625 12.867188 13.835938 12.898438 13.902344 12.933594 C 14.363281 12.324219 15.300781 12.199219 15.761719 12.964844 C 15.792969 13.015625 15.820312 13.0625 15.847656 13.109375 C 16.109375 13.101562 16.394531 13.265625 16.429688 13.597656 C 16.449219 13.800781 16.464844 14 16.476562 14.203125 C 16.679688 14.25 16.867188 14.410156 16.882812 14.679688 C 16.898438 14.878906 16.886719 15.078125 16.867188 15.273438 C 16.953125 15.578125 17.019531 15.890625 17.046875 16.214844 C 17.058594 16.371094 17.0625 16.53125 17.054688 16.691406 C 17.597656 17.242188 17.875 18.089844 17.816406 18.863281 C 17.808594 18.957031 17.796875 19.050781 17.78125 19.144531 C 17.878906 19.164062 17.972656 19.199219 18.0625 19.246094 C 18.253906 18.417969 18.757812 17.703125 19.648438 17.496094 C 20.179688 17.367188 20.871094 17.652344 21.003906 18.234375 C 21.148438 18.308594 21.253906 18.453125 21.253906 18.664062 C 21.257812 18.871094 21.25 19.078125 21.238281 19.28125 C 21.425781 19.34375 21.582031 19.496094 21.59375 19.746094 C 21.605469 20.023438 21.613281 20.300781 21.621094 20.578125 C 21.753906 20.523438 21.882812 20.480469 21.972656 20.457031 C 22.898438 20.195312 23.675781 20.609375 24.265625 21.238281 C 24.855469 21.027344 25.5 20.953125 26.136719 20.925781 C 26.867188 20.898438 28.152344 21.058594 28.640625 20.355469 C 29.117188 19.675781 29.898438 19.707031 30.34375 20.144531 C 30.75 19.699219 31.519531 19.695312 31.945312 20.121094 C 31.988281 20.164062 32.03125 20.207031 32.074219 20.246094 C 32.582031 19.917969 33.15625 19.726562 33.785156 19.851562 C 34.226562 19.941406 34.472656 20.242188 34.859375 20.394531 C 35.304688 20.578125 35.824219 20.359375 36.257812 20.222656 C 36.882812 20.027344 37.394531 20.460938 37.625 21 C 38.164062 22.285156 38.1875 24.625 36.597656 25.203125 Z M 36.597656 25.203125 " fill-opacity="1" fill-rule="nonzero"/></g></g><g clip-path="url(#774cb2cc3c)"><g clip-path="url(#b226bb9470)"><path fill="#199a87" d="M -1.683594 16.441406 C -1.683594 16.441406 -0.832031 16.6875 0.386719 16.847656 C 1.605469 17.011719 2.214844 16.359375 3.675781 16.441406 C 5.136719 16.523438 5.824219 17.03125 6.980469 16.988281 C 8.136719 16.949219 10.144531 16.792969 11.160156 16.992188 C 12.175781 17.191406 14.203125 16.847656 15.785156 17.214844 C 17.371094 17.578125 15.339844 16.96875 14.246094 16.664062 C 13.148438 16.359375 12.074219 15.914062 11.546875 15.730469 C 11.019531 15.550781 10.472656 14.839844 9.863281 15.488281 C 9.253906 16.136719 9.171875 15.730469 8.886719 15.710938 C 8.605469 15.691406 8.503906 15.367188 8.035156 15.570312 C 7.570312 15.773438 6.65625 15.628906 6.839844 15.101562 C 7.023438 14.574219 6.636719 13.867188 5.964844 14.089844 C 5.296875 14.3125 4.304688 14.496094 4.28125 14.230469 C 4.261719 13.96875 4.261719 12.464844 2.191406 13.054688 C 0.125 13.640625 -1.683594 16.441406 -1.683594 16.441406 Z M -1.683594 16.441406 " fill-opacity="1" fill-rule="nonzero"/></g></g><g clip-path="url(#c2aa69b32f)"><g clip-path="url(#083d7cd56f)"><path fill="#2ec4b6" d="M 8.335938 29.222656 C 5.933594 29.257812 3.546875 29.238281 1.171875 28.789062 C 0.851562 28.730469 0.625 28.519531 0.5 28.25 C 0.152344 28.195312 -0.175781 28.09375 -0.453125 27.925781 C -0.746094 27.75 -0.953125 27.496094 -1.074219 27.210938 L -0.898438 18.339844 C -0.816406 18.222656 -0.730469 18.113281 -0.632812 18.011719 C -0.339844 17.707031 0.03125 17.476562 0.4375 17.359375 C 0.5 17.269531 0.582031 17.191406 0.695312 17.136719 C 0.882812 17.050781 1.078125 17.054688 1.269531 17.128906 C 1.355469 17.152344 1.429688 17.199219 1.496094 17.261719 C 1.523438 17.28125 1.546875 17.296875 1.566406 17.3125 C 1.789062 17.234375 1.984375 17.246094 2.132812 17.324219 C 2.167969 17.277344 2.207031 17.230469 2.273438 17.1875 C 2.378906 17.117188 2.492188 17.109375 2.597656 17.117188 C 2.671875 16.800781 2.996094 16.710938 3.261719 16.808594 C 3.394531 16.726562 3.570312 16.710938 3.71875 16.753906 C 3.835938 16.703125 3.96875 16.710938 4.089844 16.753906 C 4.140625 16.710938 4.199219 16.679688 4.261719 16.65625 C 4.253906 16.441406 4.261719 16.238281 4.265625 16.160156 C 4.292969 15.589844 4.507812 15.035156 4.984375 14.699219 C 5.226562 14.527344 5.5 14.4375 5.773438 14.414062 C 5.882812 14.292969 6.019531 14.210938 6.179688 14.214844 C 6.296875 14.152344 6.433594 14.140625 6.558594 14.1875 C 6.699219 14.089844 6.890625 14.105469 7.046875 14.1875 C 7.339844 14.121094 7.683594 14.277344 7.667969 14.664062 C 7.664062 14.84375 7.65625 15.023438 7.648438 15.203125 C 7.730469 15.261719 7.792969 15.351562 7.820312 15.480469 C 7.863281 15.683594 7.863281 15.851562 7.847656 16.015625 C 7.90625 16.320312 7.914062 16.636719 7.878906 16.941406 C 7.875 17.007812 7.835938 17.179688 7.792969 17.378906 C 7.832031 17.691406 7.84375 18.007812 7.832031 18.324219 C 7.894531 18.316406 7.96875 18.289062 8.039062 18.261719 Z M 8.335938 29.222656 " fill-opacity="1" fill-rule="nonzero"/></g></g><path fill="#ff3366" d="M 8.621094 17.328125 C 8.621094 18.058594 8.640625 18.667969 9.027344 19.082031 C 9.414062 19.496094 9.855469 19.546875 9.894531 20.644531 C 9.910156 21.195312 9.921875 23.636719 9.925781 24.207031 C 10.109375 24.300781 10.917969 24.941406 10.898438 24.742188 L 10.90625 22.617188 C 10.90625 22.421875 10.945312 22.128906 11.515625 21.472656 C 12.085938 20.8125 12.328125 20.449219 12.328125 19.277344 C 12.328125 18.109375 11.773438 18.324219 11.792969 18.839844 C 11.808594 19.351562 11.738281 19.914062 11.347656 20.277344 C 10.960938 20.644531 10.90625 20.421875 10.90625 19.617188 L 10.90625 16.839844 C 10.90625 15.546875 9.894531 15.253906 9.894531 16.839844 C 9.894531 18.421875 9.726562 18.449219 9.507812 18.179688 C 9.285156 17.914062 9.230469 17.816406 9.230469 17.351562 C 9.230469 16.886719 8.621094 16.59375 8.621094 17.328125 Z M 8.621094 17.328125 " fill-opacity="1" fill-rule="nonzero"/><path fill="#ff3366" d="M 27.753906 19.742188 C 27.753906 20.109375 27.761719 20.414062 27.957031 20.621094 C 28.152344 20.828125 28.371094 20.851562 28.390625 21.402344 C 28.398438 21.675781 28.40625 22.898438 28.40625 23.183594 C 28.496094 23.230469 28.902344 23.550781 28.894531 23.449219 L 28.898438 22.386719 C 28.898438 22.289062 28.914062 22.144531 29.199219 21.816406 C 29.488281 21.484375 29.605469 21.304688 29.605469 20.71875 C 29.605469 20.132812 29.328125 20.242188 29.339844 20.5 C 29.347656 20.753906 29.3125 21.035156 29.117188 21.21875 C 28.925781 21.402344 28.898438 21.292969 28.898438 20.886719 L 28.898438 19.5 C 28.898438 18.851562 28.390625 18.707031 28.390625 19.5 C 28.390625 20.292969 28.308594 20.304688 28.195312 20.167969 C 28.085938 20.035156 28.058594 19.988281 28.058594 19.753906 C 28.058594 19.523438 27.753906 19.378906 27.753906 19.742188 Z M 27.753906 19.742188 " fill-opacity="1" fill-rule="nonzero"/><path fill="#ff3366" d="M 6.195312 21.398438 C 6.195312 21.765625 6.1875 22.070312 5.996094 22.277344 C 5.800781 22.484375 5.578125 22.507812 5.5625 23.054688 C 5.550781 23.332031 5.546875 24.554688 5.546875 24.839844 C 5.453125 24.886719 5.046875 25.207031 5.058594 25.105469 L 5.054688 24.042969 C 5.054688 23.945312 5.035156 23.800781 4.75 23.46875 C 4.464844 23.140625 4.34375 22.960938 4.34375 22.375 C 4.34375 21.789062 4.621094 21.898438 4.613281 22.15625 C 4.601562 22.410156 4.640625 22.691406 4.832031 22.875 C 5.027344 23.054688 5.054688 22.945312 5.054688 22.542969 L 5.054688 21.15625 C 5.054688 20.507812 5.5625 20.363281 5.5625 21.15625 C 5.5625 21.945312 5.644531 21.960938 5.753906 21.824219 C 5.867188 21.691406 5.894531 21.644531 5.894531 21.410156 C 5.894531 21.179688 6.195312 21.03125 6.195312 21.398438 Z M 6.195312 21.398438 " fill-opacity="1" fill-rule="nonzero"/><path fill="#ff3366" d="M 20.699219 21.4375 C 20.714844 21.769531 20.722656 23.230469 20.726562 23.574219 C 20.871094 23.628906 21.503906 24.011719 21.488281 23.890625 L 21.496094 22.621094 C 21.496094 22.503906 21.527344 22.328125 21.972656 21.933594 C 22.421875 21.539062 22.613281 21.320312 22.613281 20.621094 C 22.613281 19.917969 22.175781 20.050781 22.191406 20.355469 C 22.207031 20.664062 22.148438 21 21.84375 21.21875 C 21.539062 21.4375 21.496094 21.304688 21.496094 20.824219 L 21.496094 19.160156 C 21.496094 18.386719 20.699219 18.210938 20.699219 19.160156 C 20.699219 20.109375 20.671875 20.78125 20.699219 21.4375 Z M 20.699219 21.4375 " fill-opacity="1" fill-rule="nonzero"/><path fill="#ff3366" d="M 15.378906 15.890625 C 15.378906 17.042969 15.410156 18.003906 16.097656 18.660156 C 16.785156 19.3125 17.570312 19.390625 17.636719 21.121094 C 17.667969 21.992188 17.6875 23.261719 17.695312 24.164062 C 18.019531 24.3125 20.199219 25.382812 20.164062 25.066406 C 20.164062 25.066406 20.03125 22.929688 20.042969 21.65625 C 20.058594 20.328125 19.503906 18.460938 20.515625 17.421875 C 21.53125 16.386719 21.960938 15.808594 21.960938 13.964844 C 21.960938 12.117188 20.976562 12.464844 21.007812 13.269531 C 21.042969 14.078125 20.910156 14.964844 20.222656 15.539062 C 19.535156 16.117188 19.4375 15.769531 19.4375 14.5 L 19.4375 12.542969 C 19.4375 10.507812 17.636719 10.046875 17.636719 12.542969 C 17.636719 15.042969 17.878906 18.054688 17.082031 17.582031 C 16.585938 17.285156 16.457031 16.660156 16.457031 15.929688 C 16.457031 15.199219 15.378906 14.738281 15.378906 15.890625 Z M 15.378906 15.890625 " fill-opacity="1" fill-rule="nonzero"/><g fill="#ffffff" fill-opacity="1"><g transform="translate(3.65256, 32.461459)"><g><path d="M 3.6875 -1.65625 L 2.21875 -1.65625 C 2.101562 -1.3125 1.984375 -1.007812 1.859375 -0.75 C 1.734375 -0.5 1.59375 -0.289062 1.4375 -0.125 C 1.289062 0.0390625 1.125 0.164062 0.9375 0.25 C 0.75 0.332031 0.546875 0.375 0.328125 0.375 C 0.203125 0.375 0.0820312 0.359375 -0.03125 0.328125 C -0.15625 0.304688 -0.257812 0.273438 -0.34375 0.234375 C -0.4375 0.203125 -0.507812 0.160156 -0.5625 0.109375 C -0.613281 0.0546875 -0.640625 -0.00390625 -0.640625 -0.078125 C -0.640625 -0.117188 -0.628906 -0.160156 -0.609375 -0.203125 C -0.597656 -0.253906 -0.578125 -0.300781 -0.546875 -0.34375 C -0.523438 -0.382812 -0.492188 -0.414062 -0.453125 -0.4375 C -0.421875 -0.46875 -0.382812 -0.484375 -0.34375 -0.484375 C -0.300781 -0.484375 -0.265625 -0.453125 -0.234375 -0.390625 C -0.203125 -0.335938 -0.160156 -0.273438 -0.109375 -0.203125 C -0.0546875 -0.140625 0.00390625 -0.078125 0.078125 -0.015625 C 0.148438 0.046875 0.253906 0.078125 0.390625 0.078125 C 0.523438 0.078125 0.65625 0.046875 0.78125 -0.015625 C 0.90625 -0.0859375 1.019531 -0.191406 1.125 -0.328125 C 1.238281 -0.472656 1.347656 -0.648438 1.453125 -0.859375 C 1.554688 -1.078125 1.660156 -1.34375 1.765625 -1.65625 L 0.84375 -1.65625 L 0.84375 -2 L 1.859375 -2 C 1.953125 -2.289062 2.035156 -2.582031 2.109375 -2.875 C 2.191406 -3.175781 2.269531 -3.460938 2.34375 -3.734375 C 2.414062 -4.003906 2.476562 -4.257812 2.53125 -4.5 C 2.59375 -4.738281 2.644531 -4.945312 2.6875 -5.125 C 2.632812 -5.269531 2.5625 -5.363281 2.46875 -5.40625 C 2.382812 -5.457031 2.265625 -5.484375 2.109375 -5.484375 C 1.972656 -5.484375 1.828125 -5.460938 1.671875 -5.421875 C 1.523438 -5.378906 1.390625 -5.316406 1.265625 -5.234375 C 1.148438 -5.160156 1.050781 -5.066406 0.96875 -4.953125 C 0.882812 -4.835938 0.84375 -4.707031 0.84375 -4.5625 C 0.84375 -4.476562 0.851562 -4.410156 0.875 -4.359375 C 0.90625 -4.304688 0.929688 -4.269531 0.953125 -4.25 C 0.984375 -4.226562 1.015625 -4.210938 1.046875 -4.203125 C 1.078125 -4.191406 1.097656 -4.1875 1.109375 -4.1875 C 1.171875 -4.1875 1.222656 -4.195312 1.265625 -4.21875 C 1.316406 -4.25 1.359375 -4.273438 1.390625 -4.296875 C 1.421875 -4.316406 1.453125 -4.335938 1.484375 -4.359375 C 1.515625 -4.390625 1.550781 -4.40625 1.59375 -4.40625 C 1.613281 -4.40625 1.640625 -4.394531 1.671875 -4.375 C 1.710938 -4.363281 1.75 -4.34375 1.78125 -4.3125 C 1.8125 -4.28125 1.835938 -4.238281 1.859375 -4.1875 C 1.878906 -4.132812 1.890625 -4.070312 1.890625 -4 C 1.890625 -3.894531 1.867188 -3.804688 1.828125 -3.734375 C 1.785156 -3.660156 1.734375 -3.597656 1.671875 -3.546875 C 1.609375 -3.492188 1.535156 -3.453125 1.453125 -3.421875 C 1.367188 -3.398438 1.285156 -3.390625 1.203125 -3.390625 C 1.078125 -3.390625 0.960938 -3.410156 0.859375 -3.453125 C 0.765625 -3.503906 0.679688 -3.566406 0.609375 -3.640625 C 0.546875 -3.722656 0.492188 -3.816406 0.453125 -3.921875 C 0.421875 -4.023438 0.40625 -4.132812 0.40625 -4.25 C 0.40625 -4.414062 0.429688 -4.570312 0.484375 -4.71875 C 0.546875 -4.863281 0.625 -4.992188 0.71875 -5.109375 C 0.820312 -5.234375 0.941406 -5.335938 1.078125 -5.421875 C 1.222656 -5.515625 1.375 -5.59375 1.53125 -5.65625 C 1.6875 -5.71875 1.851562 -5.765625 2.03125 -5.796875 C 2.207031 -5.828125 2.382812 -5.84375 2.5625 -5.84375 C 2.8125 -5.84375 3.019531 -5.820312 3.1875 -5.78125 C 3.363281 -5.738281 3.507812 -5.675781 3.625 -5.59375 C 3.75 -5.519531 3.84375 -5.421875 3.90625 -5.296875 C 3.976562 -5.179688 4.039062 -5.039062 4.09375 -4.875 L 4.9375 -2 L 5.78125 -2 L 5.78125 -1.65625 L 5.03125 -1.65625 L 5.328125 -0.625 C 5.335938 -0.582031 5.347656 -0.546875 5.359375 -0.515625 C 5.367188 -0.484375 5.378906 -0.453125 5.390625 -0.421875 C 5.410156 -0.398438 5.429688 -0.378906 5.453125 -0.359375 C 5.472656 -0.347656 5.5 -0.34375 5.53125 -0.34375 C 5.601562 -0.34375 5.671875 -0.351562 5.734375 -0.375 C 5.796875 -0.40625 5.851562 -0.429688 5.90625 -0.453125 L 5.96875 -0.3125 C 5.925781 -0.28125 5.867188 -0.242188 5.796875 -0.203125 C 5.722656 -0.160156 5.640625 -0.117188 5.546875 -0.078125 C 5.453125 -0.0351562 5.347656 -0.00390625 5.234375 0.015625 C 5.128906 0.046875 5.007812 0.0625 4.875 0.0625 C 4.695312 0.0625 4.554688 0.0390625 4.453125 0 C 4.347656 -0.0507812 4.265625 -0.109375 4.203125 -0.171875 C 4.140625 -0.234375 4.09375 -0.300781 4.0625 -0.375 C 4.039062 -0.445312 4.019531 -0.507812 4 -0.5625 Z M 2.9375 -4.296875 C 2.820312 -3.859375 2.710938 -3.445312 2.609375 -3.0625 C 2.515625 -2.675781 2.421875 -2.320312 2.328125 -2 L 3.59375 -2 Z M 2.9375 -4.296875 "/></g></g></g><g fill="#ffffff" fill-opacity="1"><g transform="translate(9.618363, 32.461459)"><g><path d="M 2.59375 -0.28125 C 2.738281 -0.28125 2.882812 -0.289062 3.03125 -0.3125 C 3.1875 -0.332031 3.328125 -0.367188 3.453125 -0.421875 C 3.578125 -0.472656 3.675781 -0.546875 3.75 -0.640625 C 3.832031 -0.734375 3.875 -0.847656 3.875 -0.984375 C 3.875 -1.054688 3.859375 -1.113281 3.828125 -1.15625 C 3.804688 -1.195312 3.773438 -1.222656 3.734375 -1.234375 C 3.691406 -1.253906 3.644531 -1.265625 3.59375 -1.265625 C 3.550781 -1.265625 3.515625 -1.257812 3.484375 -1.25 C 3.453125 -1.238281 3.421875 -1.226562 3.390625 -1.21875 C 3.367188 -1.207031 3.34375 -1.195312 3.3125 -1.1875 C 3.289062 -1.175781 3.269531 -1.171875 3.25 -1.171875 C 3.21875 -1.171875 3.1875 -1.175781 3.15625 -1.1875 C 3.132812 -1.195312 3.109375 -1.210938 3.078125 -1.234375 C 3.054688 -1.265625 3.035156 -1.300781 3.015625 -1.34375 C 3.003906 -1.382812 3 -1.429688 3 -1.484375 C 3 -1.585938 3.015625 -1.675781 3.046875 -1.75 C 3.085938 -1.820312 3.140625 -1.878906 3.203125 -1.921875 C 3.265625 -1.972656 3.332031 -2.007812 3.40625 -2.03125 C 3.476562 -2.0625 3.546875 -2.078125 3.609375 -2.078125 C 3.742188 -2.078125 3.859375 -2.050781 3.953125 -2 C 4.054688 -1.957031 4.140625 -1.898438 4.203125 -1.828125 C 4.273438 -1.753906 4.328125 -1.671875 4.359375 -1.578125 C 4.398438 -1.484375 4.421875 -1.382812 4.421875 -1.28125 C 4.421875 -1.019531 4.363281 -0.804688 4.25 -0.640625 C 4.144531 -0.472656 3.988281 -0.335938 3.78125 -0.234375 C 3.582031 -0.128906 3.335938 -0.0546875 3.046875 -0.015625 C 2.765625 0.0234375 2.445312 0.046875 2.09375 0.046875 C 1.664062 0.046875 1.320312 0.03125 1.0625 0 C 0.800781 -0.03125 0.597656 -0.0703125 0.453125 -0.125 C 0.304688 -0.1875 0.207031 -0.25 0.15625 -0.3125 C 0.101562 -0.382812 0.078125 -0.453125 0.078125 -0.515625 C 0.078125 -0.578125 0.0859375 -0.640625 0.109375 -0.703125 C 0.128906 -0.773438 0.15625 -0.847656 0.1875 -0.921875 C 0.226562 -1.003906 0.28125 -1.097656 0.34375 -1.203125 C 0.40625 -1.304688 0.484375 -1.429688 0.578125 -1.578125 L 2.53125 -4.703125 C 2.5625 -4.753906 2.59375 -4.804688 2.625 -4.859375 C 2.65625 -4.910156 2.6875 -4.960938 2.71875 -5.015625 C 2.75 -5.066406 2.769531 -5.113281 2.78125 -5.15625 C 2.800781 -5.195312 2.8125 -5.234375 2.8125 -5.265625 C 2.8125 -5.335938 2.773438 -5.390625 2.703125 -5.421875 C 2.640625 -5.453125 2.5625 -5.472656 2.46875 -5.484375 C 2.382812 -5.503906 2.296875 -5.515625 2.203125 -5.515625 C 2.117188 -5.515625 2.050781 -5.515625 2 -5.515625 C 1.851562 -5.515625 1.703125 -5.5 1.546875 -5.46875 C 1.398438 -5.445312 1.257812 -5.40625 1.125 -5.34375 C 1 -5.289062 0.894531 -5.21875 0.8125 -5.125 C 0.726562 -5.03125 0.6875 -4.910156 0.6875 -4.765625 C 0.6875 -4.691406 0.695312 -4.632812 0.71875 -4.59375 C 0.75 -4.550781 0.785156 -4.523438 0.828125 -4.515625 C 0.867188 -4.492188 0.914062 -4.488281 0.96875 -4.5 C 1.007812 -4.5 1.039062 -4.503906 1.0625 -4.515625 C 1.09375 -4.523438 1.117188 -4.535156 1.140625 -4.546875 C 1.171875 -4.554688 1.195312 -4.566406 1.21875 -4.578125 C 1.25 -4.585938 1.28125 -4.59375 1.3125 -4.59375 C 1.320312 -4.59375 1.34375 -4.582031 1.375 -4.5625 C 1.40625 -4.550781 1.429688 -4.53125 1.453125 -4.5 C 1.484375 -4.476562 1.503906 -4.445312 1.515625 -4.40625 C 1.535156 -4.363281 1.546875 -4.316406 1.546875 -4.265625 C 1.546875 -4.160156 1.523438 -4.070312 1.484375 -4 C 1.453125 -3.9375 1.40625 -3.878906 1.34375 -3.828125 C 1.289062 -3.785156 1.226562 -3.753906 1.15625 -3.734375 C 1.082031 -3.710938 1.015625 -3.703125 0.953125 -3.703125 C 0.828125 -3.703125 0.710938 -3.722656 0.609375 -3.765625 C 0.515625 -3.816406 0.429688 -3.878906 0.359375 -3.953125 C 0.296875 -4.023438 0.242188 -4.109375 0.203125 -4.203125 C 0.171875 -4.296875 0.15625 -4.382812 0.15625 -4.46875 C 0.15625 -4.65625 0.1875 -4.816406 0.25 -4.953125 C 0.320312 -5.097656 0.414062 -5.21875 0.53125 -5.3125 C 0.65625 -5.414062 0.789062 -5.5 0.9375 -5.5625 C 1.09375 -5.625 1.253906 -5.675781 1.421875 -5.71875 C 1.585938 -5.757812 1.757812 -5.785156 1.9375 -5.796875 C 2.113281 -5.816406 2.28125 -5.828125 2.4375 -5.828125 C 2.75 -5.828125 3.015625 -5.8125 3.234375 -5.78125 C 3.460938 -5.757812 3.644531 -5.722656 3.78125 -5.671875 C 3.925781 -5.628906 4.03125 -5.570312 4.09375 -5.5 C 4.164062 -5.4375 4.203125 -5.367188 4.203125 -5.296875 C 4.203125 -5.234375 4.195312 -5.171875 4.1875 -5.109375 C 4.175781 -5.054688 4.15625 -4.988281 4.125 -4.90625 C 4.09375 -4.832031 4.046875 -4.742188 3.984375 -4.640625 C 3.929688 -4.546875 3.863281 -4.429688 3.78125 -4.296875 L 1.765625 -1.03125 C 1.710938 -0.945312 1.664062 -0.863281 1.625 -0.78125 C 1.582031 -0.707031 1.5625 -0.632812 1.5625 -0.5625 C 1.5625 -0.507812 1.582031 -0.460938 1.625 -0.421875 C 1.664062 -0.390625 1.722656 -0.359375 1.796875 -0.328125 C 1.878906 -0.304688 1.984375 -0.289062 2.109375 -0.28125 C 2.242188 -0.28125 2.40625 -0.28125 2.59375 -0.28125 Z M 2.59375 -0.28125 "/></g></g></g><g fill="#ffffff" fill-opacity="1"><g transform="translate(14.651219, 28.572992)"><g><path d="M 1.09375 -2.953125 C 1.09375 -3.003906 1.070312 -3.039062 1.03125 -3.0625 C 1 -3.082031 0.960938 -3.09375 0.921875 -3.09375 C 0.835938 -3.09375 0.753906 -3.082031 0.671875 -3.0625 C 0.597656 -3.039062 0.53125 -3.003906 0.46875 -2.953125 C 0.40625 -2.910156 0.351562 -2.859375 0.3125 -2.796875 C 0.28125 -2.742188 0.265625 -2.6875 0.265625 -2.625 C 0.265625 -2.570312 0.269531 -2.53125 0.28125 -2.5 C 0.289062 -2.46875 0.300781 -2.445312 0.3125 -2.4375 C 0.332031 -2.425781 0.347656 -2.414062 0.359375 -2.40625 C 0.378906 -2.40625 0.394531 -2.40625 0.40625 -2.40625 C 0.445312 -2.40625 0.476562 -2.410156 0.5 -2.421875 C 0.519531 -2.429688 0.539062 -2.441406 0.5625 -2.453125 C 0.582031 -2.472656 0.597656 -2.488281 0.609375 -2.5 C 0.628906 -2.519531 0.648438 -2.53125 0.671875 -2.53125 C 0.691406 -2.53125 0.710938 -2.523438 0.734375 -2.515625 C 0.753906 -2.503906 0.769531 -2.488281 0.78125 -2.46875 C 0.800781 -2.457031 0.816406 -2.4375 0.828125 -2.40625 C 0.847656 -2.375 0.859375 -2.335938 0.859375 -2.296875 C 0.859375 -2.234375 0.84375 -2.179688 0.8125 -2.140625 C 0.789062 -2.097656 0.757812 -2.0625 0.71875 -2.03125 C 0.6875 -2 0.644531 -1.976562 0.59375 -1.96875 C 0.550781 -1.957031 0.507812 -1.953125 0.46875 -1.953125 C 0.394531 -1.953125 0.328125 -1.960938 0.265625 -1.984375 C 0.210938 -2.003906 0.164062 -2.035156 0.125 -2.078125 C 0.0820312 -2.128906 0.0507812 -2.179688 0.03125 -2.234375 C 0.0078125 -2.296875 0 -2.359375 0 -2.421875 C 0 -2.609375 0.046875 -2.757812 0.140625 -2.875 C 0.234375 -3 0.359375 -3.097656 0.515625 -3.171875 C 0.679688 -3.242188 0.875 -3.289062 1.09375 -3.3125 C 1.3125 -3.34375 1.539062 -3.359375 1.78125 -3.359375 C 2.0625 -3.359375 2.3125 -3.328125 2.53125 -3.265625 C 2.757812 -3.210938 2.953125 -3.125 3.109375 -3 C 3.273438 -2.875 3.398438 -2.707031 3.484375 -2.5 C 3.566406 -2.300781 3.609375 -2.054688 3.609375 -1.765625 C 3.609375 -1.472656 3.5625 -1.210938 3.46875 -0.984375 C 3.382812 -0.753906 3.257812 -0.5625 3.09375 -0.40625 C 2.9375 -0.257812 2.75 -0.144531 2.53125 -0.0625 C 2.320312 0.0078125 2.09375 0.046875 1.84375 0.046875 C 1.6875 0.046875 1.554688 0.0351562 1.453125 0.015625 C 1.359375 0.00390625 1.28125 -0.015625 1.21875 -0.046875 C 1.164062 -0.0859375 1.128906 -0.140625 1.109375 -0.203125 C 1.097656 -0.265625 1.09375 -0.347656 1.09375 -0.453125 Z M 1.828125 -0.421875 C 1.828125 -0.335938 1.847656 -0.273438 1.890625 -0.234375 C 1.929688 -0.203125 1.988281 -0.1875 2.0625 -0.1875 C 2.175781 -0.1875 2.28125 -0.210938 2.375 -0.265625 C 2.46875 -0.316406 2.546875 -0.398438 2.609375 -0.515625 C 2.679688 -0.640625 2.734375 -0.800781 2.765625 -1 C 2.804688 -1.195312 2.828125 -1.445312 2.828125 -1.75 C 2.828125 -1.957031 2.816406 -2.132812 2.796875 -2.28125 C 2.773438 -2.425781 2.742188 -2.550781 2.703125 -2.65625 C 2.660156 -2.757812 2.613281 -2.84375 2.5625 -2.90625 C 2.507812 -2.976562 2.457031 -3.03125 2.40625 -3.0625 C 2.351562 -3.101562 2.300781 -3.128906 2.25 -3.140625 C 2.195312 -3.148438 2.148438 -3.15625 2.109375 -3.15625 C 2.015625 -3.15625 1.941406 -3.132812 1.890625 -3.09375 C 1.847656 -3.050781 1.828125 -2.972656 1.828125 -2.859375 Z M 1.828125 -0.421875 "/></g></g></g><g fill="#ffffff" fill-opacity="1"><g transform="translate(18.453302, 28.572992)"><g><path d="M 0.859375 -1.03125 C 0.859375 -0.976562 0.863281 -0.925781 0.875 -0.875 C 0.894531 -0.820312 0.914062 -0.765625 0.9375 -0.703125 C 0.96875 -0.648438 1 -0.597656 1.03125 -0.546875 C 1.070312 -0.492188 1.117188 -0.445312 1.171875 -0.40625 C 1.222656 -0.363281 1.28125 -0.328125 1.34375 -0.296875 C 1.40625 -0.273438 1.476562 -0.265625 1.5625 -0.265625 C 1.613281 -0.265625 1.660156 -0.269531 1.703125 -0.28125 C 1.742188 -0.300781 1.785156 -0.320312 1.828125 -0.34375 C 1.867188 -0.363281 1.90625 -0.382812 1.9375 -0.40625 C 1.976562 -0.4375 2.015625 -0.46875 2.046875 -0.5 L 2.109375 -0.453125 C 2.066406 -0.398438 2.019531 -0.34375 1.96875 -0.28125 C 1.914062 -0.226562 1.847656 -0.175781 1.765625 -0.125 C 1.691406 -0.0820312 1.601562 -0.046875 1.5 -0.015625 C 1.40625 0.015625 1.289062 0.03125 1.15625 0.03125 C 1.03125 0.03125 0.90625 0.0078125 0.78125 -0.03125 C 0.65625 -0.0820312 0.546875 -0.15625 0.453125 -0.25 C 0.359375 -0.34375 0.28125 -0.457031 0.21875 -0.59375 C 0.164062 -0.738281 0.140625 -0.90625 0.140625 -1.09375 C 0.140625 -1.226562 0.15625 -1.351562 0.1875 -1.46875 C 0.21875 -1.582031 0.265625 -1.6875 0.328125 -1.78125 C 0.390625 -1.875 0.457031 -1.953125 0.53125 -2.015625 C 0.613281 -2.085938 0.695312 -2.144531 0.78125 -2.1875 C 0.863281 -2.238281 0.953125 -2.273438 1.046875 -2.296875 C 1.140625 -2.316406 1.226562 -2.328125 1.3125 -2.328125 C 1.414062 -2.328125 1.507812 -2.3125 1.59375 -2.28125 C 1.675781 -2.257812 1.742188 -2.226562 1.796875 -2.1875 C 1.859375 -2.15625 1.898438 -2.109375 1.921875 -2.046875 C 1.953125 -1.992188 1.96875 -1.941406 1.96875 -1.890625 C 1.96875 -1.816406 1.945312 -1.75 1.90625 -1.6875 C 1.863281 -1.632812 1.8125 -1.585938 1.75 -1.546875 Z M 1.3125 -1.484375 C 1.332031 -1.492188 1.347656 -1.503906 1.359375 -1.515625 C 1.367188 -1.523438 1.378906 -1.535156 1.390625 -1.546875 C 1.398438 -1.566406 1.40625 -1.585938 1.40625 -1.609375 C 1.40625 -1.640625 1.40625 -1.671875 1.40625 -1.703125 C 1.40625 -1.742188 1.398438 -1.785156 1.390625 -1.828125 C 1.390625 -1.867188 1.378906 -1.910156 1.359375 -1.953125 C 1.335938 -1.992188 1.3125 -2.023438 1.28125 -2.046875 C 1.25 -2.078125 1.210938 -2.09375 1.171875 -2.09375 C 1.117188 -2.09375 1.070312 -2.078125 1.03125 -2.046875 C 1 -2.015625 0.96875 -1.972656 0.9375 -1.921875 C 0.914062 -1.867188 0.894531 -1.8125 0.875 -1.75 C 0.863281 -1.6875 0.851562 -1.617188 0.84375 -1.546875 C 0.84375 -1.484375 0.84375 -1.421875 0.84375 -1.359375 C 0.84375 -1.304688 0.84375 -1.257812 0.84375 -1.21875 Z M 1.3125 -1.484375 "/></g></g></g><g fill="#ffffff" fill-opacity="1"><g transform="translate(20.581033, 28.572992)"><g><path d="M 1 -2.15625 C 0.96875 -2.15625 0.9375 -2.148438 0.90625 -2.140625 C 0.875 -2.128906 0.84375 -2.113281 0.8125 -2.09375 C 0.789062 -2.070312 0.773438 -2.046875 0.765625 -2.015625 C 0.753906 -1.984375 0.75 -1.945312 0.75 -1.90625 C 0.75 -1.84375 0.769531 -1.78125 0.8125 -1.71875 C 0.851562 -1.664062 0.90625 -1.609375 0.96875 -1.546875 C 1.03125 -1.484375 1.097656 -1.421875 1.171875 -1.359375 C 1.242188 -1.296875 1.3125 -1.222656 1.375 -1.140625 C 1.4375 -1.066406 1.488281 -0.988281 1.53125 -0.90625 C 1.582031 -0.820312 1.609375 -0.734375 1.609375 -0.640625 C 1.609375 -0.535156 1.585938 -0.441406 1.546875 -0.359375 C 1.515625 -0.273438 1.460938 -0.203125 1.390625 -0.140625 C 1.328125 -0.0859375 1.242188 -0.046875 1.140625 -0.015625 C 1.046875 0.015625 0.941406 0.03125 0.828125 0.03125 C 0.722656 0.03125 0.628906 0.0195312 0.546875 0 C 0.460938 -0.03125 0.382812 -0.0664062 0.3125 -0.109375 C 0.25 -0.148438 0.191406 -0.195312 0.140625 -0.25 C 0.0976562 -0.300781 0.0664062 -0.34375 0.046875 -0.375 L 0.125 -0.4375 C 0.144531 -0.414062 0.171875 -0.390625 0.203125 -0.359375 C 0.234375 -0.335938 0.265625 -0.316406 0.296875 -0.296875 C 0.335938 -0.273438 0.378906 -0.253906 0.421875 -0.234375 C 0.460938 -0.222656 0.503906 -0.21875 0.546875 -0.21875 C 0.648438 -0.21875 0.734375 -0.242188 0.796875 -0.296875 C 0.867188 -0.347656 0.90625 -0.421875 0.90625 -0.515625 C 0.90625 -0.578125 0.882812 -0.640625 0.84375 -0.703125 C 0.8125 -0.765625 0.765625 -0.828125 0.703125 -0.890625 C 0.648438 -0.953125 0.59375 -1.015625 0.53125 -1.078125 C 0.46875 -1.148438 0.40625 -1.222656 0.34375 -1.296875 C 0.289062 -1.367188 0.242188 -1.441406 0.203125 -1.515625 C 0.160156 -1.597656 0.140625 -1.679688 0.140625 -1.765625 C 0.140625 -1.859375 0.160156 -1.941406 0.203125 -2.015625 C 0.242188 -2.085938 0.296875 -2.144531 0.359375 -2.1875 C 0.421875 -2.238281 0.492188 -2.273438 0.578125 -2.296875 C 0.660156 -2.316406 0.742188 -2.328125 0.828125 -2.328125 C 0.929688 -2.328125 1.019531 -2.316406 1.09375 -2.296875 C 1.175781 -2.285156 1.25 -2.257812 1.3125 -2.21875 C 1.375 -2.1875 1.421875 -2.140625 1.453125 -2.078125 C 1.484375 -2.023438 1.5 -1.960938 1.5 -1.890625 C 1.5 -1.828125 1.476562 -1.773438 1.4375 -1.734375 C 1.40625 -1.691406 1.351562 -1.671875 1.28125 -1.671875 C 1.21875 -1.671875 1.171875 -1.6875 1.140625 -1.71875 C 1.109375 -1.75 1.09375 -1.785156 1.09375 -1.828125 C 1.09375 -1.859375 1.097656 -1.882812 1.109375 -1.90625 C 1.128906 -1.925781 1.144531 -1.941406 1.15625 -1.953125 C 1.175781 -1.960938 1.191406 -1.96875 1.203125 -1.96875 C 1.222656 -1.976562 1.234375 -1.992188 1.234375 -2.015625 C 1.234375 -2.054688 1.210938 -2.085938 1.171875 -2.109375 C 1.128906 -2.140625 1.070312 -2.15625 1 -2.15625 Z M 1 -2.15625 "/></g></g></g><g fill="#ffffff" fill-opacity="1"><g transform="translate(22.322719, 28.572992)"><g><path d="M 0.859375 -1.03125 C 0.859375 -0.976562 0.863281 -0.925781 0.875 -0.875 C 0.894531 -0.820312 0.914062 -0.765625 0.9375 -0.703125 C 0.96875 -0.648438 1 -0.597656 1.03125 -0.546875 C 1.070312 -0.492188 1.117188 -0.445312 1.171875 -0.40625 C 1.222656 -0.363281 1.28125 -0.328125 1.34375 -0.296875 C 1.40625 -0.273438 1.476562 -0.265625 1.5625 -0.265625 C 1.613281 -0.265625 1.660156 -0.269531 1.703125 -0.28125 C 1.742188 -0.300781 1.785156 -0.320312 1.828125 -0.34375 C 1.867188 -0.363281 1.90625 -0.382812 1.9375 -0.40625 C 1.976562 -0.4375 2.015625 -0.46875 2.046875 -0.5 L 2.109375 -0.453125 C 2.066406 -0.398438 2.019531 -0.34375 1.96875 -0.28125 C 1.914062 -0.226562 1.847656 -0.175781 1.765625 -0.125 C 1.691406 -0.0820312 1.601562 -0.046875 1.5 -0.015625 C 1.40625 0.015625 1.289062 0.03125 1.15625 0.03125 C 1.03125 0.03125 0.90625 0.0078125 0.78125 -0.03125 C 0.65625 -0.0820312 0.546875 -0.15625 0.453125 -0.25 C 0.359375 -0.34375 0.28125 -0.457031 0.21875 -0.59375 C 0.164062 -0.738281 0.140625 -0.90625 0.140625 -1.09375 C 0.140625 -1.226562 0.15625 -1.351562 0.1875 -1.46875 C 0.21875 -1.582031 0.265625 -1.6875 0.328125 -1.78125 C 0.390625 -1.875 0.457031 -1.953125 0.53125 -2.015625 C 0.613281 -2.085938 0.695312 -2.144531 0.78125 -2.1875 C 0.863281 -2.238281 0.953125 -2.273438 1.046875 -2.296875 C 1.140625 -2.316406 1.226562 -2.328125 1.3125 -2.328125 C 1.414062 -2.328125 1.507812 -2.3125 1.59375 -2.28125 C 1.675781 -2.257812 1.742188 -2.226562 1.796875 -2.1875 C 1.859375 -2.15625 1.898438 -2.109375 1.921875 -2.046875 C 1.953125 -1.992188 1.96875 -1.941406 1.96875 -1.890625 C 1.96875 -1.816406 1.945312 -1.75 1.90625 -1.6875 C 1.863281 -1.632812 1.8125 -1.585938 1.75 -1.546875 Z M 1.3125 -1.484375 C 1.332031 -1.492188 1.347656 -1.503906 1.359375 -1.515625 C 1.367188 -1.523438 1.378906 -1.535156 1.390625 -1.546875 C 1.398438 -1.566406 1.40625 -1.585938 1.40625 -1.609375 C 1.40625 -1.640625 1.40625 -1.671875 1.40625 -1.703125 C 1.40625 -1.742188 1.398438 -1.785156 1.390625 -1.828125 C 1.390625 -1.867188 1.378906 -1.910156 1.359375 -1.953125 C 1.335938 -1.992188 1.3125 -2.023438 1.28125 -2.046875 C 1.25 -2.078125 1.210938 -2.09375 1.171875 -2.09375 C 1.117188 -2.09375 1.070312 -2.078125 1.03125 -2.046875 C 1 -2.015625 0.96875 -1.972656 0.9375 -1.921875 C 0.914062 -1.867188 0.894531 -1.8125 0.875 -1.75 C 0.863281 -1.6875 0.851562 -1.617188 0.84375 -1.546875 C 0.84375 -1.484375 0.84375 -1.421875 0.84375 -1.359375 C 0.84375 -1.304688 0.84375 -1.257812 0.84375 -1.21875 Z M 1.3125 -1.484375 "/></g></g></g><g fill="#ffffff" fill-opacity="1"><g transform="translate(24.450449, 28.572992)"><g><path d="M 1 -1.859375 C 1.050781 -1.941406 1.109375 -2.019531 1.171875 -2.09375 C 1.203125 -2.125 1.234375 -2.148438 1.265625 -2.171875 C 1.296875 -2.203125 1.328125 -2.226562 1.359375 -2.25 C 1.390625 -2.269531 1.421875 -2.285156 1.453125 -2.296875 C 1.492188 -2.316406 1.535156 -2.328125 1.578125 -2.328125 C 1.648438 -2.328125 1.707031 -2.300781 1.75 -2.25 C 1.789062 -2.207031 1.8125 -2.144531 1.8125 -2.0625 C 1.8125 -2.007812 1.804688 -1.957031 1.796875 -1.90625 C 1.796875 -1.863281 1.785156 -1.8125 1.765625 -1.75 L 1.703125 -1.75 C 1.691406 -1.789062 1.664062 -1.828125 1.625 -1.859375 C 1.59375 -1.890625 1.546875 -1.90625 1.484375 -1.90625 C 1.441406 -1.90625 1.394531 -1.894531 1.34375 -1.875 C 1.300781 -1.863281 1.257812 -1.84375 1.21875 -1.8125 C 1.175781 -1.789062 1.132812 -1.765625 1.09375 -1.734375 C 1.0625 -1.703125 1.03125 -1.675781 1 -1.65625 L 1 -0.203125 C 1 -0.179688 0.992188 -0.15625 0.984375 -0.125 C 0.984375 -0.101562 0.96875 -0.078125 0.9375 -0.046875 C 0.914062 -0.0234375 0.878906 -0.0078125 0.828125 0 C 0.785156 0.0195312 0.726562 0.03125 0.65625 0.03125 C 0.570312 0.03125 0.503906 0.0195312 0.453125 0 C 0.410156 -0.0078125 0.378906 -0.0234375 0.359375 -0.046875 C 0.335938 -0.078125 0.320312 -0.101562 0.3125 -0.125 C 0.3125 -0.15625 0.3125 -0.179688 0.3125 -0.203125 L 0.3125 -1.9375 C 0.3125 -1.976562 0.300781 -2.015625 0.28125 -2.046875 C 0.257812 -2.078125 0.222656 -2.09375 0.171875 -2.09375 C 0.148438 -2.09375 0.128906 -2.085938 0.109375 -2.078125 C 0.0859375 -2.066406 0.0664062 -2.054688 0.046875 -2.046875 L 0 -2.09375 C 0.0390625 -2.125 0.0820312 -2.148438 0.125 -2.171875 C 0.164062 -2.203125 0.207031 -2.226562 0.25 -2.25 C 0.300781 -2.269531 0.351562 -2.285156 0.40625 -2.296875 C 0.46875 -2.316406 0.53125 -2.328125 0.59375 -2.328125 C 0.65625 -2.328125 0.707031 -2.316406 0.75 -2.296875 C 0.800781 -2.285156 0.84375 -2.265625 0.875 -2.234375 C 0.90625 -2.203125 0.925781 -2.171875 0.9375 -2.140625 C 0.957031 -2.109375 0.96875 -2.070312 0.96875 -2.03125 C 0.976562 -2 0.984375 -1.96875 0.984375 -1.9375 C 0.992188 -1.90625 1 -1.878906 1 -1.859375 Z M 1 -1.859375 "/></g></g></g><g fill="#ffffff" fill-opacity="1"><g transform="translate(26.27518, 28.572992)"><g><path d="M 1 -2.140625 L 1 -0.484375 C 1 -0.398438 1.015625 -0.34375 1.046875 -0.3125 C 1.078125 -0.28125 1.117188 -0.265625 1.171875 -0.265625 C 1.210938 -0.265625 1.25 -0.273438 1.28125 -0.296875 C 1.3125 -0.316406 1.335938 -0.34375 1.359375 -0.375 C 1.390625 -0.40625 1.414062 -0.441406 1.4375 -0.484375 L 1.5 -0.453125 C 1.476562 -0.410156 1.453125 -0.359375 1.421875 -0.296875 C 1.390625 -0.242188 1.347656 -0.191406 1.296875 -0.140625 C 1.242188 -0.0859375 1.179688 -0.046875 1.109375 -0.015625 C 1.035156 0.015625 0.9375 0.03125 0.8125 0.03125 C 0.75 0.03125 0.6875 0.0195312 0.625 0 C 0.5625 -0.0195312 0.503906 -0.0507812 0.453125 -0.09375 C 0.410156 -0.132812 0.375 -0.1875 0.34375 -0.25 C 0.320312 -0.3125 0.3125 -0.382812 0.3125 -0.46875 L 0.3125 -2.140625 L 0.0625 -2.140625 L 0.0625 -2.296875 C 0.101562 -2.296875 0.160156 -2.304688 0.234375 -2.328125 C 0.304688 -2.347656 0.378906 -2.382812 0.453125 -2.4375 C 0.535156 -2.488281 0.609375 -2.554688 0.671875 -2.640625 C 0.742188 -2.722656 0.796875 -2.828125 0.828125 -2.953125 L 1 -2.953125 L 1 -2.296875 L 1.375 -2.296875 C 1.488281 -2.296875 1.546875 -2.316406 1.546875 -2.359375 C 1.546875 -2.367188 1.535156 -2.375 1.515625 -2.375 C 1.503906 -2.382812 1.488281 -2.394531 1.46875 -2.40625 C 1.457031 -2.414062 1.441406 -2.425781 1.421875 -2.4375 C 1.410156 -2.457031 1.40625 -2.484375 1.40625 -2.515625 C 1.40625 -2.554688 1.414062 -2.585938 1.4375 -2.609375 C 1.46875 -2.640625 1.503906 -2.65625 1.546875 -2.65625 C 1.578125 -2.65625 1.601562 -2.648438 1.625 -2.640625 C 1.644531 -2.628906 1.660156 -2.613281 1.671875 -2.59375 C 1.679688 -2.570312 1.6875 -2.546875 1.6875 -2.515625 C 1.695312 -2.492188 1.703125 -2.472656 1.703125 -2.453125 C 1.703125 -2.359375 1.675781 -2.28125 1.625 -2.21875 C 1.570312 -2.164062 1.484375 -2.140625 1.359375 -2.140625 Z M 1 -2.140625 "/></g></g></g><g fill="#ffffff" fill-opacity="1"><g transform="translate(15.56815, 33.076222)"><g><path d="M 1.09375 -2.953125 C 1.09375 -3.003906 1.070312 -3.039062 1.03125 -3.0625 C 1 -3.082031 0.960938 -3.09375 0.921875 -3.09375 C 0.835938 -3.09375 0.753906 -3.082031 0.671875 -3.0625 C 0.597656 -3.039062 0.53125 -3.003906 0.46875 -2.953125 C 0.40625 -2.910156 0.351562 -2.859375 0.3125 -2.796875 C 0.28125 -2.742188 0.265625 -2.6875 0.265625 -2.625 C 0.265625 -2.570312 0.269531 -2.53125 0.28125 -2.5 C 0.289062 -2.46875 0.300781 -2.445312 0.3125 -2.4375 C 0.332031 -2.425781 0.347656 -2.414062 0.359375 -2.40625 C 0.378906 -2.40625 0.394531 -2.40625 0.40625 -2.40625 C 0.445312 -2.40625 0.476562 -2.410156 0.5 -2.421875 C 0.519531 -2.429688 0.539062 -2.441406 0.5625 -2.453125 C 0.582031 -2.472656 0.597656 -2.488281 0.609375 -2.5 C 0.628906 -2.519531 0.648438 -2.53125 0.671875 -2.53125 C 0.691406 -2.53125 0.710938 -2.523438 0.734375 -2.515625 C 0.753906 -2.503906 0.769531 -2.488281 0.78125 -2.46875 C 0.800781 -2.457031 0.816406 -2.4375 0.828125 -2.40625 C 0.847656 -2.375 0.859375 -2.335938 0.859375 -2.296875 C 0.859375 -2.234375 0.84375 -2.179688 0.8125 -2.140625 C 0.789062 -2.097656 0.757812 -2.0625 0.71875 -2.03125 C 0.6875 -2 0.644531 -1.976562 0.59375 -1.96875 C 0.550781 -1.957031 0.507812 -1.953125 0.46875 -1.953125 C 0.394531 -1.953125 0.328125 -1.960938 0.265625 -1.984375 C 0.210938 -2.003906 0.164062 -2.035156 0.125 -2.078125 C 0.0820312 -2.128906 0.0507812 -2.179688 0.03125 -2.234375 C 0.0078125 -2.296875 0 -2.359375 0 -2.421875 C 0 -2.609375 0.046875 -2.757812 0.140625 -2.875 C 0.234375 -3 0.359375 -3.097656 0.515625 -3.171875 C 0.679688 -3.242188 0.875 -3.289062 1.09375 -3.3125 C 1.3125 -3.34375 1.539062 -3.359375 1.78125 -3.359375 C 2.0625 -3.359375 2.3125 -3.328125 2.53125 -3.265625 C 2.757812 -3.210938 2.953125 -3.125 3.109375 -3 C 3.273438 -2.875 3.398438 -2.707031 3.484375 -2.5 C 3.566406 -2.300781 3.609375 -2.054688 3.609375 -1.765625 C 3.609375 -1.472656 3.5625 -1.210938 3.46875 -0.984375 C 3.382812 -0.753906 3.257812 -0.5625 3.09375 -0.40625 C 2.9375 -0.257812 2.75 -0.144531 2.53125 -0.0625 C 2.320312 0.0078125 2.09375 0.046875 1.84375 0.046875 C 1.6875 0.046875 1.554688 0.0351562 1.453125 0.015625 C 1.359375 0.00390625 1.28125 -0.015625 1.21875 -0.046875 C 1.164062 -0.0859375 1.128906 -0.140625 1.109375 -0.203125 C 1.097656 -0.265625 1.09375 -0.347656 1.09375 -0.453125 Z M 1.828125 -0.421875 C 1.828125 -0.335938 1.847656 -0.273438 1.890625 -0.234375 C 1.929688 -0.203125 1.988281 -0.1875 2.0625 -0.1875 C 2.175781 -0.1875 2.28125 -0.210938 2.375 -0.265625 C 2.46875 -0.316406 2.546875 -0.398438 2.609375 -0.515625 C 2.679688 -0.640625 2.734375 -0.800781 2.765625 -1 C 2.804688 -1.195312 2.828125 -1.445312 2.828125 -1.75 C 2.828125 -1.957031 2.816406 -2.132812 2.796875 -2.28125 C 2.773438 -2.425781 2.742188 -2.550781 2.703125 -2.65625 C 2.660156 -2.757812 2.613281 -2.84375 2.5625 -2.90625 C 2.507812 -2.976562 2.457031 -3.03125 2.40625 -3.0625 C 2.351562 -3.101562 2.300781 -3.128906 2.25 -3.140625 C 2.195312 -3.148438 2.148438 -3.15625 2.109375 -3.15625 C 2.015625 -3.15625 1.941406 -3.132812 1.890625 -3.09375 C 1.847656 -3.050781 1.828125 -2.972656 1.828125 -2.859375 Z M 1.828125 -0.421875 "/></g></g></g><g fill="#ffffff" fill-opacity="1"><g transform="translate(19.370234, 33.076222)"><g><path d="M 0.859375 -1.03125 C 0.859375 -0.976562 0.863281 -0.925781 0.875 -0.875 C 0.894531 -0.820312 0.914062 -0.765625 0.9375 -0.703125 C 0.96875 -0.648438 1 -0.597656 1.03125 -0.546875 C 1.070312 -0.492188 1.117188 -0.445312 1.171875 -0.40625 C 1.222656 -0.363281 1.28125 -0.328125 1.34375 -0.296875 C 1.40625 -0.273438 1.476562 -0.265625 1.5625 -0.265625 C 1.613281 -0.265625 1.660156 -0.269531 1.703125 -0.28125 C 1.742188 -0.300781 1.785156 -0.320312 1.828125 -0.34375 C 1.867188 -0.363281 1.90625 -0.382812 1.9375 -0.40625 C 1.976562 -0.4375 2.015625 -0.46875 2.046875 -0.5 L 2.109375 -0.453125 C 2.066406 -0.398438 2.019531 -0.34375 1.96875 -0.28125 C 1.914062 -0.226562 1.847656 -0.175781 1.765625 -0.125 C 1.691406 -0.0820312 1.601562 -0.046875 1.5 -0.015625 C 1.40625 0.015625 1.289062 0.03125 1.15625 0.03125 C 1.03125 0.03125 0.90625 0.0078125 0.78125 -0.03125 C 0.65625 -0.0820312 0.546875 -0.15625 0.453125 -0.25 C 0.359375 -0.34375 0.28125 -0.457031 0.21875 -0.59375 C 0.164062 -0.738281 0.140625 -0.90625 0.140625 -1.09375 C 0.140625 -1.226562 0.15625 -1.351562 0.1875 -1.46875 C 0.21875 -1.582031 0.265625 -1.6875 0.328125 -1.78125 C 0.390625 -1.875 0.457031 -1.953125 0.53125 -2.015625 C 0.613281 -2.085938 0.695312 -2.144531 0.78125 -2.1875 C 0.863281 -2.238281 0.953125 -2.273438 1.046875 -2.296875 C 1.140625 -2.316406 1.226562 -2.328125 1.3125 -2.328125 C 1.414062 -2.328125 1.507812 -2.3125 1.59375 -2.28125 C 1.675781 -2.257812 1.742188 -2.226562 1.796875 -2.1875 C 1.859375 -2.15625 1.898438 -2.109375 1.921875 -2.046875 C 1.953125 -1.992188 1.96875 -1.941406 1.96875 -1.890625 C 1.96875 -1.816406 1.945312 -1.75 1.90625 -1.6875 C 1.863281 -1.632812 1.8125 -1.585938 1.75 -1.546875 Z M 1.3125 -1.484375 C 1.332031 -1.492188 1.347656 -1.503906 1.359375 -1.515625 C 1.367188 -1.523438 1.378906 -1.535156 1.390625 -1.546875 C 1.398438 -1.566406 1.40625 -1.585938 1.40625 -1.609375 C 1.40625 -1.640625 1.40625 -1.671875 1.40625 -1.703125 C 1.40625 -1.742188 1.398438 -1.785156 1.390625 -1.828125 C 1.390625 -1.867188 1.378906 -1.910156 1.359375 -1.953125 C 1.335938 -1.992188 1.3125 -2.023438 1.28125 -2.046875 C 1.25 -2.078125 1.210938 -2.09375 1.171875 -2.09375 C 1.117188 -2.09375 1.070312 -2.078125 1.03125 -2.046875 C 1 -2.015625 0.96875 -1.972656 0.9375 -1.921875 C 0.914062 -1.867188 0.894531 -1.8125 0.875 -1.75 C 0.863281 -1.6875 0.851562 -1.617188 0.84375 -1.546875 C 0.84375 -1.484375 0.84375 -1.421875 0.84375 -1.359375 C 0.84375 -1.304688 0.84375 -1.257812 0.84375 -1.21875 Z M 1.3125 -1.484375 "/></g></g></g><g fill="#ffffff" fill-opacity="1"><g transform="translate(21.497964, 33.076222)"><g><path d="M 1 -2.15625 C 0.96875 -2.15625 0.9375 -2.148438 0.90625 -2.140625 C 0.875 -2.128906 0.84375 -2.113281 0.8125 -2.09375 C 0.789062 -2.070312 0.773438 -2.046875 0.765625 -2.015625 C 0.753906 -1.984375 0.75 -1.945312 0.75 -1.90625 C 0.75 -1.84375 0.769531 -1.78125 0.8125 -1.71875 C 0.851562 -1.664062 0.90625 -1.609375 0.96875 -1.546875 C 1.03125 -1.484375 1.097656 -1.421875 1.171875 -1.359375 C 1.242188 -1.296875 1.3125 -1.222656 1.375 -1.140625 C 1.4375 -1.066406 1.488281 -0.988281 1.53125 -0.90625 C 1.582031 -0.820312 1.609375 -0.734375 1.609375 -0.640625 C 1.609375 -0.535156 1.585938 -0.441406 1.546875 -0.359375 C 1.515625 -0.273438 1.460938 -0.203125 1.390625 -0.140625 C 1.328125 -0.0859375 1.242188 -0.046875 1.140625 -0.015625 C 1.046875 0.015625 0.941406 0.03125 0.828125 0.03125 C 0.722656 0.03125 0.628906 0.0195312 0.546875 0 C 0.460938 -0.03125 0.382812 -0.0664062 0.3125 -0.109375 C 0.25 -0.148438 0.191406 -0.195312 0.140625 -0.25 C 0.0976562 -0.300781 0.0664062 -0.34375 0.046875 -0.375 L 0.125 -0.4375 C 0.144531 -0.414062 0.171875 -0.390625 0.203125 -0.359375 C 0.234375 -0.335938 0.265625 -0.316406 0.296875 -0.296875 C 0.335938 -0.273438 0.378906 -0.253906 0.421875 -0.234375 C 0.460938 -0.222656 0.503906 -0.21875 0.546875 -0.21875 C 0.648438 -0.21875 0.734375 -0.242188 0.796875 -0.296875 C 0.867188 -0.347656 0.90625 -0.421875 0.90625 -0.515625 C 0.90625 -0.578125 0.882812 -0.640625 0.84375 -0.703125 C 0.8125 -0.765625 0.765625 -0.828125 0.703125 -0.890625 C 0.648438 -0.953125 0.59375 -1.015625 0.53125 -1.078125 C 0.46875 -1.148438 0.40625 -1.222656 0.34375 -1.296875 C 0.289062 -1.367188 0.242188 -1.441406 0.203125 -1.515625 C 0.160156 -1.597656 0.140625 -1.679688 0.140625 -1.765625 C 0.140625 -1.859375 0.160156 -1.941406 0.203125 -2.015625 C 0.242188 -2.085938 0.296875 -2.144531 0.359375 -2.1875 C 0.421875 -2.238281 0.492188 -2.273438 0.578125 -2.296875 C 0.660156 -2.316406 0.742188 -2.328125 0.828125 -2.328125 C 0.929688 -2.328125 1.019531 -2.316406 1.09375 -2.296875 C 1.175781 -2.285156 1.25 -2.257812 1.3125 -2.21875 C 1.375 -2.1875 1.421875 -2.140625 1.453125 -2.078125 C 1.484375 -2.023438 1.5 -1.960938 1.5 -1.890625 C 1.5 -1.828125 1.476562 -1.773438 1.4375 -1.734375 C 1.40625 -1.691406 1.351562 -1.671875 1.28125 -1.671875 C 1.21875 -1.671875 1.171875 -1.6875 1.140625 -1.71875 C 1.109375 -1.75 1.09375 -1.785156 1.09375 -1.828125 C 1.09375 -1.859375 1.097656 -1.882812 1.109375 -1.90625 C 1.128906 -1.925781 1.144531 -1.941406 1.15625 -1.953125 C 1.175781 -1.960938 1.191406 -1.96875 1.203125 -1.96875 C 1.222656 -1.976562 1.234375 -1.992188 1.234375 -2.015625 C 1.234375 -2.054688 1.210938 -2.085938 1.171875 -2.109375 C 1.128906 -2.140625 1.070312 -2.15625 1 -2.15625 Z M 1 -2.15625 "/></g></g></g><g fill="#ffffff" fill-opacity="1"><g transform="translate(23.23965, 33.076222)"><g><path d="M 1 -0.203125 C 1 -0.179688 0.992188 -0.15625 0.984375 -0.125 C 0.972656 -0.101562 0.957031 -0.078125 0.9375 -0.046875 C 0.914062 -0.0234375 0.878906 -0.0078125 0.828125 0 C 0.785156 0.0195312 0.722656 0.03125 0.640625 0.03125 C 0.566406 0.03125 0.503906 0.0195312 0.453125 0 C 0.410156 -0.0078125 0.378906 -0.0234375 0.359375 -0.046875 C 0.335938 -0.078125 0.320312 -0.101562 0.3125 -0.125 C 0.3125 -0.15625 0.3125 -0.179688 0.3125 -0.203125 L 0.3125 -1.9375 C 0.3125 -1.976562 0.300781 -2.015625 0.28125 -2.046875 C 0.257812 -2.078125 0.222656 -2.09375 0.171875 -2.09375 C 0.148438 -2.09375 0.128906 -2.085938 0.109375 -2.078125 C 0.0859375 -2.066406 0.0664062 -2.054688 0.046875 -2.046875 L 0 -2.09375 C 0.0390625 -2.125 0.0820312 -2.148438 0.125 -2.171875 C 0.164062 -2.203125 0.207031 -2.226562 0.25 -2.25 C 0.300781 -2.269531 0.351562 -2.285156 0.40625 -2.296875 C 0.46875 -2.316406 0.53125 -2.328125 0.59375 -2.328125 C 0.695312 -2.328125 0.773438 -2.3125 0.828125 -2.28125 C 0.878906 -2.257812 0.914062 -2.226562 0.9375 -2.1875 C 0.96875 -2.15625 0.984375 -2.113281 0.984375 -2.0625 C 0.992188 -2.019531 1 -1.984375 1 -1.953125 Z M 0.234375 -2.84375 C 0.234375 -2.882812 0.242188 -2.921875 0.265625 -2.953125 C 0.285156 -2.992188 0.3125 -3.03125 0.34375 -3.0625 C 0.375 -3.09375 0.410156 -3.113281 0.453125 -3.125 C 0.503906 -3.144531 0.554688 -3.15625 0.609375 -3.15625 C 0.660156 -3.15625 0.707031 -3.144531 0.75 -3.125 C 0.789062 -3.113281 0.828125 -3.09375 0.859375 -3.0625 C 0.890625 -3.03125 0.914062 -2.992188 0.9375 -2.953125 C 0.957031 -2.921875 0.96875 -2.882812 0.96875 -2.84375 C 0.96875 -2.800781 0.957031 -2.757812 0.9375 -2.71875 C 0.914062 -2.675781 0.890625 -2.640625 0.859375 -2.609375 C 0.828125 -2.585938 0.789062 -2.566406 0.75 -2.546875 C 0.707031 -2.535156 0.660156 -2.53125 0.609375 -2.53125 C 0.554688 -2.53125 0.503906 -2.535156 0.453125 -2.546875 C 0.410156 -2.566406 0.375 -2.585938 0.34375 -2.609375 C 0.3125 -2.640625 0.285156 -2.675781 0.265625 -2.71875 C 0.242188 -2.757812 0.234375 -2.800781 0.234375 -2.84375 Z M 0.234375 -2.84375 "/></g></g></g><g fill="#ffffff" fill-opacity="1"><g transform="translate(24.521227, 33.076222)"><g><path d="M 0.1875 -1.40625 C 0.1875 -1.5625 0.210938 -1.695312 0.265625 -1.8125 C 0.316406 -1.925781 0.382812 -2.019531 0.46875 -2.09375 C 0.5625 -2.175781 0.664062 -2.234375 0.78125 -2.265625 C 0.90625 -2.304688 1.03125 -2.328125 1.15625 -2.328125 C 1.289062 -2.328125 1.414062 -2.304688 1.53125 -2.265625 C 1.644531 -2.234375 1.75 -2.1875 1.84375 -2.125 C 1.875 -2.164062 1.894531 -2.207031 1.90625 -2.25 C 1.925781 -2.300781 1.9375 -2.347656 1.9375 -2.390625 C 1.9375 -2.453125 1.921875 -2.503906 1.890625 -2.546875 C 1.859375 -2.585938 1.816406 -2.609375 1.765625 -2.609375 L 1.765625 -2.671875 C 1.796875 -2.679688 1.820312 -2.6875 1.84375 -2.6875 C 1.875 -2.695312 1.898438 -2.703125 1.921875 -2.703125 C 1.941406 -2.710938 1.960938 -2.71875 1.984375 -2.71875 C 2.003906 -2.726562 2.023438 -2.734375 2.046875 -2.734375 C 2.117188 -2.734375 2.171875 -2.707031 2.203125 -2.65625 C 2.242188 -2.613281 2.265625 -2.554688 2.265625 -2.484375 C 2.265625 -2.441406 2.253906 -2.394531 2.234375 -2.34375 C 2.210938 -2.300781 2.1875 -2.257812 2.15625 -2.21875 C 2.125 -2.1875 2.085938 -2.148438 2.046875 -2.109375 C 2.015625 -2.078125 1.976562 -2.046875 1.9375 -2.015625 C 2 -1.941406 2.046875 -1.859375 2.078125 -1.765625 C 2.117188 -1.671875 2.140625 -1.5625 2.140625 -1.4375 C 2.140625 -1.28125 2.113281 -1.144531 2.0625 -1.03125 C 2.007812 -0.914062 1.9375 -0.816406 1.84375 -0.734375 C 1.757812 -0.648438 1.65625 -0.585938 1.53125 -0.546875 C 1.414062 -0.503906 1.289062 -0.484375 1.15625 -0.484375 C 1.082031 -0.484375 1.007812 -0.488281 0.9375 -0.5 C 0.863281 -0.519531 0.796875 -0.539062 0.734375 -0.5625 C 0.710938 -0.539062 0.691406 -0.515625 0.671875 -0.484375 C 0.648438 -0.460938 0.640625 -0.4375 0.640625 -0.40625 C 0.640625 -0.351562 0.660156 -0.3125 0.703125 -0.28125 C 0.753906 -0.257812 0.820312 -0.238281 0.90625 -0.21875 C 0.988281 -0.207031 1.078125 -0.203125 1.171875 -0.203125 C 1.273438 -0.203125 1.378906 -0.195312 1.484375 -0.1875 C 1.585938 -0.175781 1.6875 -0.160156 1.78125 -0.140625 C 1.882812 -0.128906 1.976562 -0.101562 2.0625 -0.0625 C 2.144531 -0.0195312 2.207031 0.0351562 2.25 0.109375 C 2.300781 0.179688 2.328125 0.28125 2.328125 0.40625 C 2.328125 0.488281 2.304688 0.5625 2.265625 0.625 C 2.234375 0.695312 2.1875 0.757812 2.125 0.8125 C 2.0625 0.863281 1.988281 0.90625 1.90625 0.9375 C 1.832031 0.976562 1.75 1.007812 1.65625 1.03125 C 1.570312 1.050781 1.484375 1.066406 1.390625 1.078125 C 1.296875 1.085938 1.207031 1.09375 1.125 1.09375 C 0.96875 1.09375 0.828125 1.082031 0.703125 1.0625 C 0.585938 1.050781 0.488281 1.03125 0.40625 1 C 0.320312 0.96875 0.253906 0.925781 0.203125 0.875 C 0.160156 0.820312 0.140625 0.757812 0.140625 0.6875 C 0.140625 0.632812 0.148438 0.582031 0.171875 0.53125 C 0.191406 0.488281 0.222656 0.445312 0.265625 0.40625 C 0.304688 0.375 0.347656 0.34375 0.390625 0.3125 C 0.441406 0.289062 0.492188 0.265625 0.546875 0.234375 C 0.472656 0.203125 0.410156 0.15625 0.359375 0.09375 C 0.316406 0.03125 0.296875 -0.0507812 0.296875 -0.15625 C 0.296875 -0.207031 0.300781 -0.253906 0.3125 -0.296875 C 0.332031 -0.347656 0.359375 -0.394531 0.390625 -0.4375 C 0.421875 -0.476562 0.453125 -0.515625 0.484375 -0.546875 C 0.523438 -0.578125 0.5625 -0.601562 0.59375 -0.625 C 0.539062 -0.664062 0.488281 -0.710938 0.4375 -0.765625 C 0.382812 -0.816406 0.335938 -0.875 0.296875 -0.9375 C 0.265625 -1 0.238281 -1.066406 0.21875 -1.140625 C 0.195312 -1.222656 0.1875 -1.3125 0.1875 -1.40625 Z M 1.46875 -1.421875 C 1.46875 -1.515625 1.460938 -1.601562 1.453125 -1.6875 C 1.441406 -1.769531 1.425781 -1.84375 1.40625 -1.90625 C 1.382812 -1.96875 1.351562 -2.019531 1.3125 -2.0625 C 1.269531 -2.101562 1.21875 -2.125 1.15625 -2.125 C 1.09375 -2.125 1.039062 -2.101562 1 -2.0625 C 0.96875 -2.019531 0.941406 -1.960938 0.921875 -1.890625 C 0.898438 -1.828125 0.882812 -1.753906 0.875 -1.671875 C 0.863281 -1.585938 0.859375 -1.5 0.859375 -1.40625 C 0.859375 -1.320312 0.863281 -1.234375 0.875 -1.140625 C 0.882812 -1.054688 0.898438 -0.984375 0.921875 -0.921875 C 0.941406 -0.859375 0.96875 -0.804688 1 -0.765625 C 1.039062 -0.722656 1.09375 -0.703125 1.15625 -0.703125 C 1.21875 -0.703125 1.269531 -0.722656 1.3125 -0.765625 C 1.351562 -0.804688 1.382812 -0.859375 1.40625 -0.921875 C 1.425781 -0.992188 1.441406 -1.070312 1.453125 -1.15625 C 1.460938 -1.25 1.46875 -1.335938 1.46875 -1.421875 Z M 1.8125 0.578125 C 1.8125 0.523438 1.789062 0.484375 1.75 0.453125 C 1.707031 0.429688 1.65625 0.410156 1.59375 0.390625 C 1.539062 0.367188 1.472656 0.351562 1.390625 0.34375 C 1.316406 0.332031 1.238281 0.320312 1.15625 0.3125 C 1.082031 0.3125 1.003906 0.304688 0.921875 0.296875 C 0.847656 0.296875 0.785156 0.296875 0.734375 0.296875 C 0.703125 0.316406 0.671875 0.335938 0.640625 0.359375 C 0.609375 0.390625 0.582031 0.414062 0.5625 0.4375 C 0.539062 0.46875 0.523438 0.5 0.515625 0.53125 C 0.503906 0.5625 0.5 0.597656 0.5 0.640625 C 0.5 0.691406 0.515625 0.734375 0.546875 0.765625 C 0.578125 0.804688 0.617188 0.835938 0.671875 0.859375 C 0.734375 0.890625 0.800781 0.90625 0.875 0.90625 C 0.945312 0.914062 1.023438 0.921875 1.109375 0.921875 C 1.210938 0.921875 1.304688 0.910156 1.390625 0.890625 C 1.484375 0.878906 1.5625 0.859375 1.625 0.828125 C 1.6875 0.796875 1.734375 0.757812 1.765625 0.71875 C 1.796875 0.675781 1.8125 0.628906 1.8125 0.578125 Z M 1.8125 0.578125 "/></g></g></g><g fill="#ffffff" fill-opacity="1"><g transform="translate(26.864423, 33.076222)"><g><path d="M 1.59375 -1.109375 C 1.59375 -1.304688 1.582031 -1.457031 1.5625 -1.5625 C 1.550781 -1.675781 1.53125 -1.765625 1.5 -1.828125 C 1.476562 -1.890625 1.445312 -1.925781 1.40625 -1.9375 C 1.375 -1.957031 1.34375 -1.96875 1.3125 -1.96875 C 1.257812 -1.96875 1.21875 -1.957031 1.1875 -1.9375 C 1.15625 -1.914062 1.125 -1.890625 1.09375 -1.859375 C 1.070312 -1.828125 1.050781 -1.796875 1.03125 -1.765625 C 1.019531 -1.734375 1.007812 -1.710938 1 -1.703125 L 1 -0.203125 C 1 -0.179688 0.992188 -0.15625 0.984375 -0.125 C 0.984375 -0.101562 0.96875 -0.078125 0.9375 -0.046875 C 0.914062 -0.0234375 0.878906 -0.0078125 0.828125 0 C 0.785156 0.0195312 0.726562 0.03125 0.65625 0.03125 C 0.570312 0.03125 0.503906 0.0195312 0.453125 0 C 0.410156 -0.0078125 0.378906 -0.0234375 0.359375 -0.046875 C 0.335938 -0.078125 0.320312 -0.101562 0.3125 -0.125 C 0.3125 -0.15625 0.3125 -0.179688 0.3125 -0.203125 L 0.3125 -1.9375 C 0.3125 -1.976562 0.300781 -2.015625 0.28125 -2.046875 C 0.257812 -2.078125 0.222656 -2.09375 0.171875 -2.09375 C 0.148438 -2.09375 0.128906 -2.085938 0.109375 -2.078125 C 0.0859375 -2.066406 0.0664062 -2.054688 0.046875 -2.046875 L 0 -2.09375 C 0.0390625 -2.125 0.0820312 -2.148438 0.125 -2.171875 C 0.164062 -2.203125 0.207031 -2.226562 0.25 -2.25 C 0.300781 -2.269531 0.351562 -2.285156 0.40625 -2.296875 C 0.46875 -2.316406 0.53125 -2.328125 0.59375 -2.328125 C 0.695312 -2.328125 0.773438 -2.3125 0.828125 -2.28125 C 0.878906 -2.25 0.914062 -2.207031 0.9375 -2.15625 C 0.96875 -2.113281 0.984375 -2.066406 0.984375 -2.015625 C 0.992188 -1.972656 1 -1.9375 1 -1.90625 C 1.050781 -1.976562 1.113281 -2.046875 1.1875 -2.109375 C 1.21875 -2.140625 1.25 -2.164062 1.28125 -2.1875 C 1.3125 -2.21875 1.347656 -2.242188 1.390625 -2.265625 C 1.429688 -2.285156 1.472656 -2.300781 1.515625 -2.3125 C 1.554688 -2.320312 1.601562 -2.328125 1.65625 -2.328125 C 1.757812 -2.328125 1.847656 -2.304688 1.921875 -2.265625 C 2.003906 -2.234375 2.070312 -2.171875 2.125 -2.078125 C 2.175781 -1.984375 2.210938 -1.859375 2.234375 -1.703125 C 2.265625 -1.554688 2.28125 -1.375 2.28125 -1.15625 C 2.28125 -0.9375 2.257812 -0.742188 2.21875 -0.578125 C 2.1875 -0.421875 2.140625 -0.285156 2.078125 -0.171875 C 2.015625 -0.0664062 1.941406 0.0195312 1.859375 0.09375 C 1.785156 0.164062 1.707031 0.222656 1.625 0.265625 C 1.539062 0.304688 1.460938 0.332031 1.390625 0.34375 C 1.316406 0.363281 1.253906 0.375 1.203125 0.375 L 1.171875 0.28125 C 1.222656 0.269531 1.265625 0.253906 1.296875 0.234375 C 1.335938 0.210938 1.375 0.175781 1.40625 0.125 C 1.4375 0.0820312 1.460938 0.03125 1.484375 -0.03125 C 1.503906 -0.09375 1.523438 -0.175781 1.546875 -0.28125 C 1.566406 -0.382812 1.578125 -0.503906 1.578125 -0.640625 C 1.585938 -0.773438 1.59375 -0.929688 1.59375 -1.109375 Z M 1.59375 -1.109375 "/></g></g></g><g fill="#ffffff" fill-opacity="1"><g transform="translate(29.337798, 33.076222)"><g><path d="M 0.859375 -1.03125 C 0.859375 -0.976562 0.863281 -0.925781 0.875 -0.875 C 0.894531 -0.820312 0.914062 -0.765625 0.9375 -0.703125 C 0.96875 -0.648438 1 -0.597656 1.03125 -0.546875 C 1.070312 -0.492188 1.117188 -0.445312 1.171875 -0.40625 C 1.222656 -0.363281 1.28125 -0.328125 1.34375 -0.296875 C 1.40625 -0.273438 1.476562 -0.265625 1.5625 -0.265625 C 1.613281 -0.265625 1.660156 -0.269531 1.703125 -0.28125 C 1.742188 -0.300781 1.785156 -0.320312 1.828125 -0.34375 C 1.867188 -0.363281 1.90625 -0.382812 1.9375 -0.40625 C 1.976562 -0.4375 2.015625 -0.46875 2.046875 -0.5 L 2.109375 -0.453125 C 2.066406 -0.398438 2.019531 -0.34375 1.96875 -0.28125 C 1.914062 -0.226562 1.847656 -0.175781 1.765625 -0.125 C 1.691406 -0.0820312 1.601562 -0.046875 1.5 -0.015625 C 1.40625 0.015625 1.289062 0.03125 1.15625 0.03125 C 1.03125 0.03125 0.90625 0.0078125 0.78125 -0.03125 C 0.65625 -0.0820312 0.546875 -0.15625 0.453125 -0.25 C 0.359375 -0.34375 0.28125 -0.457031 0.21875 -0.59375 C 0.164062 -0.738281 0.140625 -0.90625 0.140625 -1.09375 C 0.140625 -1.226562 0.15625 -1.351562 0.1875 -1.46875 C 0.21875 -1.582031 0.265625 -1.6875 0.328125 -1.78125 C 0.390625 -1.875 0.457031 -1.953125 0.53125 -2.015625 C 0.613281 -2.085938 0.695312 -2.144531 0.78125 -2.1875 C 0.863281 -2.238281 0.953125 -2.273438 1.046875 -2.296875 C 1.140625 -2.316406 1.226562 -2.328125 1.3125 -2.328125 C 1.414062 -2.328125 1.507812 -2.3125 1.59375 -2.28125 C 1.675781 -2.257812 1.742188 -2.226562 1.796875 -2.1875 C 1.859375 -2.15625 1.898438 -2.109375 1.921875 -2.046875 C 1.953125 -1.992188 1.96875 -1.941406 1.96875 -1.890625 C 1.96875 -1.816406 1.945312 -1.75 1.90625 -1.6875 C 1.863281 -1.632812 1.8125 -1.585938 1.75 -1.546875 Z M 1.3125 -1.484375 C 1.332031 -1.492188 1.347656 -1.503906 1.359375 -1.515625 C 1.367188 -1.523438 1.378906 -1.535156 1.390625 -1.546875 C 1.398438 -1.566406 1.40625 -1.585938 1.40625 -1.609375 C 1.40625 -1.640625 1.40625 -1.671875 1.40625 -1.703125 C 1.40625 -1.742188 1.398438 -1.785156 1.390625 -1.828125 C 1.390625 -1.867188 1.378906 -1.910156 1.359375 -1.953125 C 1.335938 -1.992188 1.3125 -2.023438 1.28125 -2.046875 C 1.25 -2.078125 1.210938 -2.09375 1.171875 -2.09375 C 1.117188 -2.09375 1.070312 -2.078125 1.03125 -2.046875 C 1 -2.015625 0.96875 -1.972656 0.9375 -1.921875 C 0.914062 -1.867188 0.894531 -1.8125 0.875 -1.75 C 0.863281 -1.6875 0.851562 -1.617188 0.84375 -1.546875 C 0.84375 -1.484375 0.84375 -1.421875 0.84375 -1.359375 C 0.84375 -1.304688 0.84375 -1.257812 0.84375 -1.21875 Z M 1.3125 -1.484375 "/></g></g></g><g fill="#ffffff" fill-opacity="1"><g transform="translate(31.465528, 33.076222)"><g><path d="M 1 -1.859375 C 1.050781 -1.941406 1.109375 -2.019531 1.171875 -2.09375 C 1.203125 -2.125 1.234375 -2.148438 1.265625 -2.171875 C 1.296875 -2.203125 1.328125 -2.226562 1.359375 -2.25 C 1.390625 -2.269531 1.421875 -2.285156 1.453125 -2.296875 C 1.492188 -2.316406 1.535156 -2.328125 1.578125 -2.328125 C 1.648438 -2.328125 1.707031 -2.300781 1.75 -2.25 C 1.789062 -2.207031 1.8125 -2.144531 1.8125 -2.0625 C 1.8125 -2.007812 1.804688 -1.957031 1.796875 -1.90625 C 1.796875 -1.863281 1.785156 -1.8125 1.765625 -1.75 L 1.703125 -1.75 C 1.691406 -1.789062 1.664062 -1.828125 1.625 -1.859375 C 1.59375 -1.890625 1.546875 -1.90625 1.484375 -1.90625 C 1.441406 -1.90625 1.394531 -1.894531 1.34375 -1.875 C 1.300781 -1.863281 1.257812 -1.84375 1.21875 -1.8125 C 1.175781 -1.789062 1.132812 -1.765625 1.09375 -1.734375 C 1.0625 -1.703125 1.03125 -1.675781 1 -1.65625 L 1 -0.203125 C 1 -0.179688 0.992188 -0.15625 0.984375 -0.125 C 0.984375 -0.101562 0.96875 -0.078125 0.9375 -0.046875 C 0.914062 -0.0234375 0.878906 -0.0078125 0.828125 0 C 0.785156 0.0195312 0.726562 0.03125 0.65625 0.03125 C 0.570312 0.03125 0.503906 0.0195312 0.453125 0 C 0.410156 -0.0078125 0.378906 -0.0234375 0.359375 -0.046875 C 0.335938 -0.078125 0.320312 -0.101562 0.3125 -0.125 C 0.3125 -0.15625 0.3125 -0.179688 0.3125 -0.203125 L 0.3125 -1.9375 C 0.3125 -1.976562 0.300781 -2.015625 0.28125 -2.046875 C 0.257812 -2.078125 0.222656 -2.09375 0.171875 -2.09375 C 0.148438 -2.09375 0.128906 -2.085938 0.109375 -2.078125 C 0.0859375 -2.066406 0.0664062 -2.054688 0.046875 -2.046875 L 0 -2.09375 C 0.0390625 -2.125 0.0820312 -2.148438 0.125 -2.171875 C 0.164062 -2.203125 0.207031 -2.226562 0.25 -2.25 C 0.300781 -2.269531 0.351562 -2.285156 0.40625 -2.296875 C 0.46875 -2.316406 0.53125 -2.328125 0.59375 -2.328125 C 0.65625 -2.328125 0.707031 -2.316406 0.75 -2.296875 C 0.800781 -2.285156 0.84375 -2.265625 0.875 -2.234375 C 0.90625 -2.203125 0.925781 -2.171875 0.9375 -2.140625 C 0.957031 -2.109375 0.96875 -2.070312 0.96875 -2.03125 C 0.976562 -2 0.984375 -1.96875 0.984375 -1.9375 C 0.992188 -1.90625 1 -1.878906 1 -1.859375 Z M 1 -1.859375 "/></g></g></g></svg>