<svg xmlns="http://www.w3.org/2000/svg" width="100" viewBox="0 0 75 75" height="100" version="1.0"><path fill="#fff" d="M75 37.5a37.29 37.29 0 0 1-.719 7.316 38.774 38.774 0 0 1-.894 3.57 37.713 37.713 0 0 1-2.817 6.79 36.235 36.235 0 0 1-1.89 3.156 37.143 37.143 0 0 1-4.664 5.684 37.143 37.143 0 0 1-5.684 4.664 36.235 36.235 0 0 1-3.156 1.89 37.713 37.713 0 0 1-6.79 2.816 38.774 38.774 0 0 1-3.57.895A37.29 37.29 0 0 1 37.5 75a37.29 37.29 0 0 1-7.316-.719 38.774 38.774 0 0 1-3.57-.894 37.713 37.713 0 0 1-6.79-2.817 36.235 36.235 0 0 1-3.156-1.89 37.143 37.143 0 0 1-5.684-4.664 37.143 37.143 0 0 1-4.664-5.684 36.235 36.235 0 0 1-1.89-3.156 37.713 37.713 0 0 1-2.816-6.79 38.774 38.774 0 0 1-.895-3.57A37.29 37.29 0 0 1 0 37.5a37.29 37.29 0 0 1 .719-7.316c.242-1.204.539-2.395.894-3.57a37.713 37.713 0 0 1 2.817-6.79 36.235 36.235 0 0 1 1.89-3.156 37.143 37.143 0 0 1 4.664-5.684 37.143 37.143 0 0 1 5.684-4.664 36.235 36.235 0 0 1 3.156-1.89 37.713 37.713 0 0 1 6.79-2.816 38.774 38.774 0 0 1 3.57-.895A37.29 37.29 0 0 1 37.5 0a37.29 37.29 0 0 1 7.316.719c1.204.242 2.395.539 3.57.894a37.713 37.713 0 0 1 6.79 2.817 36.235 36.235 0 0 1 3.156 1.89 37.143 37.143 0 0 1 5.684 4.664 37.143 37.143 0 0 1 4.664 5.684 36.235 36.235 0 0 1 1.89 3.156 37.713 37.713 0 0 1 2.816 6.79c.356 1.175.653 2.366.895 3.57A37.29 37.29 0 0 1 75 37.5Zm0 0"/><path fill="#f36" d="M45.852 47.3v-1.902c7.625-.347 12.648-3.648 11.796-4.324-1.546-1.222-4-2.773-4.671-10.222-.676-7.454-1.5-14.926-7.227-20.653-.398-.398-1.2-.949-2.176-1.05a2.564 2.564 0 0 0-1.398-1.5c-6-2.626-14.352-.098-17.653 6.953-4 8.5-2.773 18.523-4.148 21.296-2.074 4.852-5.55 4.852-5.2 5.727C17.95 43.523 23.5 45.449 28 45.801c0 0 0 1.398-.352 2.25-.347.875 0 0-.699.699-.699.7-1.55 1.398-3.3 4.176 0 0-5.376 2.25-13 5.023a16.434 16.434 0 0 0-3.45 1.727C14.023 68.926 25.051 75 37.5 75c12.05 0 22.773-5.7 29.625-14.523-5.023-2.653-13.648-5.25-17.8-7.278-.348-.523-1.376-4-3.473-5.898Zm0 0"/><path fill="#f36" d="M37.5 0C16.809 0 0 16.809 0 37.5S16.809 75 37.5 75 75 58.191 75 37.5 58.191 0 37.5 0Zm0 1.629c19.832 0 35.871 16.039 35.871 35.871S57.332 73.371 37.5 73.371 1.629 57.332 1.629 37.5 17.668 1.629 37.5 1.629Zm0 0"/></svg>