<svg xmlns="http://www.w3.org/2000/svg" width="100" viewBox="0 0 75 75" height="100" version="1.0"><path fill="#fff" d="M75 37.5a37.29 37.29 0 0 1-.719 7.316 38.774 38.774 0 0 1-.894 3.57 37.713 37.713 0 0 1-2.817 6.79 36.235 36.235 0 0 1-1.89 3.156 37.143 37.143 0 0 1-4.664 5.684 37.143 37.143 0 0 1-5.684 4.664 36.235 36.235 0 0 1-3.156 1.89 37.713 37.713 0 0 1-6.79 2.816 38.774 38.774 0 0 1-3.57.895A37.29 37.29 0 0 1 37.5 75a37.29 37.29 0 0 1-7.316-.719 38.774 38.774 0 0 1-3.57-.894 37.713 37.713 0 0 1-6.79-2.817 36.235 36.235 0 0 1-3.156-1.89 37.143 37.143 0 0 1-5.684-4.664 37.143 37.143 0 0 1-4.664-5.684 36.235 36.235 0 0 1-1.89-3.156 37.713 37.713 0 0 1-2.816-6.79 38.774 38.774 0 0 1-.895-3.57A37.29 37.29 0 0 1 0 37.5a37.29 37.29 0 0 1 .719-7.316c.242-1.204.539-2.395.894-3.57a37.713 37.713 0 0 1 2.817-6.79 36.235 36.235 0 0 1 1.89-3.156 37.143 37.143 0 0 1 4.664-5.684 37.143 37.143 0 0 1 5.684-4.664 36.235 36.235 0 0 1 3.156-1.89 37.713 37.713 0 0 1 6.79-2.816 38.774 38.774 0 0 1 3.57-.895A37.29 37.29 0 0 1 37.5 0a37.29 37.29 0 0 1 7.316.719c1.204.242 2.395.539 3.57.894a37.713 37.713 0 0 1 6.79 2.817 36.235 36.235 0 0 1 3.156 1.89 37.143 37.143 0 0 1 5.684 4.664 37.143 37.143 0 0 1 4.664 5.684 36.235 36.235 0 0 1 1.89 3.156 37.713 37.713 0 0 1 2.816 6.79c.356 1.175.653 2.366.895 3.57A37.29 37.29 0 0 1 75 37.5Zm0 0"/><path fill="#f36" d="M62.523 57.523c-2.972-1.199-13.273-5.472-13.273-5.472-1.125-1.403-2.324-1.574-2.324-1.574l-.102-3.528c2.778-5.199 2.7-6.125 2.7-6.125 4.652-5.926 5.851-12.523 2.601-13 .75-5.648.55-11.875-2.05-12.523-.65-6.301-10.2-8.352-16.7-6.95-12.148 2.223-12.25 14.2-11.05 19.473-3.25.477-2.052 7.051 2.6 13 0 0-.1.926 2.7 6.125l-.102 3.528s-1.199.171-2.324 1.574c0 0-10.3 4.273-13.273 5.472-1.653.676-3.176 1.403-4.403 2.528 6.852 9.074 17.704 14.926 29.954 14.926 12.097 0 22.847-5.727 29.699-14.625-1.227-1.301-2.875-2.102-4.653-2.829Zm0 0"/><path fill="#f36" d="M37.5 0C16.809 0 0 16.809 0 37.5S16.809 75 37.5 75 75 58.191 75 37.5 58.191 0 37.5 0Zm0 1.629c19.832 0 35.871 16.039 35.871 35.871S57.332 73.371 37.5 73.371 1.629 57.332 1.629 37.5 17.668 1.629 37.5 1.629Zm0 0"/></svg>