<svg xmlns="http://www.w3.org/2000/svg" width="200" viewBox="0 0 150 150" height="200" version="1.0"><defs><clipPath id="a"><path d="M40.46 5.926h67.5v67.5h-67.5Zm0 0"/></clipPath><clipPath id="b"><path d="M41.29 79.043h67.5v65.25h-67.5Zm0 0"/></clipPath></defs><path fill="#f36" d="M97.672 32.36h-6.125a.186.186 0 0 0-.184.183v14.18a.19.19 0 0 0 .184.187h6.125a.19.19 0 0 0 .187-.187v-14.18a.19.19 0 0 0-.187-.184M69.688 32.36h-6.126a.186.186 0 0 0-.183.183v14.18c0 .101.082.187.184.187h6.124a.19.19 0 0 0 .188-.187v-14.18a.19.19 0 0 0-.188-.184"/><path fill="#f36" d="M100.84 46.723a3.172 3.172 0 0 1-3.168 3.168h-6.125a3.177 3.177 0 0 1-3.164-3.168v-14.18a3.17 3.17 0 0 1 3.164-3.164h6.125a3.172 3.172 0 0 1 3.168 3.164Zm-22.672-.832a3.46 3.46 0 0 0 4.902 0 3.479 3.479 0 0 0 1.02-2.461v-2.84h-4.238a1.489 1.489 0 0 1-1.493-1.488c0-.825.668-1.493 1.493-1.493h5.73c.82 0 1.488.668 1.488 1.493v4.328a6.432 6.432 0 0 1-1.894 4.558 6.438 6.438 0 0 1-4.559 1.903 6.438 6.438 0 0 1-4.558-1.903 6.448 6.448 0 0 1-1.895-4.558v-7.59c0-1.774.727-3.387 1.895-4.559a6.422 6.422 0 0 1 4.558-1.902c1.774 0 3.387.726 4.559 1.902a6.432 6.432 0 0 1 1.894 4.559 1.491 1.491 0 1 1-2.98 0 3.473 3.473 0 0 0-3.473-3.48c-.957 0-1.824.39-2.449 1.015a3.491 3.491 0 0 0-1.023 2.465v7.59c0 .957.394 1.832 1.023 2.46Zm-5.313.832a3.172 3.172 0 0 1-3.168 3.168h-6.124a3.174 3.174 0 0 1-3.165-3.168v-14.18a3.17 3.17 0 0 1 3.164-3.164h6.126a3.172 3.172 0 0 1 3.167 3.164ZM57.598 49.89h-8.606c-.82 0-1.488-.668-1.488-1.493v-17.53a1.49 1.49 0 0 1 2.98 0V46.91h7.114a1.49 1.49 0 0 1 0 2.98Zm37.965-39.075H52.78A7.403 7.403 0 0 0 47.535 13a7.394 7.394 0 0 0-2.183 5.242v42.781c0 2.043.836 3.899 2.183 5.247a7.403 7.403 0 0 0 5.246 2.183h42.782a7.41 7.41 0 0 0 5.246-2.183 7.42 7.42 0 0 0 2.183-5.247v-42.78A7.41 7.41 0 0 0 100.81 13a7.41 7.41 0 0 0-5.246-2.184"/><g clip-path="url(#a)"><path fill="#f36" d="M105.973 61.023c0 2.868-1.172 5.47-3.059 7.356a10.373 10.373 0 0 1-7.352 3.055h-42.78a10.366 10.366 0 0 1-7.352-3.055 10.379 10.379 0 0 1-3.059-7.356v-42.78c0-2.864 1.172-5.466 3.059-7.352a10.37 10.37 0 0 1 7.351-3.059h42.782c2.863 0 5.464 1.172 7.351 3.059a10.377 10.377 0 0 1 3.059 7.351Zm-1.707-51.48a12.232 12.232 0 0 0-8.704-3.617h-42.78a12.245 12.245 0 0 0-8.704 3.613 12.232 12.232 0 0 0-3.617 8.703v42.781c0 3.282 1.285 6.375 3.617 8.704a12.232 12.232 0 0 0 8.703 3.617h42.782c3.28 0 6.37-1.285 8.703-3.617a12.229 12.229 0 0 0 3.613-8.704v-42.78a12.22 12.22 0 0 0-3.613-8.7"/></g><path fill="#f36" d="M69.68 109.988v1.739c.738 0 .843-.266.843-.899-.054-.578-.16-.84-.843-.84Zm0 0"/><path fill="#f36" d="M75 95.66c-8.797 0-16.012 7.164-16.012 16.012 0 8.797 7.164 16.012 16.012 16.012 8.797 0 16.012-7.164 16.012-16.012 0-8.797-7.215-16.012-16.012-16.012Zm-7.797 18.223c0 1.844-.734 1.949-2.422 1.949h-1.367v-6.793h1.422c1.316 0 2.422 0 2.422 1.633 0 .738-.211 1.422-1.106 1.527v.051c.946 0 1.051.738 1.051 1.633Zm3.531 1.949c-.21-.262-.21-.684-.21-.945v-1.422c0-.477-.266-.738-.579-.738h-.265v3.105h-1.528v-6.793h1.528c1.527 0 2.422.156 2.422 1.578 0 .844-.368 1.422-1.211 1.528.738 0 1.21.316 1.21 1.265v1.422c0 .266.055.684.266.95h-1.633Zm4.793 0-.16-1.684h-.894l-.262 1.684h-1.316l1.156-6.793h2.16l.894 6.793Zm6.743 0h-2.004l-1.157-5.687v5.687h-1.476v-6.793h2.37l1 4.95v-4.95h1.267v6.793Zm2.472 0h-1.84v-6.793h1.84c1.793 0 2.371.262 2.371 2.316v2.422c0 1.266-.367 2.055-2.37 2.055Zm0 0"/><path fill="#f36" d="M84.691 109.988v4.844c.79 0 .844-.316.844-.95v-2.788c0-.895-.055-1.106-.844-1.106ZM74.95 110.094l-.317 3.054h.578ZM64.781 109.988v1.79c.477-.051.844.16.844-.895 0-.633-.055-.895-.844-.895ZM64.781 112.777v2.11c.844.05.844-.422.844-1.11 0-1-.16-1-.844-1Zm0 0"/><g clip-path="url(#b)"><path fill="#f36" d="M105.758 105.14c-.79-1.054-1.578-2.054-1.844-2.949-.312-.949-.262-2.265-.262-3.632.055-2.266.106-4.793-1.37-6.848-1.473-2.055-3.95-2.793-6.11-3.477-1.317-.421-2.527-.789-3.317-1.316-.738-.582-1.476-1.633-2.265-2.738-1.317-1.899-2.738-4.004-5.215-4.793a6.117 6.117 0 0 0-2-.317c-1.688 0-3.266.578-4.848 1.106-1.261.422-2.527.894-3.527.894s-2.266-.422-3.582-.894c-1.578-.528-3.16-1.106-4.844-1.106a6.14 6.14 0 0 0-2.004.317c-2.422.789-3.898 2.949-5.215 4.793-.789 1.105-1.472 2.156-2.261 2.738-.793.578-2.004.95-3.32 1.316-2.16.684-4.633 1.422-6.11 3.477-1.477 2.055-1.422 4.582-1.371 6.848.055 1.367.055 2.683-.262 3.632-.261.895-1.054 1.895-1.843 2.95-1.317 1.843-2.899 3.898-2.899 6.53 0 2.634 1.582 4.688 2.953 6.532.79 1.055 1.578 2.055 1.84 2.95.316.949.266 2.265.266 3.636-.055 2.262-.106 4.844 1.367 6.844 1.476 2.054 3.953 2.793 6.113 3.476 1.317.422 2.527.793 3.317 1.317.738.582 1.476 1.633 2.265 2.742 1.317 1.894 2.738 4 5.215 4.844a6.36 6.36 0 0 0 2 .316c1.688 0 3.266-.578 4.848-1.105 1.316-.477 2.578-.895 3.578-.895 1.004 0 2.265.418 3.582.895 1.582.527 3.16 1.105 4.847 1.105.739 0 1.368-.105 2-.316 2.422-.79 3.899-2.95 5.215-4.793.79-1.106 1.477-2.16 2.266-2.739.789-.578 2-.949 3.316-1.316 2.16-.633 4.637-1.422 6.11-3.476 1.476-2.055 1.425-4.583 1.37-6.848-.05-1.371-.05-2.688.263-3.633.265-.898 1.054-1.898 1.843-2.95 1.266-1.898 2.844-3.952 2.844-6.585s-1.578-4.688-2.95-6.531Zm-13.746-5.265 1.738-.633.473-1.789c.054-.316.316-.371.476-.105l1.156 1.472 1.844-.105c.317 0 .422.16.266.422l-1.055 1.527.684 1.738c.105.262-.051.473-.313.368l-1.793-.524-1.422 1.211c-.21.211-.421.106-.472-.21l-.055-1.845-1.578-1c-.266-.21-.266-.422.05-.527Zm-8.48-7.113 1.21-1.422-.523-1.79c-.106-.316.105-.421.367-.316l1.738.684 1.528-1.05c.261-.161.472-.055.421.26l-.105 1.845 1.473 1.16c.265.21.21.422-.106.472l-1.789.473-.633 1.738c-.105.266-.316.317-.472.055l-1-1.582-1.899-.05c-.316 0-.367-.212-.21-.477ZM71.84 87.285l1.844-.262.843-1.687c.157-.262.368-.262.473 0l.844 1.687 1.844.262c.316.055.367.266.156.477l-1.367 1.261.312 1.844c.055.317-.105.422-.418.317l-1.633-.844-1.633.844c-.265.156-.476 0-.421-.317L73 89.023l-1.316-1.316c-.211-.21-.16-.422.156-.422Zm-12.063 4.688 1.477-1.157-.106-1.843c0-.317.157-.422.422-.266l1.528 1.055 1.738-.684c.262-.105.473.05.367.317l-.527 1.789 1.21 1.421c.212.262.106.422-.21.473l-1.844.055-1 1.578c-.156.266-.367.266-.473-.05l-.632-1.74-1.79-.472c-.316-.105-.37-.316-.16-.476Zm-8.164 6.375 1.844.105 1.16-1.476c.211-.262.422-.211.473.105l.476 1.793 1.735.629c.265.105.316.316.054.476l-1.582 1-.05 1.844c0 .317-.211.422-.473.211l-1.422-1.21-1.793.523c-.316.105-.422-.102-.316-.368l.687-1.738-1.054-1.527c-.16-.211-.055-.422.261-.367Zm-1.843 16.484-.262-1.844-1.688-.843c-.261-.157-.261-.368 0-.473l1.688-.844.262-1.844c.054-.312.265-.367.476-.156l1.316 1.317 1.844-.317c.317-.05.422.106.317.422l-.844 1.633.844 1.633c.156.261 0 .472-.317.421l-1.843-.316-1.317 1.317c-.21.261-.422.16-.476-.106Zm7.375 9.48-1.739.633-.472 1.79c-.055.316-.317.37-.477.105l-1.156-1.473-1.844.106c-.316 0-.422-.16-.266-.422l1.055-1.528-.684-1.738c-.105-.262.051-.472.317-.367l1.789.523 1.422-1.21c.265-.211.422-.106.476.21l.051 1.844 1.582 1c.262.16.262.422-.054.528Zm8.425 7.06-1.21 1.421.527 1.789c.105.316-.106.422-.367.316l-1.739-.683-1.527 1.055c-.266.156-.477.05-.422-.266l.105-1.844-1.476-1.156c-.262-.211-.211-.422.105-.477l1.793-.472.633-1.739c.106-.261.313-.316.473-.05l1 1.578 1.844.054c.367.051.472.211.261.473Zm11.746 5.53-1.843.262-.84 1.688c-.16.261-.371.261-.477 0l-.84-1.688-1.843-.262c-.317-.054-.371-.265-.16-.476l1.316-1.317-.317-1.843c-.05-.317.106-.422.422-.317l1.633.844 1.633-.844c.266-.156.477 0 .422.317l-.317 1.843 1.317 1.317c.266.21.21.422-.106.476Zm12.012-4.687-1.476 1.156.105 1.844c0 .316-.16.422-.422.265l-1.527-1.054-1.738.683c-.262.106-.473-.05-.368-.316l.528-1.79-1.215-1.421c-.211-.21-.106-.422.21-.473l1.845-.054 1-1.578c.16-.266.37-.211.476.05l.633 1.739 1.789.472c.367.055.422.266.16.477ZM75 129.844c-10.059 0-18.172-8.164-18.172-18.172C56.828 101.664 64.941 93.5 75 93.5c10.059 0 18.172 8.164 18.172 18.172A18.143 18.143 0 0 1 75 129.844Zm22.543-4.004-1.844-.106-1.16 1.477c-.21.262-.418.21-.473-.106l-.472-1.793-1.739-.628c-.265-.106-.316-.317-.054-.477l1.582-1 .05-1.844c0-.316.212-.422.477-.21l1.422 1.21 1.79-.527c.316-.106.421.105.316.371l-.684 1.738 1.05 1.528c.16.21 0 .367-.261.367Zm3.793-13.324-1.688.843-.261 1.84c-.055.317-.266.371-.473.16l-1.32-1.316-1.84.316c-.317.051-.422-.105-.317-.421l.84-1.633-.84-1.633c-.16-.266 0-.473.317-.422l1.84.316 1.32-1.316c.207-.21.418-.16.473.156l.261 1.844 1.688.844c.262.05.262.261 0 .422Zm0 0"/></g></svg>