<svg xmlns="http://www.w3.org/2000/svg" width="100" viewBox="0 0 75 75" height="100" version="1.0"><path fill="#f36" d="M10.547 9.375H7.03v11.719h3.516a3.425 3.425 0 0 0 1.922-.555 3.45 3.45 0 0 0 1.304-1.52c.282-.636.368-1.3.254-1.984a3.42 3.42 0 0 0-.879-1.8 3.42 3.42 0 0 0 .88-1.801 3.432 3.432 0 0 0-.255-1.985 3.45 3.45 0 0 0-1.304-1.52 3.425 3.425 0 0 0-1.922-.554Zm0 2.344a1.182 1.182 0 0 1 .828.344 1.182 1.182 0 0 1 .254 1.277c-.059.144-.145.27-.254.379a1.182 1.182 0 0 1-.828.344H9.375v-2.344Zm0 7.031H9.375v-2.344h1.172a1.182 1.182 0 0 1 .828.344 1.182 1.182 0 0 1 .254 1.277c-.059.145-.145.27-.254.38a1.182 1.182 0 0 1-.828.344ZM23.438 12.89c0-.464-.09-.913-.27-1.343a3.362 3.362 0 0 0-.762-1.14 3.362 3.362 0 0 0-1.14-.762c-.43-.18-.88-.27-1.344-.27h-3.516v11.719h2.344V18.07l3.281 3.258 1.64-1.64-3.304-3.282a3.477 3.477 0 0 0 2.207-1.168c.285-.324.5-.691.649-1.093.148-.407.222-.825.215-1.254Zm-3.516 1.172H18.75V11.72h1.172a1.182 1.182 0 0 1 .828.344 1.182 1.182 0 0 1 .254 1.277c-.059.144-.145.27-.254.379a1.182 1.182 0 0 1-.828.344ZM32.813 21.094V12.89c0-.465-.09-.914-.27-1.344a3.362 3.362 0 0 0-.762-1.14 3.362 3.362 0 0 0-1.14-.762c-.43-.18-.88-.27-1.344-.27-.465 0-.914.09-1.344.27-.433.175-.812.43-1.14.761a3.362 3.362 0 0 0-.762 1.14c-.18.43-.27.88-.27 1.345v8.203h2.344v-3.516h2.344v3.516Zm-4.688-5.86v-2.343a1.182 1.182 0 0 1 .344-.829 1.182 1.182 0 0 1 1.277-.254c.145.06.27.145.379.255a1.182 1.182 0 0 1 .344.828v2.343ZM41.203 20.531c.223.375.55.563.984.563h.329c.25-.074.453-.215.609-.422.156-.207.234-.442.234-.703V9.375h-2.343v6.469l-3.703-5.906a1.115 1.115 0 0 0-.56-.512 1.137 1.137 0 0 0-1.378.39c-.156.22-.23.461-.219.73v10.548H37.5v-6.469ZM52.734 17.578v-4.687c0-.465-.09-.914-.27-1.344a3.362 3.362 0 0 0-.76-1.14 3.362 3.362 0 0 0-1.142-.762c-.43-.18-.878-.27-1.343-.27h-3.516v11.719h3.516c.465 0 .914-.09 1.343-.27.434-.176.813-.43 1.141-.762.332-.328.586-.707.762-1.14.18-.43.27-.879.27-1.344Zm-2.343 0a1.182 1.182 0 0 1-.344.828 1.182 1.182 0 0 1-.828.344h-1.172v-7.031h1.172a1.182 1.182 0 0 1 .828.344 1.182 1.182 0 0 1 .344.828Zm0 0"/><path fill="#f36" d="M2.344 8.203a5.953 5.953 0 0 1 .445-2.242c.148-.356.328-.691.543-1.012a6.13 6.13 0 0 1 .727-.89c.273-.27.57-.512.89-.727a5.73 5.73 0 0 1 2.11-.875 5.953 5.953 0 0 1 1.144-.113h43.36a5.953 5.953 0 0 1 2.242.445c.355.148.691.328 1.011.543.32.215.618.457.891.727.27.273.512.57.727.89a5.73 5.73 0 0 1 .875 2.11c.074.378.113.761.113 1.144v43.36h2.344V8.203a8.183 8.183 0 0 0-.625-3.14 8.243 8.243 0 0 0-.758-1.418c-.301-.446-.64-.86-1.02-1.243a8.624 8.624 0 0 0-1.242-1.02A8.243 8.243 0 0 0 53.164.157 8.184 8.184 0 0 0 51.562 0H8.203a8.184 8.184 0 0 0-3.14.625 8.243 8.243 0 0 0-1.418.758c-.446.3-.86.64-1.243 1.02a8.624 8.624 0 0 0-1.02 1.242A8.243 8.243 0 0 0 .157 6.602 8.184 8.184 0 0 0 0 8.203v39.844h2.344Zm0 0"/><path fill="#f36" d="M9.375 28.125h42.188v2.344H9.374ZM9.375 38.672h42.188v2.344H9.374ZM37.5 48.047h14.063v2.344H37.5ZM75 4.688a4.77 4.77 0 0 0-.355-1.793 4.913 4.913 0 0 0-.434-.813 5.079 5.079 0 0 0-.582-.71 5.079 5.079 0 0 0-.711-.583 4.637 4.637 0 0 0-1.691-.7A4.77 4.77 0 0 0 70.312 0a4.77 4.77 0 0 0-1.792.355 4.637 4.637 0 0 0-.813.434 5.079 5.079 0 0 0-.71.582 4.637 4.637 0 0 0-1.281 2.402c-.06.301-.091.606-.091.914v37.5a1.055 1.055 0 0 0 0 .47l3.516 8.202c.093.215.234.391.433.52.196.129.41.191.645.191.234 0 .449-.062.644-.191.2-.129.34-.305.434-.52L75 42.656a1.055 1.055 0 0 0 0-.468ZM67.969 7.03h4.687v33.985H67.97Zm2.344-4.687c.312 0 .609.058.898.18.285.117.539.285.758.507.222.219.39.473.508.758.12.29.18.586.18.898h-4.688c0-.312.058-.609.18-.898a2.25 2.25 0 0 1 .507-.758 2.25 2.25 0 0 1 .758-.508c.29-.12.586-.18.898-.18Zm0 45.07-1.735-4.055h3.469ZM30.469 51.563H5.859a5.953 5.953 0 0 0-2.242.445 5.863 5.863 0 0 0-1.012.543 6.13 6.13 0 0 0-.89.726 6.13 6.13 0 0 0-.727.891 5.73 5.73 0 0 0-.875 2.11A5.953 5.953 0 0 0 0 57.421V69.14a5.953 5.953 0 0 0 .445 2.242c.149.355.328.691.543 1.012.215.32.457.617.727.89.273.27.57.512.89.727a5.73 5.73 0 0 0 2.11.875c.379.074.762.113 1.144.113h24.61a5.953 5.953 0 0 0 2.242-.445 5.863 5.863 0 0 0 1.012-.543 6.13 6.13 0 0 0 .89-.727c.27-.273.512-.57.727-.89a5.73 5.73 0 0 0 .875-2.11c.074-.379.113-.762.113-1.144V57.42a5.953 5.953 0 0 0-.445-2.241 5.863 5.863 0 0 0-.543-1.012 6.13 6.13 0 0 0-.727-.89 6.13 6.13 0 0 0-.89-.727 5.73 5.73 0 0 0-2.11-.875 5.953 5.953 0 0 0-1.144-.114Zm3.515 17.578c0 .464-.09.914-.27 1.343-.175.434-.429.813-.76 1.141a3.362 3.362 0 0 1-1.142.762c-.43.18-.878.27-1.343.27H5.859c-.464 0-.914-.09-1.343-.27a3.362 3.362 0 0 1-1.141-.762 3.362 3.362 0 0 1-.762-1.14c-.18-.43-.27-.88-.27-1.344V57.42c0-.464.09-.913.27-1.343.176-.433.43-.812.762-1.14a3.362 3.362 0 0 1 1.14-.762c.43-.18.88-.27 1.344-.27h24.61c.465 0 .914.09 1.343.27.434.176.813.43 1.141.761.332.329.586.708.762 1.141.18.43.27.879.27 1.344Zm0 0"/><path fill="#f36" d="M12.89 58.594H8.204a1.182 1.182 0 0 0-.828.343 1.182 1.182 0 0 0-.344.828v7.032a1.182 1.182 0 0 0 .344.828 1.182 1.182 0 0 0 .828.344h4.688a1.182 1.182 0 0 0 .828-.344 1.182 1.182 0 0 0 .344-.828v-7.031a1.182 1.182 0 0 0-.344-.828 1.182 1.182 0 0 0-.828-.344Zm-1.171 7.031H9.375v-4.688h2.344ZM18.75 58.594h9.375v2.343H18.75ZM17.578 64.453h11.719v2.344H17.578ZM66.797 56.25H50.39a5.953 5.953 0 0 0-2.243.445 5.863 5.863 0 0 0-1.011.543 6.13 6.13 0 0 0-.89.727 6.13 6.13 0 0 0-.727.89 5.73 5.73 0 0 0-.875 2.11 5.953 5.953 0 0 0-.114 1.144v7.032a5.953 5.953 0 0 0 .446 2.242c.148.355.328.691.543 1.012.214.32.457.617.726.89.274.27.57.512.89.727a5.73 5.73 0 0 0 2.11.875c.379.074.762.113 1.145.113h16.406a5.953 5.953 0 0 0 2.242-.445 5.863 5.863 0 0 0 1.012-.543 6.13 6.13 0 0 0 .89-.727c.27-.273.512-.57.727-.89a5.73 5.73 0 0 0 .875-2.11c.074-.379.113-.762.113-1.144v-7.032a5.953 5.953 0 0 0-.445-2.242 5.863 5.863 0 0 0-.543-1.012 6.13 6.13 0 0 0-.727-.89 6.13 6.13 0 0 0-.89-.727 5.73 5.73 0 0 0-2.11-.875 5.953 5.953 0 0 0-1.144-.113Zm0 2.344h.562l-8.765 5.648-8.766-5.648Zm3.516 10.547c0 .464-.09.914-.27 1.343-.176.434-.43.813-.762 1.141a3.362 3.362 0 0 1-1.14.762c-.43.18-.88.27-1.344.27H50.39c-.465 0-.914-.09-1.344-.27a3.362 3.362 0 0 1-1.14-.762 3.362 3.362 0 0 1-.762-1.14c-.18-.43-.27-.88-.27-1.344v-7.032A3.386 3.386 0 0 1 47.602 60l10.359 6.61c.191.124.402.183.633.183.23 0 .441-.059.633-.184L69.586 60c.48.621.723 1.324.727 2.11Zm0 0"/></svg>