<svg xmlns="http://www.w3.org/2000/svg" width="100" viewBox="0 0 75 75" height="100" version="1.0"><defs><clipPath id="a"><path d="M0 6.816h75v61.5H0Zm0 0"/></clipPath></defs><g clip-path="url(#a)"><path fill="#f36" d="M26.8 6.805c-2.933 0-5.35 2.418-5.35 5.351v3.567h-1.786c0-1.946-1.621-3.567-3.566-3.567h-1.785c-1.946 0-3.567 1.621-3.567 3.567-5.898 0-10.703 4.804-10.703 10.699v22.293c0 5.898 4.805 10.703 10.703 10.703h20.547c4.195 5.316 10.676 8.746 17.957 8.746 7.531 0 14.203-3.672 18.379-9.305 4.25-1.418 7.328-5.425 7.328-10.144V26.422c0-5.895-4.805-10.7-10.703-10.7H51.77v-3.566c0-2.933-2.418-5.351-5.352-5.351Zm0 3.566h19.618c1.02 0 1.785.766 1.785 1.785v7.133h16.05c3.985 0 7.138 3.152 7.138 7.133v6.93a10.671 10.671 0 0 0-4.266-2.32c-4.195-5.25-10.645-8.634-17.875-8.634-1.637 0-3.23.18-4.77.508a16.973 16.973 0 0 0-4.437-.613c-6.29 0-11.8 3.332-14.906 8.309h-14.39c-2.743 0-5.24 1.046-7.138 2.75v-6.93c0-3.98 3.153-7.133 7.137-7.133h14.27v-7.133c0-1.02.765-1.785 1.78-1.785Zm6.243 3.566c-1.453 0-2.676 1.227-2.676 2.676 0 1.453 1.223 2.676 2.676 2.676h7.133c1.453 0 2.676-1.223 2.676-2.676 0-1.449-1.223-2.675-2.676-2.675Zm7 10.141c.184 0 .363.024.547.031-8.336 3.426-14.227 11.621-14.227 21.172 0 .918.067 1.82.172 2.711a15.65 15.65 0 0 1-2.277-8.133c0-8.722 7.062-15.78 15.785-15.78Zm9.207 1.215c11.055 0 19.996 8.937 19.996 19.988S60.305 65.277 49.25 65.277c-11.05 0-20-8.945-20-19.996 0-11.05 8.95-19.988 20-19.988Zm0 2.656c-9.559 0-17.336 7.778-17.336 17.332 0 9.559 7.777 17.332 17.336 17.332 9.559 0 17.336-7.773 17.336-17.332 0-9.554-7.777-17.332-17.336-17.332Zm0 1.785c8.594 0 15.55 6.957 15.55 15.547 0 .547-.027 1.082-.081 1.614-4.082-3.946-9.598-6.407-15.719-6.407-5.871 0-11.207 2.258-15.238 5.918-.028-.37-.063-.742-.063-1.125 0-8.59 6.957-15.547 15.551-15.547Zm0 0" fill-rule="evenodd"/></g></svg>