<svg xmlns="http://www.w3.org/2000/svg" width="200" viewBox="0 0 150 150" height="200" version="1.0"><defs><clipPath id="a"><path d="M3.324 16.355h143.25v117H3.324Zm0 0"/></clipPath></defs><path fill="#fff" d="m104.73 97.656-52.386 7.074-7.074-52.386 52.386-7.074 7.074 52.386"/><path fill="#fff" d="m104.73 97.656-.035-.254-52.129 7.035-7.004-51.87 51.872-7.005 7.039 52.13.257-.036-.035-.254.035.254.258-.031-7.074-52.39a.275.275 0 0 0-.098-.172.285.285 0 0 0-.195-.051l-52.387 7.074a.264.264 0 0 0-.222.293l7.074 52.387a.26.26 0 0 0 .293.222l52.387-7.074a.259.259 0 0 0 .171-.098.28.28 0 0 0 .051-.191l-.258.031"/><path fill="#fff" d="m99.984 87.813-45.68 6.164-5.226-38.735 45.68-6.164 5.226 38.734"/><path fill="#fff" d="m99.984 87.813-.035-.258-45.422 6.129-5.16-38.22 45.168-6.093 5.192 38.477.257-.035-.035-.258.035.257.258-.035-5.226-38.734a.26.26 0 0 0-.293-.223l-45.68 6.164a.261.261 0 0 0-.172.102.264.264 0 0 0-.055.191l5.23 38.735a.26.26 0 0 0 .294.222l45.68-6.164a.261.261 0 0 0 .171-.101.244.244 0 0 0 .051-.192l-.258.035"/><path fill="#fff" d="M69.563 62.426a7.448 7.448 0 0 1-6.391 8.383c-4.078.554-7.832-2.309-8.383-6.387a7.46 7.46 0 0 1 6.39-8.387 7.458 7.458 0 0 1 8.383 6.39"/><path fill="#fff" d="m69.563 62.426-.258.035a7.192 7.192 0 0 1-7.14 8.156 7.195 7.195 0 0 1 .019-14.387 7.195 7.195 0 0 1 7.12 6.23l.258-.034.258-.031a7.717 7.717 0 0 0-8.675-6.618 7.72 7.72 0 0 0-6.614 8.68 7.713 7.713 0 0 0 8.676 6.61 7.707 7.707 0 0 0 6.613-8.672l-.257.03M66.207 76.934 82.199 90.19l-27.898 3.766 11.906-17.023"/><path fill="#fff" d="m66.207 76.934-.168.199 7.996 6.629 7.543 6.25-13.363 1.804-13.36 1.805 5.614-8.027 5.953-8.512-.215-.148-.168.199.168-.2-.215-.148-5.949 8.512-5.953 8.512a.26.26 0 0 0 .246.406l27.898-3.766a.26.26 0 0 0 .133-.457l-7.996-6.629-8-6.629a.263.263 0 0 0-.2-.058.267.267 0 0 0-.179.11l.215.148"/><path fill="#fff" d="m82.172 65.594 8.605 11.14 8.606 11.137-27.899 3.766 5.344-13.02 5.344-13.023"/><path fill="#fff" d="m82.172 65.594-.207.16L90.57 76.89l8.332 10.785-13.504 1.82-13.503 1.824 5.175-12.605 5.34-13.024-.238-.097-.207.16.207-.16-.242-.098-5.34 13.02-5.344 13.023a.256.256 0 0 0 .274.356l27.898-3.766a.26.26 0 0 0 .203-.16.257.257 0 0 0-.035-.258l-8.602-11.137-8.609-11.14a.26.26 0 0 0-.445.062l.242.098"/><g clip-path="url(#a)"><path fill="#f36" d="M54.54 16.332c-5.606 0-10.227 4.617-10.227 10.227v6.816h-3.41c0-3.719-3.098-6.816-6.817-6.816h-3.41c-3.719 0-6.82 3.097-6.82 6.816-11.274 0-20.454 9.18-20.454 20.453v42.61c0 11.269 9.18 20.453 20.453 20.453H63.13c8.016 10.16 20.406 16.722 34.324 16.722 14.399 0 27.152-7.023 35.129-17.789 8.121-2.71 14.008-10.367 14.008-19.386v-42.61c0-11.27-9.18-20.453-20.457-20.453H102.27v-6.816c0-5.606-4.622-10.227-10.227-10.227Zm0 6.816h37.503c1.945 0 3.41 1.461 3.41 3.41v13.633h30.68c7.617 0 13.64 6.024 13.64 13.637V67.07c-2.304-2.07-5.093-3.574-8.152-4.433-8.023-10.04-20.348-16.5-34.168-16.5-3.129 0-6.172.34-9.117.968-2.711-.73-5.54-1.171-8.48-1.171-12.02 0-22.555 6.367-28.493 15.882H23.855c-5.238 0-10.011 1.996-13.636 5.25V53.828c0-7.613 6.023-13.637 13.636-13.637H51.13V26.56c0-1.95 1.465-3.41 3.41-3.41Zm11.933 6.817c-2.774 0-5.114 2.34-5.114 5.113 0 2.774 2.34 5.113 5.114 5.113h13.636c2.774 0 5.114-2.34 5.114-5.113 0-2.773-2.34-5.113-5.114-5.113Zm13.382 19.379c.352 0 .692.05 1.043.062-15.93 6.543-27.187 22.215-27.187 40.469 0 1.754.125 3.473.328 5.176-2.75-4.54-4.355-9.84-4.355-15.543 0-16.668 13.496-30.168 30.171-30.168Zm17.598 2.32c21.129 0 38.219 17.086 38.219 38.211 0 21.121-17.09 38.219-38.219 38.219-21.125 0-38.226-17.098-38.226-38.219 0-21.125 17.101-38.21 38.226-38.21Zm0 5.082c-18.27 0-33.133 14.86-33.133 33.129 0 18.266 14.864 33.129 33.133 33.129 18.274 0 33.137-14.863 33.137-33.129 0-18.27-14.863-33.129-33.137-33.129Zm0 3.406c16.426 0 29.727 13.301 29.727 29.723 0 1.04-.055 2.063-.16 3.078-7.801-7.535-18.348-12.238-30.043-12.238-11.223 0-21.422 4.312-29.13 11.312-.05-.715-.117-1.425-.117-2.152 0-16.422 13.301-29.723 29.727-29.723Zm0 0" fill-rule="evenodd"/></g></svg>