<svg xmlns="http://www.w3.org/2000/svg" xmlns:xlink="http://www.w3.org/1999/xlink" width="200" zoomAndPan="magnify" viewBox="0 0 150 149.999998" height="200" preserveAspectRatio="xMidYMid meet" version="1.0"><defs><clipPath id="005097d66e"><path d="M 0 10.875 L 150 10.875 L 150 139.125 L 0 139.125 Z M 0 10.875 " clip-rule="nonzero"/></clipPath></defs><g clip-path="url(#005097d66e)"><path fill="#ff3366" d="M 8.140625 18.355469 L 143.003906 18.355469 L 143.003906 98.890625 L 6.996094 98.890625 L 6.996094 18.355469 Z M 34.84375 45.820312 C 34.40625 45.363281 34.417969 44.640625 34.875 44.203125 C 35.328125 43.765625 36.050781 43.78125 36.488281 44.234375 C 38.890625 46.734375 40.535156 50.25 41.320312 53.941406 C 42.132812 57.746094 42.046875 61.773438 40.957031 65.082031 C 40.761719 65.683594 40.117188 66.011719 39.515625 65.816406 C 38.917969 65.621094 38.589844 64.976562 38.785156 64.375 C 39.746094 61.445312 39.816406 57.84375 39.085938 54.414062 C 38.378906 51.113281 36.9375 47.996094 34.84375 45.820312 Z M 35.167969 70.285156 C 35.609375 69.835938 36.332031 69.824219 36.785156 70.265625 C 37.234375 70.703125 37.246094 71.425781 36.808594 71.878906 C 36.464844 72.226562 36.105469 72.570312 35.71875 72.910156 C 35.347656 73.234375 34.953125 73.554688 34.539062 73.867188 C 34.035156 74.246094 33.316406 74.140625 32.941406 73.636719 C 32.5625 73.132812 32.664062 72.417969 33.167969 72.042969 C 33.53125 71.769531 33.878906 71.488281 34.214844 71.191406 C 34.542969 70.902344 34.863281 70.601562 35.167969 70.285156 Z M 99.75 96.601562 L 99.75 30.464844 C 99.75 29.832031 100.265625 29.320312 100.894531 29.320312 L 130.78125 29.320312 C 131.414062 29.320312 131.929688 29.832031 131.929688 30.464844 L 131.929688 96.601562 L 140.710938 96.601562 L 140.710938 20.644531 L 9.289062 20.644531 L 9.289062 96.601562 L 21.625 96.601562 L 24.511719 78.703125 C 24.089844 78.496094 23.679688 78.269531 23.28125 78.027344 C 19.421875 75.6875 16.957031 71.964844 15.828125 67.878906 C 14.707031 63.820312 14.898438 59.390625 16.355469 55.601562 C 16.710938 54.667969 17.152344 53.765625 17.675781 52.902344 C 18.554688 51.457031 19.480469 50.027344 20.425781 48.578125 C 24.488281 42.339844 28.84375 35.648438 27.027344 31.183594 C 26.789062 30.597656 27.070312 29.929688 27.65625 29.691406 C 28.003906 29.550781 28.378906 29.59375 28.675781 29.773438 C 35.933594 33.363281 41.550781 39.699219 44.742188 46.742188 C 46.484375 50.589844 47.511719 54.664062 47.683594 58.625 C 47.863281 62.621094 47.171875 66.503906 45.484375 69.9375 C 43.691406 73.59375 40.78125 76.726562 36.605469 78.925781 L 38.480469 96.601562 L 58.519531 96.601562 L 58.519531 92.183594 C 58.519531 91.492188 58.796875 90.867188 59.25 90.417969 C 59.699219 89.964844 60.324219 89.6875 61.015625 89.6875 L 64.199219 89.6875 L 64.199219 80.542969 C 64.199219 79.683594 64.550781 78.902344 65.117188 78.335938 C 65.539062 77.910156 66.085938 77.609375 66.691406 77.480469 C 66.910156 75.03125 66.832031 68.261719 60.070312 64.105469 C 59.726562 63.890625 59.570312 63.457031 59.722656 63.066406 L 72.523438 30.222656 C 72.628906 29.867188 72.957031 29.605469 73.347656 29.605469 C 73.738281 29.605469 74.066406 29.867188 74.171875 30.222656 L 86.949219 63 C 87.136719 63.394531 87.003906 63.875 86.625 64.105469 C 79.859375 68.261719 79.78125 75.03125 80.003906 77.484375 C 80.605469 77.609375 81.148438 77.914062 81.574219 78.335938 L 81.578125 78.335938 C 82.144531 78.902344 82.496094 79.683594 82.496094 80.542969 L 82.496094 89.6875 L 85.679688 89.6875 C 86.363281 89.6875 86.988281 89.96875 87.441406 90.421875 L 87.445312 90.417969 C 87.898438 90.867188 88.175781 91.492188 88.175781 92.183594 L 88.175781 96.601562 Z M 129.636719 96.601562 L 129.636719 31.609375 L 102.042969 31.609375 L 102.042969 96.601562 Z M 25.09375 96.601562 L 35.035156 96.601562 L 33.292969 80.179688 L 27.769531 80.007812 Z M 61.953125 96.601562 L 84.742188 96.601562 L 84.742188 93.121094 L 61.953125 93.121094 Z M 66.488281 89.6875 L 80.203125 89.6875 L 80.203125 80.542969 C 80.203125 80.316406 80.109375 80.105469 79.957031 79.953125 L 79.960938 79.949219 L 79.957031 79.949219 C 79.808594 79.800781 79.597656 79.707031 79.367188 79.707031 L 67.328125 79.707031 C 67.097656 79.707031 66.886719 79.800781 66.738281 79.953125 C 66.585938 80.105469 66.488281 80.316406 66.488281 80.542969 Z M 78.28125 77.417969 C 78.074219 74.546875 78.355469 67.570312 85.121094 63.03125 L 74.207031 35.027344 L 74.207031 53.957031 C 74.921875 54.121094 75.566406 54.488281 76.070312 54.992188 C 76.765625 55.691406 77.199219 56.652344 77.199219 57.710938 C 77.199219 58.777344 76.765625 59.738281 76.070312 60.4375 C 75.375 61.132812 74.410156 61.566406 73.347656 61.566406 C 72.285156 61.566406 71.320312 61.132812 70.625 60.4375 C 69.925781 59.738281 69.496094 58.777344 69.496094 57.710938 C 69.496094 56.648438 69.925781 55.6875 70.625 54.988281 C 71.128906 54.484375 71.769531 54.121094 72.488281 53.957031 L 72.488281 35.027344 L 61.570312 63.03125 C 68.339844 67.570312 68.621094 74.546875 68.414062 77.417969 Z M 74.453125 56.605469 C 74.171875 56.324219 73.78125 56.152344 73.347656 56.152344 C 72.914062 56.152344 72.523438 56.324219 72.242188 56.609375 C 71.960938 56.890625 71.785156 57.28125 71.785156 57.710938 C 71.785156 58.144531 71.960938 58.535156 72.242188 58.816406 C 72.523438 59.097656 72.914062 59.273438 73.347656 59.273438 C 73.777344 59.273438 74.167969 59.097656 74.453125 58.816406 C 74.734375 58.535156 74.910156 58.144531 74.910156 57.714844 C 74.910156 57.277344 74.734375 56.886719 74.453125 56.605469 Z M 48.109375 129.148438 L 54.167969 129.148438 C 55.605469 127.613281 56.703125 125.851562 57.507812 124.003906 C 58.363281 122.03125 58.886719 119.960938 59.128906 117.960938 L 8.425781 117.960938 C 6.105469 117.960938 4 117.015625 2.472656 115.488281 C 0.949219 113.960938 0 111.855469 0 109.535156 L 0 19.367188 C 0 17.046875 0.949219 14.941406 2.472656 13.414062 C 4 11.886719 6.105469 10.941406 8.425781 10.941406 L 141.574219 10.941406 C 143.894531 10.941406 146 11.886719 147.527344 13.414062 C 149.050781 14.941406 150 17.046875 150 19.367188 L 150 109.535156 C 150 111.855469 149.050781 113.960938 147.527344 115.488281 C 146 117.015625 143.894531 117.960938 141.574219 117.960938 L 90.871094 117.960938 C 91.113281 119.960938 91.636719 122.03125 92.492188 124.003906 C 93.296875 125.851562 94.394531 127.613281 95.832031 129.148438 L 101.890625 129.148438 C 103.253906 129.148438 104.492188 129.707031 105.390625 130.601562 C 106.289062 131.5 106.84375 132.738281 106.84375 134.105469 L 106.84375 137.339844 C 106.84375 138.289062 106.074219 139.058594 105.128906 139.058594 L 44.871094 139.058594 C 43.925781 139.058594 43.15625 138.289062 43.15625 137.339844 L 43.15625 134.105469 C 43.15625 132.738281 43.710938 131.5 44.609375 130.601562 C 45.507812 129.707031 46.746094 129.148438 48.109375 129.148438 Z M 57.148438 129.148438 L 92.851562 129.148438 C 91.855469 127.824219 91.042969 126.394531 90.398438 124.914062 C 89.410156 122.644531 88.824219 120.257812 88.570312 117.960938 L 61.429688 117.960938 C 61.175781 120.257812 60.589844 122.644531 59.601562 124.914062 C 58.957031 126.394531 58.144531 127.824219 57.148438 129.148438 Z M 101.890625 132.585938 L 48.109375 132.585938 C 47.695312 132.585938 47.3125 132.753906 47.039062 133.03125 C 46.761719 133.308594 46.589844 133.6875 46.589844 134.105469 L 46.589844 135.625 L 103.410156 135.625 L 103.410156 134.105469 C 103.410156 133.6875 103.238281 133.308594 102.960938 133.03125 C 102.6875 132.753906 102.304688 132.585938 101.890625 132.585938 Z M 75 103.386719 C 76.238281 103.386719 77.359375 103.886719 78.167969 104.699219 C 78.980469 105.507812 79.480469 106.628906 79.480469 107.867188 C 79.480469 109.105469 78.980469 110.226562 78.167969 111.035156 L 78.117188 111.082031 C 77.308594 111.867188 76.210938 112.347656 75 112.347656 C 73.765625 112.347656 72.644531 111.847656 71.832031 111.035156 L 71.832031 111.03125 C 71.019531 110.222656 70.519531 109.101562 70.519531 107.867188 C 70.519531 106.632812 71.019531 105.511719 71.832031 104.699219 C 72.640625 103.886719 73.761719 103.386719 75 103.386719 Z M 76.953125 105.910156 C 76.453125 105.414062 75.761719 105.101562 75 105.101562 C 74.234375 105.101562 73.546875 105.414062 73.046875 105.910156 L 73.042969 105.910156 C 72.542969 106.410156 72.234375 107.101562 72.234375 107.867188 C 72.234375 108.632812 72.542969 109.324219 73.042969 109.824219 C 73.542969 110.320312 74.234375 110.628906 75 110.628906 C 75.746094 110.628906 76.421875 110.335938 76.917969 109.859375 L 76.953125 109.820312 C 77.453125 109.320312 77.765625 108.628906 77.765625 107.867188 C 77.765625 107.101562 77.453125 106.414062 76.953125 105.910156 Z M 141.574219 14.375 L 8.425781 14.375 C 7.054688 14.375 5.808594 14.9375 4.902344 15.84375 C 3.996094 16.75 3.433594 17.996094 3.433594 19.367188 L 3.433594 109.535156 C 3.433594 110.90625 3.996094 112.152344 4.902344 113.058594 C 5.808594 113.964844 7.054688 114.527344 8.425781 114.527344 L 141.574219 114.527344 C 142.945312 114.527344 144.191406 113.964844 145.097656 113.058594 C 146.003906 112.152344 146.566406 110.90625 146.566406 109.535156 L 146.566406 19.367188 C 146.566406 17.996094 146.003906 16.75 145.097656 15.84375 C 144.191406 14.9375 142.945312 14.375 141.574219 14.375 Z M 25.601562 76.695312 C 25.851562 76.582031 26.128906 76.523438 26.417969 76.539062 L 34.886719 76.804688 C 35.097656 76.8125 35.300781 76.855469 35.484375 76.929688 C 39.242188 74.964844 41.84375 72.179688 43.4375 68.9375 C 44.949219 65.859375 45.5625 62.351562 45.402344 58.722656 C 45.242188 55.0625 44.285156 51.277344 42.65625 47.679688 C 39.976562 41.769531 35.488281 36.398438 29.71875 32.9375 C 30.003906 38.046875 26.058594 44.109375 22.339844 49.820312 C 21.378906 51.300781 20.433594 52.75 19.625 54.082031 C 19.1875 54.804688 18.808594 55.585938 18.492188 56.414062 C 17.207031 59.761719 17.035156 63.679688 18.027344 67.269531 C 19.011719 70.832031 21.144531 74.0625 24.464844 76.078125 C 24.824219 76.296875 25.203125 76.503906 25.601562 76.695312 Z M 115.253906 38.503906 C 114.777344 38.503906 114.394531 38.121094 114.394531 37.644531 C 114.394531 37.171875 114.777344 36.785156 115.253906 36.785156 L 124.695312 36.785156 C 125.167969 36.785156 125.554688 37.171875 125.554688 37.644531 C 125.554688 38.121094 125.167969 38.503906 124.695312 38.503906 Z M 115.253906 59.855469 C 114.777344 59.855469 114.394531 59.472656 114.394531 58.996094 C 114.394531 58.523438 114.777344 58.140625 115.253906 58.140625 L 124.695312 58.140625 C 125.167969 58.140625 125.554688 58.523438 125.554688 58.996094 C 125.554688 59.472656 125.167969 59.855469 124.695312 59.855469 Z M 115.253906 81.207031 C 114.777344 81.207031 114.394531 80.824219 114.394531 80.347656 C 114.394531 79.875 114.777344 79.492188 115.253906 79.492188 L 124.695312 79.492188 C 125.167969 79.492188 125.554688 79.875 125.554688 80.347656 C 125.554688 80.824219 125.167969 81.207031 124.695312 81.207031 Z M 119.480469 49.179688 C 119.007812 49.179688 118.625 48.796875 118.625 48.320312 C 118.625 47.847656 119.007812 47.460938 119.480469 47.460938 L 124.695312 47.460938 C 125.167969 47.460938 125.554688 47.847656 125.554688 48.320312 C 125.554688 48.796875 125.167969 49.179688 124.695312 49.179688 Z M 119.480469 70.53125 C 119.007812 70.53125 118.625 70.148438 118.625 69.675781 C 118.625 69.199219 119.007812 68.816406 119.480469 68.816406 L 124.695312 68.816406 C 125.167969 68.816406 125.554688 69.199219 125.554688 69.675781 C 125.554688 70.148438 125.167969 70.53125 124.695312 70.53125 Z M 119.480469 91.882812 C 119.007812 91.882812 118.625 91.5 118.625 91.027344 C 118.625 90.550781 119.007812 90.167969 119.480469 90.167969 L 124.695312 90.167969 C 125.167969 90.167969 125.554688 90.550781 125.554688 91.027344 C 125.554688 91.5 125.167969 91.882812 124.695312 91.882812 Z M 119.480469 91.882812 " fill-opacity="1" fill-rule="nonzero"/></g></svg>