<svg xmlns="http://www.w3.org/2000/svg" width="100" viewBox="0 0 75 75" height="100" version="1.0"><defs><clipPath id="a"><path d="M.516 0h74.25v75H.516Zm0 0"/></clipPath></defs><g clip-path="url(#a)"><path fill="#f36" d="M67.746 7.547h-5.644l.5-1.129a1.202 1.202 0 0 0-.25-1.344L60.027 2.75a1.21 1.21 0 0 0-1.347-.25l-1.41.625c-.7-.379-1.434-.684-2.196-.91L54.52.773A1.212 1.212 0 0 0 53.39 0h-3.288c-.5 0-.95.309-1.13.773l-.55 1.442c-.762.226-1.5.531-2.2.91l-1.41-.625a1.21 1.21 0 0 0-1.347.25L41.14 5.074a1.209 1.209 0 0 0-.25 1.344l.504 1.129h-3.762v-2.48a3.9 3.9 0 0 0-3.899-3.899H32.66a3.902 3.902 0 0 0-3.898 3.898v2.48H7.238a6.713 6.713 0 0 0-6.707 6.708V52.07c0 3.696 3.008 6.707 6.707 6.707h17.809v6.313H17.89c-3.254 0-5.899 2.222-5.899 4.957v3.742c0 .668.543 1.211 1.211 1.211h48.582c.668 0 1.207-.543 1.207-1.21v-3.747c0-2.73-2.644-4.953-5.894-4.953h-7.16v-6.313h17.808c3.7 0 6.707-3.011 6.707-6.707V14.254c0-3.7-3.008-6.707-6.707-6.707Zm-24.953 3.668a9.09 9.09 0 0 1 1.11-2.68c.21-.34.238-.762.077-1.125l-.539-1.215 1.149-1.148 1.215.539c.363.16.785.133 1.125-.074a9.118 9.118 0 0 1 2.68-1.114c.386-.093.703-.37.847-.742l.477-1.238h1.625l.476 1.238c.145.371.461.649.852.742a9.206 9.206 0 0 1 2.68 1.114c.34.207.757.234 1.124.074l1.211-.54 1.153 1.15-.54 1.214a1.21 1.21 0 0 0 .075 1.125 9.206 9.206 0 0 1 1.113 2.68c.09.39.367.707.742.848l1.235.476v1.629l-1.235.473a1.2 1.2 0 0 0-.742.851 9.206 9.206 0 0 1-1.113 2.68 1.21 1.21 0 0 0-.074 1.125l.539 1.215-1.153 1.148-1.21-.539a1.22 1.22 0 0 0-1.126.074 9.206 9.206 0 0 1-2.68 1.114c-.39.093-.706.37-.85.742l-.477 1.238h-1.625l-.477-1.238a1.21 1.21 0 0 0-.848-.742 9.014 9.014 0 0 1-2.68-1.114 1.228 1.228 0 0 0-1.128-.074l-1.211.54-1.149-1.15.54-1.214a1.21 1.21 0 0 0-.079-1.125 9.196 9.196 0 0 1-1.109-2.68 1.21 1.21 0 0 0-.742-.847l-1.239-.477v-1.629l1.239-.473c.37-.144.648-.46.742-.851ZM28.922 32.988l3.226 5.59c.22.375.618.606 1.051.606.43 0 .828-.23 1.047-.606l3.227-5.59c.105-.183.16-.39.16-.605v-17.82h.762v.433c0 .5.308.95.773 1.129l1.437.555c.227.761.536 1.496.915 2.199l-.63 1.41c-.203.457-.1.992.25 1.344l2.325 2.324c.355.355.89.453 1.347.25l1.41-.625c.7.379 1.438.684 2.2.91l.55 1.442c.18.464.63.773 1.13.773h3.289c.5 0 .949-.309 1.129-.773l.554-1.442a11.464 11.464 0 0 0 2.196-.91l1.41.625a1.21 1.21 0 0 0 1.347-.25l2.325-2.324c.351-.352.453-.887.25-1.344l-.625-1.41c.378-.7.683-1.438.91-2.2l1.437-.554a1.21 1.21 0 0 0 .778-1.129v-.434h2.335v32.536H7.547V14.563h21.215v17.82c0 .215.054.422.16.605Zm3.144.606h2.262l-1.129 1.96Zm8.559-23.63c-.004.024-.012.044-.02.063l-1.437.555c-.465.18-.773.629-.773 1.129v.434h-.762v-2.18ZM32.66 3.587h1.074c.817 0 1.48.664 1.48 1.48v26.11H31.18V5.066c0-.816.664-1.48 1.48-1.48Zm27.914 66.457v2.539H14.41v-2.539c0-1.371 1.594-2.535 3.48-2.535h39.204c1.886 0 3.48 1.164 3.48 2.535ZM47.52 65.09H27.465v-6.313H47.52Zm24.515-13.02a4.293 4.293 0 0 1-4.289 4.285H7.238A4.293 4.293 0 0 1 2.95 52.07V14.254a4.296 4.296 0 0 1 4.29-4.29h21.523v2.18H7.102c-1.09 0-1.973.883-1.973 1.973V48.31c0 .668.539 1.207 1.207 1.207h62.312c.668 0 1.207-.54 1.207-1.207V14.117c0-1.09-.882-1.972-1.972-1.972h-2.781v-.434c0-.5-.309-.95-.778-1.129l-1.437-.555c-.008-.02-.012-.039-.02-.062h4.88a4.296 4.296 0 0 1 4.288 4.289ZM51.746 20.297c3.828 0 6.941-3.117 6.941-6.942 0-3.828-3.113-6.945-6.94-6.945-3.829 0-6.942 3.117-6.942 6.945 0 3.825 3.113 6.942 6.941 6.942Zm0-11.465a4.525 4.525 0 0 1 4.524 4.52 4.526 4.526 0 0 1-4.524 4.523 4.529 4.529 0 0 1-4.523-4.523 4.528 4.528 0 0 1 4.523-4.52Zm-1.988 34.004 3.117-11.625a1.21 1.21 0 0 1 2.336.625l-3.117 11.629a1.209 1.209 0 0 1-2.336-.63Zm-8.164-5.5c0-.356.156-.695.43-.922l5.074-4.277a1.21 1.21 0 1 1 1.558 1.847l-3.976 3.352 3.976 3.355a1.208 1.208 0 1 1-1.558 1.848l-5.075-4.277a1.205 1.205 0 0 1-.43-.926Zm14.718 3.355 3.977-3.355-3.977-3.352a1.204 1.204 0 0 1-.144-1.703 1.204 1.204 0 0 1 1.703-.144l5.074 4.277a1.201 1.201 0 0 1 0 1.848l-5.074 4.277a1.203 1.203 0 0 1-.777.285c-.348 0-.688-.144-.926-.43a1.204 1.204 0 0 1 .145-1.703Zm-44.66.989H36.84c.668 0 1.207.543 1.207 1.21 0 .669-.54 1.212-1.207 1.212H11.652a1.209 1.209 0 0 1-1.207-1.211c0-.668.54-1.211 1.207-1.211Zm-1.293-8.547c0-.668.54-1.207 1.207-1.207h13.09a1.209 1.209 0 0 1 0 2.418h-13.09a1.209 1.209 0 0 1-1.207-1.211Zm.043 4.879c0-.668.54-1.207 1.207-1.207H24.7a1.209 1.209 0 0 1 0 2.418H11.61a1.209 1.209 0 0 1-1.207-1.211Zm.043-19.512c0-.668.54-1.21 1.207-1.21h13.09c.668 0 1.207.542 1.207 1.21 0 .668-.539 1.21-1.207 1.21h-13.09a1.209 1.209 0 0 1-1.207-1.21Zm-.043 4.879c0-.668.54-1.211 1.207-1.211H24.7a1.209 1.209 0 0 1 0 2.418H11.61c-.668 0-1.207-.54-1.207-1.207Zm-.043 4.879c0-.668.54-1.211 1.207-1.211h13.09a1.209 1.209 0 0 1 0 2.418h-13.09c-.668 0-1.207-.54-1.207-1.207Zm0 0"/></g></svg>