<svg xmlns="http://www.w3.org/2000/svg" width="200" viewBox="0 0 150 150" height="200" version="1.0"><defs><clipPath id="a"><path d="M30 123h90v21.844H30Zm0 0"/></clipPath><clipPath id="b"><path d="M38 5.344h74V80H38Zm0 0"/></clipPath></defs><g clip-path="url(#a)"><path fill="#f36" d="M117.023 139.691h-23.41v-15.957H56.387v15.957h-23.41a2.483 2.483 0 0 0-2.485 2.485 2.489 2.489 0 0 0 2.485 2.488h84.046a2.486 2.486 0 0 0 0-4.973Zm0 0"/></g><path fill="#f36" d="M134.66 40.344h-16.894v4.968h16.894c5.7 0 10.336 4.637 10.336 10.336v55.262c0 5.7-4.637 10.336-10.336 10.336H15.34c-5.7 0-10.336-4.637-10.336-10.336V55.648c0-5.699 4.637-10.336 10.336-10.336h16.894v-4.968H15.34C6.898 40.344.035 47.21.035 55.648v55.262c0 8.438 6.863 15.305 15.305 15.305h119.32c8.442 0 15.305-6.867 15.305-15.305V55.648c0-8.437-6.863-15.304-15.305-15.304Zm0 0"/><g clip-path="url(#b)"><path fill="#f36" d="M108.723 34.598h-4.739a1.196 1.196 0 0 0-.027-.094.652.652 0 0 1-.023-.078c-.055-.219-.121-.438-.188-.66-.05-.164-.098-.336-.156-.508-.043-.153-.094-.297-.137-.442a7.756 7.756 0 0 1-.078-.222c-.07-.2-.137-.403-.215-.598-.086-.23-.168-.457-.262-.683-.085-.231-.18-.454-.273-.676-.094-.23-.195-.45-.293-.668a36.22 36.22 0 0 0-.262-.563c-.113-.25-.234-.5-.367-.746-.105-.203-.207-.406-.316-.605a1.043 1.043 0 0 0-.047-.094c-.11-.18-.203-.367-.313-.55-.027-.052-.054-.102-.086-.153l3.352-3.352a3.244 3.244 0 0 0 0-4.586l-6.313-6.312c-.043-.043-.085-.086-.136-.121a3.232 3.232 0 0 0-4.446.12l-3.351 3.352a2.997 2.997 0 0 0-.152-.086c-.18-.105-.368-.203-.551-.308a.572.572 0 0 0-.094-.05c-.2-.106-.398-.212-.602-.317-.25-.13-.5-.254-.75-.368-.183-.09-.37-.18-.558-.261-.223-.098-.442-.2-.672-.293-.227-.094-.445-.188-.676-.274-.226-.093-.453-.18-.683-.257-.196-.079-.399-.145-.598-.22a1.901 1.901 0 0 1-.223-.077c-.14-.043-.293-.094-.437-.137-.172-.055-.344-.106-.512-.156a24.341 24.341 0 0 0-.66-.188c-.024-.004-.047-.012-.063-.015-.004-.004-.011-.004-.011-.004a.527.527 0 0 0-.094-.032V8.582c0-.773-.277-1.488-.73-2.043a3.212 3.212 0 0 0-2.516-1.2h-8.922a3.223 3.223 0 0 0-2.516 1.2 3.234 3.234 0 0 0-.726 2.043v4.738c-.035.008-.059.016-.094.028l-.078.023c-.223.055-.442.121-.664.188-.164.05-.336.101-.508.156-.148.043-.297.094-.441.137-.07.027-.149.058-.22.078-.202.074-.405.136-.597.215-.23.085-.46.168-.683.261-.235.086-.454.18-.68.274-.223.093-.445.195-.668.293-.188.086-.375.172-.559.261-.254.114-.504.235-.75.368-.203.105-.402.21-.601.316a.37.37 0 0 0-.094.05c-.184.106-.371.204-.555.31-.05.027-.097.054-.148.085l-3.36-3.351a3.228 3.228 0 0 0-4.445-.121c-.05.035-.093.078-.136.12l-6.313 6.313a3.244 3.244 0 0 0 0 4.586l3.352 3.352c-.036.05-.059.101-.086.148-.11.184-.203.371-.313.555-.02.035-.035.066-.047.094-.11.199-.21.398-.316.601-.133.25-.254.496-.367.75-.09.184-.18.371-.262.559-.098.222-.2.441-.293.668-.094.226-.188.449-.273.68-.094.226-.18.453-.262.683-.078.195-.145.398-.215.598-.023.07-.05.148-.078.222-.043.14-.094.293-.137.438-.058.172-.105.344-.156.512-.066.222-.133.437-.188.66-.011.027-.015.058-.023.078a.848.848 0 0 0-.027.094h-4.739a3.244 3.244 0 0 0-3.242 3.242v8.926a3.244 3.244 0 0 0 3.242 3.242h4.739a.848.848 0 0 0 .027.093c.008.02.016.051.023.079.055.222.121.441.188.66.05.168.098.34.156.511.043.149.094.297.137.438.027.074.055.152.078.223.07.199.137.402.215.597.086.23.168.461.262.684.086.23.18.453.273.68.094.226.195.445.293.668.086.187.172.375.262.558.113.254.234.504.367.75.105.203.207.402.316.602.012.027.028.058.047.093.11.18.203.368.313.555.027.047.054.098.086.149l-3.352 3.351a3.244 3.244 0 0 0 0 4.586l6.313 6.313a3.244 3.244 0 0 0 4.585 0l3.352-3.352c.05.035.102.059.148.086.184.11.372.203.555.312.035.02.067.036.094.047.2.11.394.211.601.317.25.133.497.254.75.367.18.09.368.18.56.262.222.097.44.199.667.293.23.093.45.187.68.273.226.094.453.18.683.262.196.078.399.144.598.215.07.02.148.05.219.078.144.043.297.093.441.136.172.055.344.106.512.157.219.066.437.132.66.187.027.012.055.016.078.024.035.011.059.02.094.027v4.738a3.244 3.244 0 0 0 3.242 3.242h8.926a3.244 3.244 0 0 0 3.242-3.242v-4.738a.848.848 0 0 0 .094-.027.652.652 0 0 1 .078-.024c.219-.055.437-.12.66-.187.168-.051.34-.102.512-.157.148-.043.297-.093.437-.136.075-.028.153-.059.223-.078.2-.07.402-.137.598-.215.23-.086.457-.168.683-.262.23-.086.453-.18.676-.273.227-.094.45-.196.672-.293.187-.086.375-.172.558-.262.25-.113.5-.234.75-.367.204-.106.403-.207.602-.317.027-.011.059-.027.094-.047.18-.109.367-.203.55-.312.051-.027.102-.055.153-.086l3.351 3.352a3.244 3.244 0 0 0 4.586 0l6.313-6.313a3.244 3.244 0 0 0 0-4.586l-3.352-3.351c.035-.051.059-.102.086-.149.106-.183.203-.371.309-.555a.573.573 0 0 0 .05-.093c.106-.2.212-.395.317-.602.133-.25.254-.496.367-.75.09-.183.18-.367.262-.558.098-.223.2-.442.293-.668.094-.227.187-.45.273-.68.094-.223.18-.453.262-.684.078-.195.14-.398.215-.597.02-.07.05-.149.078-.223.043-.14.094-.293.137-.438.054-.171.105-.343.156-.511.066-.219.129-.438.188-.66.011-.028.015-.059.019-.079a.44.44 0 0 0 .031-.093h4.739a3.244 3.244 0 0 0 3.242-3.242v-8.926a3.25 3.25 0 0 0-3.246-3.246ZM90.926 57.75c-.13.133-.262.266-.395.398-.293.29-.586.563-.89.82a22.024 22.024 0 0 1-5.207 3.418 6.544 6.544 0 0 1-.418.188c-.262.121-.528.23-.786.332-.164.07-.335.13-.507.2-.254.093-.512.18-.77.265-.18.059-.348.117-.523.164-.172.059-.344.11-.512.153-.09.027-.172.046-.262.07-.078.023-.156.039-.23.054 2.238-2.195 4.054-5.73 5.215-10.117a58.7 58.7 0 0 1 7.195 1.797.676.676 0 0 1-.055.078.596.596 0 0 1-.062.086c-.137.188-.281.367-.422.547-.297.375-.61.734-.93 1.082-.144.156-.297.313-.441.465ZM75 64.492c-.086 0-.172 0-.258-.008-.047-.004-.09-.004-.133-.011-1.816-.157-3.53-1.403-4.996-3.434-1.394-1.93-2.57-4.559-3.41-7.644a59.16 59.16 0 0 1 11.469-.59c1.66.07 3.324.215 4.969.43.386.042.773.1 1.16.16-1.754 6.421-4.95 10.878-8.543 11.09-.086.007-.172.007-.258.007Zm-15.438-6.254c-.164-.156-.324-.32-.488-.488-.156-.164-.32-.328-.469-.5-.136-.145-.261-.29-.39-.438-.172-.199-.344-.402-.512-.613-.14-.18-.285-.36-.422-.547l-.117-.16a59.602 59.602 0 0 1 7.195-1.797c.782 2.95 1.864 5.52 3.164 7.559a14.855 14.855 0 0 0 2.051 2.559c-.078-.016-.156-.032-.23-.055-.09-.024-.172-.043-.262-.07a6.348 6.348 0 0 1-.512-.153c-.175-.047-.343-.105-.523-.164-.254-.086-.512-.172-.77-.266-.172-.066-.343-.128-.507-.199-.258-.101-.524-.21-.786-.332a6.544 6.544 0 0 1-.418-.187 21.547 21.547 0 0 1-2.109-1.137 21.518 21.518 0 0 1-2.918-2.129c-.16-.137-.324-.273-.477-.418-.167-.144-.332-.305-.5-.465Zm-5.78-9.449a21.773 21.773 0 0 1-.942-5.57h10.137c.058 3.101.394 6.039.964 8.715a59.49 59.49 0 0 0-7.836 1.992 21.853 21.853 0 0 1-2.324-5.137Zm4.823-21.43c.157-.172.313-.336.47-.504.16-.164.323-.324.487-.488.168-.156.333-.32.497-.469.156-.14.316-.28.476-.418a21.908 21.908 0 0 1 5.031-3.261c.137-.067.282-.133.418-.188.262-.125.528-.23.786-.332.164-.07.335-.133.507-.199.254-.094.512-.184.77-.266.18-.058.348-.117.523-.168a9.31 9.31 0 0 1 .512-.148c.09-.027.172-.05.262-.07.078-.024.156-.04.23-.059-2.238 2.2-4.054 5.734-5.215 10.117a57.483 57.483 0 0 1-7.195-1.797l.117-.156c.137-.187.282-.371.422-.547.168-.21.34-.418.512-.613.133-.148.262-.29.39-.434Zm22.051-6.511c.09.023.172.047.262.074.168.043.34.094.512.148.175.051.343.106.523.168.29.094.574.192.863.301.137.05.274.106.414.16.258.102.524.207.786.332.136.055.28.121.418.188a22.059 22.059 0 0 1 5.207 3.414c.3.262.597.539.89.824l.395.395c.148.156.297.308.437.468.325.348.633.707.93 1.086.144.176.285.36.426.547.02.027.043.055.058.082l.055.078a58.523 58.523 0 0 1-7.195 1.797c-.715-2.687-1.676-5.062-2.825-7.004-.726-1.218-1.523-2.27-2.394-3.113.082.016.16.035.238.055ZM64.793 41.395c.055-2.977.402-5.825.969-8.407a61.26 61.26 0 0 0 9.234.703 53.4 53.4 0 0 0 2.848-.074c1.66-.07 3.32-.215 4.969-.43.472-.058.949-.128 1.417-.199.567 2.586.918 5.43.973 8.407Zm20.414 1.824a43.252 43.252 0 0 1-.969 8.402c-.476-.07-.957-.137-1.437-.2a56.413 56.413 0 0 0-4.957-.429c-4.04-.187-8.11.024-12.078.63a42.952 42.952 0 0 1-.97-8.403Zm-2.39-15.008c.363.941.695 1.945.984 3.004a17.05 17.05 0 0 1-.985.14 58.761 58.761 0 0 1-4.972.446 60.016 60.016 0 0 1-11.64-.586c1.796-6.578 5.105-11.086 8.8-11.086.984 0 1.937.32 2.844.91 1.953 1.273 3.68 3.816 4.968 7.172ZM63.94 32.68c-.574 2.672-.91 5.61-.964 8.715H52.84a21.97 21.97 0 0 1 3.27-10.711 59.29 59.29 0 0 0 7.831 1.996ZM86.06 51.934c.574-2.676.91-5.614.964-8.715H97.16a21.914 21.914 0 0 1-3.27 10.707 58.828 58.828 0 0 0-7.831-1.992Zm.964-10.54c-.058-3.105-.394-6.042-.964-8.714a59.659 59.659 0 0 0 7.836-1.996c1 1.62 1.777 3.343 2.332 5.144.543 1.793.867 3.664.937 5.567Zm0 0"/></g><path fill="#f36" d="M64.527 111.578c-.422 0-.84-.16-1.164-.48l-8.945-8.95a1.64 1.64 0 0 1 0-2.32l8.82-8.82a1.64 1.64 0 1 1 2.32 2.324l-7.652 7.656 7.782 7.785c.64.641.64 1.68 0 2.325-.32.32-.739.48-1.16.48ZM85.473 111.578c-.422 0-.84-.16-1.16-.48a1.646 1.646 0 0 1 0-2.325l7.78-7.785-7.652-7.656a1.64 1.64 0 1 1 2.32-2.324l8.821 8.82a1.641 1.641 0 0 1 0 2.32l-8.945 8.95c-.325.32-.746.48-1.164.48ZM71.664 112.137c-.187 0-.375-.032-.562-.102a1.64 1.64 0 0 1-.98-2.105l6.671-18.32a1.638 1.638 0 0 1 2.105-.981 1.64 1.64 0 0 1 .98 2.105l-6.671 18.32a1.64 1.64 0 0 1-1.543 1.083ZM128.95 97.781h-20.68a1.933 1.933 0 1 0 0 3.867h20.68a1.933 1.933 0 1 0 0-3.867ZM41.73 97.781H21.05a1.933 1.933 0 1 0 0 3.867h20.68a1.933 1.933 0 1 0 0-3.867Zm0 0"/></svg>