<svg xmlns="http://www.w3.org/2000/svg" width="200" viewBox="0 0 150 150" height="200" version="1.0"><defs><clipPath id="a"><path d="M45 51h60v48H45Zm0 0"/></clipPath><clipPath id="b"><path d="M8.633 7.707h132.75v134.25H8.633Zm0 0"/></clipPath></defs><path fill="#fff" d="M87.5 67.559c-7.055 0-12.793 5.742-12.793 12.796 0 7.055 5.738 12.793 12.793 12.793 7.059 0 12.797-5.738 12.797-12.793 0-7.058-5.738-12.796-12.797-12.796Zm10.758 11.8h-2.106c-.086-2.746-.808-5.347-2.09-7.566a10.773 10.773 0 0 1 4.196 7.566Zm-9.735 11.75H88.5v-9.754h5.605c-.39 4.11-2.449 7.747-5.582 9.754Zm-7.683-9.757h5.668v9.757c-.028-.004-.059-.004-.086-.004-3.133-2.007-5.188-5.64-5.582-9.753Zm4.11-11.48a10.23 10.23 0 0 1 1.558-.27v9.757h-5.723c.14-3.71 1.664-7.203 4.164-9.488Zm3.546 9.487v-9.757c.504.046.996.132 1.48.246 2.512 2.293 4.044 5.793 4.188 9.511Zm-7.664-7.488c-1.25 2.203-1.953 4.777-2.039 7.488H76.75a10.798 10.798 0 0 1 4.082-7.488Zm-4.082 9.48h2.102c.257 3.098 1.355 5.97 3.097 8.258-2.87-1.73-4.879-4.75-5.199-8.257Zm16.188 8.325c1.777-2.301 2.894-5.196 3.16-8.324h2.16c-.328 3.554-2.387 6.605-5.32 8.324ZM51.984 86.008l-2.593 2.594 3.457 3.46 2.597-2.597 2.942 2.945 3.703-13.05-13.047 3.703Zm.864-1.953 6.351-1.805-1.8 6.352-1.954-1.954-2.597 2.598-.641-.644 2.598-2.594ZM62.95 77.098l3.206-3.211 1.406 1.41-3.207 3.207ZM58.281 71.16h1.992v4.535h-1.992ZM65.715 81.133h4.535v1.992h-4.535Zm0 0"/><g clip-path="url(#a)"><path fill="#fff" d="M45.125 51.059v48.086h59.75V51.059Zm57.758 1.992v9.101H47.117v-9.101ZM47.117 97.148V64.145h55.766v33.003Zm0 0"/></g><path fill="#fff" d="m96.758 60.395 1.23-1.23 1.23 1.23 1.41-1.407-1.23-1.234 1.23-1.227-1.41-1.41-1.23 1.23-1.23-1.23-1.406 1.41 1.226 1.227-1.226 1.234ZM88.852 56.75h4.109v1.988h-4.11ZM51.695 60.738a3 3 0 0 0 2.996-2.996 3.002 3.002 0 0 0-2.996-2.996 3 3 0 0 0-2.996 2.996 3 3 0 0 0 2.996 2.996Zm0-4a1.004 1.004 0 1 1 0 2.007 1.004 1.004 0 0 1 0-2.007ZM60.523 60.738a3 3 0 0 0 2.997-2.996 3.002 3.002 0 0 0-2.997-2.996 3 3 0 0 0-2.996 2.996 3 3 0 0 0 2.996 2.996Zm0-4a1.004 1.004 0 1 1 .001 2.007 1.004 1.004 0 0 1 0-2.007Zm0 0"/><g clip-path="url(#b)"><path fill="#f36" d="M129.27 21.25h-10.13l.9-2.023a2.173 2.173 0 0 0-.45-2.415l-4.172-4.171a2.167 2.167 0 0 0-2.414-.45l-2.531 1.125a20.458 20.458 0 0 0-3.946-1.636l-.992-2.582a2.177 2.177 0 0 0-2.027-1.391h-5.899c-.894 0-1.703.555-2.023 1.39l-.992 2.583a20.356 20.356 0 0 0-3.946 1.636l-2.53-1.125a2.166 2.166 0 0 0-2.415.45l-4.172 4.168a2.18 2.18 0 0 0-.449 2.418l.898 2.023h-6.742v-4.453c0-3.856-3.14-6.996-6.996-6.996h-1.93c-3.859 0-6.996 3.14-6.996 6.996v4.453h-38.62c-6.637 0-12.036 5.398-12.036 12.035v67.856c0 6.632 5.399 12.035 12.035 12.035h31.953v11.328h-12.84c-5.835 0-10.581 3.988-10.581 8.89v6.72c0 1.198.972 2.171 2.168 2.171h87.175c1.2 0 2.168-.972 2.168-2.172v-6.718c0-4.903-4.746-8.891-10.582-8.891h-12.84v-11.332h31.954c6.636 0 12.035-5.399 12.035-12.031V33.285c0-6.637-5.399-12.035-12.035-12.035Zm-44.778 6.582a16.358 16.358 0 0 1 1.992-4.809c.375-.609.426-1.367.137-2.02l-.965-2.175 2.063-2.062 2.176.964c.652.29 1.41.239 2.02-.136a16.358 16.358 0 0 1 4.808-1.992 2.18 2.18 0 0 0 1.523-1.332l.856-2.223h2.918l.855 2.223a2.164 2.164 0 0 0 1.523 1.332c1.7.402 3.317 1.074 4.809 1.992.61.379 1.363.426 2.02.136l2.175-.964 2.063 2.062-.965 2.176a2.165 2.165 0 0 0 .133 2.02 16.367 16.367 0 0 1 1.996 4.808 2.17 2.17 0 0 0 1.332 1.523l2.219.856v2.918l-2.22.851a2.18 2.18 0 0 0-1.331 1.524 16.337 16.337 0 0 1-1.992 4.812 2.154 2.154 0 0 0-.137 2.02l.965 2.176-2.063 2.062-2.175-.969a2.176 2.176 0 0 0-2.02.137 16.473 16.473 0 0 1-4.809 1.996c-.699.164-1.27.664-1.523 1.332l-.855 2.22h-2.918l-.856-2.22a2.157 2.157 0 0 0-1.52-1.332 16.451 16.451 0 0 1-4.812-1.996 2.177 2.177 0 0 0-2.02-.137l-2.175.97-2.063-2.063.965-2.176a2.165 2.165 0 0 0-.133-2.02 16.39 16.39 0 0 1-1.996-4.812 2.17 2.17 0 0 0-1.332-1.524l-2.219-.851V30.21l2.22-.856a2.18 2.18 0 0 0 1.331-1.523Zm-24.887 39.07 5.79 10.028a2.17 2.17 0 0 0 3.762 0l5.788-10.028c.192-.332.29-.703.29-1.086V33.84h1.363v.777c0 .899.554 1.703 1.39 2.028l2.582.992a20.707 20.707 0 0 0 1.637 3.945l-1.125 2.527a2.174 2.174 0 0 0 .45 2.418l4.171 4.172a2.165 2.165 0 0 0 2.414.446l2.528-1.122a20.89 20.89 0 0 0 3.949 1.637l.992 2.578c.32.84 1.125 1.39 2.023 1.39h5.899c.898 0 1.703-.55 2.027-1.39l.992-2.582a20.692 20.692 0 0 0 3.946-1.633L113 51.145a2.171 2.171 0 0 0 2.418-.446l4.172-4.172a2.18 2.18 0 0 0 .45-2.418l-1.126-2.527a20.962 20.962 0 0 0 1.637-3.945l2.578-.992a2.171 2.171 0 0 0 1.39-2.028v-.777h4.196v58.379H21.25v-58.38h38.066v31.977c0 .383.098.754.29 1.086Zm5.641 1.086h4.059l-2.028 3.516Zm15.36-42.398-.036.11-2.582.995a2.168 2.168 0 0 0-1.39 2.024v.781h-1.36v-3.91ZM66.312 14.145h1.93a2.655 2.655 0 0 1 2.652 2.652v46.848h-7.239V16.797a2.656 2.656 0 0 1 2.657-2.652Zm50.085 119.25v4.55H33.566v-4.55c0-2.465 2.86-4.551 6.243-4.551h70.347c3.383 0 6.242 2.086 6.242 4.55Zm-23.425-8.891h-35.98v-11.332h35.98Zm43.992-23.363c0 4.242-3.453 7.691-7.695 7.691H20.695c-4.242 0-7.691-3.45-7.691-7.691V33.285c0-4.242 3.45-7.695 7.691-7.695h38.621v3.91h-38.87a3.54 3.54 0 0 0-3.536 3.535v61.352c0 1.199.969 2.172 2.168 2.172h111.809c1.199 0 2.168-.973 2.168-2.172V33.035a3.54 3.54 0 0 0-3.54-3.535h-4.995v-.781c0-.899-.551-1.703-1.391-2.024l-2.578-.996c-.012-.035-.028-.07-.035-.11h8.754c4.242 0 7.695 3.454 7.695 7.696Zm-36.406-57.016c6.87 0 12.457-5.586 12.457-12.457 0-6.867-5.586-12.457-12.457-12.457-6.868 0-12.457 5.59-12.457 12.457 0 6.871 5.59 12.457 12.457 12.457Zm0-20.57c4.476 0 8.117 3.64 8.117 8.113 0 4.477-3.64 8.117-8.117 8.117-4.473 0-8.114-3.64-8.114-8.117 0-4.473 3.64-8.113 8.114-8.113Zm-3.567 61.02 5.59-20.864a2.175 2.175 0 0 1 2.66-1.535 2.175 2.175 0 0 1 1.535 2.66l-5.59 20.86a2.17 2.17 0 0 1-4.195-1.122ZM82.34 74.702c0-.637.281-1.246.77-1.66l9.109-7.672a2.168 2.168 0 1 1 2.797 3.316l-7.137 6.016 7.137 6.016a2.169 2.169 0 0 1 .261 3.058 2.16 2.16 0 0 1-1.66.774c-.496 0-.992-.168-1.398-.512l-9.11-7.676a2.168 2.168 0 0 1-.77-1.66Zm26.41 6.016 7.14-6.016-7.14-6.016a2.172 2.172 0 0 1 2.8-3.316l9.106 7.672a2.171 2.171 0 0 1 0 3.32l-9.105 7.676a2.17 2.17 0 1 1-2.801-3.32ZM28.617 82.5H73.81a2.169 2.169 0 1 1 0 4.34H28.617c-1.199 0-2.168-.973-2.168-2.172 0-1.2.969-2.168 2.168-2.168Zm-2.324-15.336c0-1.2.973-2.172 2.172-2.172h23.484a2.17 2.17 0 0 1 0 4.34H28.465c-1.2 0-2.172-.973-2.172-2.168Zm.078 8.754c0-1.2.973-2.172 2.168-2.172h23.484c1.2 0 2.172.973 2.172 2.172a2.171 2.171 0 0 1-2.172 2.168H28.54a2.17 2.17 0 0 1-2.168-2.168Zm.078-35.016c0-1.199.969-2.172 2.168-2.172h23.485a2.172 2.172 0 0 1 0 4.344H28.617c-1.199 0-2.168-.972-2.168-2.172Zm-.078 8.754c0-1.199.973-2.172 2.168-2.172h23.484a2.172 2.172 0 0 1 0 4.344H28.54a2.171 2.171 0 0 1-2.168-2.172Zm-.078 8.754c0-1.2.973-2.172 2.172-2.172h23.484c1.196 0 2.168.973 2.168 2.172 0 1.2-.972 2.168-2.168 2.168H28.465c-1.2 0-2.172-.969-2.172-2.168Zm0 0"/></g></svg>